<?xml version="1.0" encoding="UTF-8"?>
<svg version="1.1" xmlns="http://www.w3.org/2000/svg" width="1150" height="169">
<path d="M0 0 C6.27 0 12.54 0 19 0 C19.33 28.05 19.66 56.1 20 85 C30.52940409 81.06304529 30.52940409 81.06304529 40.25 76.125 C41.11794189 75.62009033 41.11794189 75.62009033 42.00341797 75.10498047 C46.32195755 72.5388569 50.28354079 69.66552035 54.1328125 66.4453125 C56 65 56 65 58.1171875 64.0546875 C60.50458986 62.71734593 60.88599589 61.45722717 62 59 C63.02984108 57.80440613 64.09568795 56.63928214 65.1875 55.5 C69.67271505 50.52480348 72.79256526 44.84942505 76 39 C80.01268958 39.54424985 81.98416846 41.52072201 84.8125 44.3125 C85.62332031 45.09238281 86.43414062 45.87226562 87.26953125 46.67578125 C89 49 89 49 88.9296875 50.98828125 C82.40852376 65.0992028 70.22289857 77.0472351 57 85 C56.18619873 85.50708496 56.18619873 85.50708496 55.35595703 86.02441406 C47.2971746 91.01580182 39.03135922 95.02229439 30.1875 98.4375 C29.34082764 98.76741943 28.49415527 99.09733887 27.62182617 99.43725586 C21.74706949 101.61741927 15.31713725 103.99747668 9 104 C4.94468028 101.41006639 2.63521602 97.95282402 0 94 C-0.18491553 90.97890348 -0.25206923 88.05123205 -0.22705078 85.03051758 C-0.22734283 84.11324387 -0.22763489 83.19597015 -0.22793579 82.25090027 C-0.22654111 79.2153481 -0.21097333 76.1800406 -0.1953125 73.14453125 C-0.19158286 71.04131708 -0.18873566 68.93810117 -0.18673706 66.83488464 C-0.17909673 61.29626681 -0.15944475 55.75775368 -0.1373291 50.21917725 C-0.11687932 44.56865862 -0.1077372 38.91812309 -0.09765625 33.26757812 C-0.07619927 22.17833198 -0.04101382 11.08919108 0 0 Z " fill="#000000" transform="translate(9,31)"/>
<path d="M0 0 C6.27 0 12.54 0 19 0 C19.33 28.05 19.66 56.1 20 85 C33.8244308 79.68291123 44.81313724 74.54776199 56 65 C57.010625 64.2575 58.02125 63.515 59.0625 62.75 C66.39250606 56.58613127 71.74209516 47.47301667 76 39 C80.01268958 39.54424985 81.98416846 41.52072201 84.8125 44.3125 C85.62332031 45.09238281 86.43414063 45.87226562 87.26953125 46.67578125 C89 49 89 49 88.9296875 50.98828125 C81.80963191 66.39512422 68.37523614 78.4130755 54 87 C53.06728271 87.56195068 53.06728271 87.56195068 52.11572266 88.13525391 C41.43208225 94.45228379 30.19892165 99.03840485 18.23730469 102.3671875 C16.27754092 102.92149868 14.35588477 103.60705793 12.4453125 104.3125 C7.28903881 103.84481078 5.25057218 101.38410365 1.94238281 97.54400635 C-2.62842698 90.45445757 -1.06926271 80.51209076 -0.87890625 72.4609375 C-0.86209862 70.3677546 -0.84929764 68.27453604 -0.84031677 66.18130493 C-0.80612202 60.69936592 -0.71786425 55.21960849 -0.61798096 49.73852539 C-0.52554449 44.13457749 -0.48473038 38.53027346 -0.43945312 32.92578125 C-0.34322791 21.94941313 -0.1850611 10.97523014 0 0 Z " fill="#161616" transform="translate(503,31)"/>
<path d="M0 0 C5.61 0 11.22 0 17 0 C17.33 11.55 17.66 23.1 18 35 C21.485625 36.11375 24.97125 37.2275 28.5625 38.375 C41.71199742 42.67361095 54.61617424 47.80808712 67 54 C65.6744419 57.62276315 64.05653045 60.63505348 61.875 63.8125 C61.06675781 64.99779297 61.06675781 64.99779297 60.2421875 66.20703125 C59.83226562 66.79871094 59.42234375 67.39039062 59 68 C54.34117886 67.36266609 50.63694115 65.50286518 46.4375 63.4375 C36.79758568 58.90482505 26.89048177 54.95619271 17 51 C17 69.48 17 87.96 17 107 C11.39 107 5.78 107 0 107 C0 71.69 0 36.38 0 0 Z " fill="#0C0C0C" transform="translate(405,30)"/>
<path d="M0 0 C33.33 0 66.66 0 101 0 C101 4.95 101 9.9 101 15 C87.8 15 74.6 15 61 15 C61.0825 18.568125 61.165 22.13625 61.25 25.8125 C61.35549562 39.54419301 58.80709091 48.77279657 49.2578125 58.8359375 C43.56632469 64.24403173 36.20019242 69.07913259 28.375 70.46484375 C26 70 26 70 23.98046875 67.8828125 C23.38878906 66.97273438 22.79710937 66.06265625 22.1875 65.125 C21.58292969 64.22007812 20.97835937 63.31515625 20.35546875 62.3828125 C19 60 19 60 19 58 C19.86882813 57.61328125 20.73765625 57.2265625 21.6328125 56.828125 C33.74537953 51.74542505 33.74537953 51.74542505 42 42 C44.69685729 32.29609894 44.69685729 32.29609894 45 15 C30.15 15 15.3 15 0 15 C0 10.05 0 5.1 0 0 Z " fill="#3D3D3D" transform="translate(727,68)"/>
<path d="M0 0 C2.81666361 0.58842283 5.62726432 1.19474236 8.4375 1.8125 C9.23994141 1.97814453 10.04238281 2.14378906 10.86914062 2.31445312 C12.93749958 2.77699753 14.97333737 3.37976241 17 4 C21.34991152 17.04973455 11.85784135 37.64765671 6.25 49.1875 C0.54466953 60.45322495 -7.3853048 69.83986786 -16 79 C-16.53753906 79.60199219 -17.07507812 80.20398438 -17.62890625 80.82421875 C-24.66429119 88.38858001 -36.11796785 97.75837912 -46 101 C-49.4182002 100.85982144 -50.70591652 100.27150115 -53.23828125 97.93359375 C-53.92277344 97.10988281 -54.60726563 96.28617187 -55.3125 95.4375 C-56.00988281 94.61121094 -56.70726562 93.78492187 -57.42578125 92.93359375 C-57.94527344 92.29550781 -58.46476562 91.65742187 -59 91 C-57.60939793 86.8281938 -54.70874995 85.85021373 -51.0625 83.8125 C-28.43368089 70.6595657 -11.72238651 51.10415902 -4.75 25.6640625 C-2.61038639 17.21150144 -1.14210537 8.64092877 0 0 Z " fill="#949494" transform="translate(1123,34)"/>
<path d="M0 0 C2.25028329 0.14139481 4.50022206 0.28828003 6.75 0.4375 C8.62945312 0.55931641 8.62945312 0.55931641 10.546875 0.68359375 C13.18317553 0.92515522 15.48037294 1.24283934 18 2 C18.83935868 28.43979832 12.23526167 55.01084221 -6.125 74.6875 C-17.75981296 85.66033222 -34.25540071 95.85108014 -50 99 C-52.97 95.04 -55.94 91.08 -59 87 C-57.41379373 83.82758745 -54.13081578 83.52039563 -50.9375 82.4375 C-32.56654546 75.85047072 -16.79647565 66.0241075 -8 48 C-1.69941338 32.80361112 -0.88592376 16.22639306 0 0 Z " fill="#050505" transform="translate(312,39)"/>
<path d="M0 0 C5.06998019 0.65419099 9.41990777 2.8546409 14 5 C13.41174803 8.06273763 12.55003709 9.88250751 10.5234375 12.2421875 C10.01683594 12.83386719 9.51023437 13.42554688 8.98828125 14.03515625 C8.45589844 14.64230469 7.92351562 15.24945313 7.375 15.875 C6.86582031 16.47441406 6.35664062 17.07382813 5.83203125 17.69140625 C1.51591151 22.67820123 1.51591151 22.67820123 -0.73213196 24.08041382 C-4.00887435 26.29601367 -5.7395003 27.87567714 -6.6517334 31.81289673 C-6.90732435 35.38887734 -6.94291598 38.90724193 -6.90234375 42.4921875 C-6.91463516 43.79326447 -6.92692657 45.09434143 -6.93959045 46.43484497 C-6.97172674 49.87770642 -6.96240866 53.31923173 -6.94421387 56.762146 C-6.93303009 60.28168179 -6.961384 63.80088015 -6.98632812 67.3203125 C-7.02940053 74.21380592 -7.0249882 81.10642053 -7 88 C-11.95 88 -16.9 88 -22 88 C-22.33 72.49 -22.66 56.98 -23 41 C-27.62 44.3 -32.24 47.6 -37 51 C-39.84236129 52.53344197 -42.43764728 53.8968827 -45.375 55.125 C-46.02726563 55.41375 -46.67953125 55.7025 -47.3515625 56 C-48.89485558 56.68086459 -50.44644259 57.34289308 -52 58 C-55.68006822 54.61831569 -57.9785845 51.57478244 -60 47 C-59.50822266 46.75467529 -59.01644531 46.50935059 -58.50976562 46.2565918 C-35.79497035 34.8385581 -15.0805325 20.94518403 0 0 Z " fill="#555555" transform="translate(901,50)"/>
<path d="M0 0 C2.4849818 0.9240185 4.96218659 1.86321843 7.4375 2.8125 C8.14455078 3.07353516 8.85160156 3.33457031 9.58007812 3.60351562 C11.42195557 4.31735329 13.21579492 5.15224475 15 6 C16.34269019 10.02807056 14.97969465 12.53442353 13.5 16.3125 C13.22591309 17.02164551 12.95182617 17.73079102 12.66943359 18.46142578 C7.31375175 32.03056436 0.83299963 43.97947534 -10 54 C-10.52464844 54.51820312 -11.04929687 55.03640625 -11.58984375 55.5703125 C-24.55998995 67.80009095 -41.64821041 73.53062954 -58.5625 77.875 C-59.39539551 78.09051514 -60.22829102 78.30603027 -61.08642578 78.52807617 C-65.85541189 79.69022154 -70.09309346 80.22393936 -75 80 C-75.67528223 78.42032193 -76.33989694 76.83608097 -77 75.25 C-77.37125 74.36828125 -77.7425 73.4865625 -78.125 72.578125 C-79 70 -79 70 -79 66 C-78.32122803 65.84966309 -77.64245605 65.69932617 -76.94311523 65.54443359 C-51.93870256 59.9446303 -27.40531685 53.29070102 -12.515625 30.50390625 C-6.68796817 20.8762567 -3.38419523 10.67591486 0 0 Z " fill="#282828" transform="translate(692,55)"/>
<path d="M0 0 C2.48264423 0.95003714 4.96087714 1.90949879 7.4375 2.875 C8.14455078 3.14441406 8.85160156 3.41382813 9.58007812 3.69140625 C14.88671875 5.7734375 14.88671875 5.7734375 16 8 C12.53304012 22.68476685 5.15194099 37.80398631 -5 49 C-5.64066406 49.7321875 -6.28132813 50.464375 -6.94140625 51.21875 C-20.39882782 65.69229364 -38.45440213 72.46568828 -57.125 77.4375 C-58.09687256 77.69684326 -59.06874512 77.95618652 -60.07006836 78.22338867 C-65.18873988 79.51582991 -69.72152298 80.29974731 -75 80 C-77.475 73.565 -77.475 73.565 -80 67 C-76.42262672 65.80754224 -73.21972618 64.75008176 -69.6015625 63.95703125 C-47.58904185 58.93084641 -25.50588553 50.41191487 -12.58984375 30.71875 C-7.54661198 22.09445194 -4.27416518 13.32886915 -1.76171875 3.703125 C-1 1 -1 1 0 0 Z " fill="#010101" transform="translate(198,55)"/>
<path d="M0 0 C33.99 0 67.98 0 103 0 C103 4.95 103 9.9 103 15 C69.01 15 35.02 15 0 15 C0 10.05 0 5.1 0 0 Z " fill="#727272" transform="translate(937,74)"/>
<path d="M0 0 C24.42 0 48.84 0 74 0 C74 4.29 74 8.58 74 13 C49.58 13 25.16 13 0 13 C0 8.71 0 4.42 0 0 Z " fill="#3D3D3D" transform="translate(740,35)"/>
<path d="M0 0 C12.87808494 5.98747326 23.95476101 13.06544676 35 22 C33.46356148 25.68069887 31.21849055 27.98775204 28.375 30.75 C27.55773437 31.54921875 26.74046875 32.3484375 25.8984375 33.171875 C25.27195313 33.77515625 24.64546875 34.3784375 24 35 C20.06884965 33.31658768 16.97238574 30.67512479 13.6875 28 C6.43208901 22.18146781 -1.19175156 17.04146013 -9 12 C-7.55575365 8.76138697 -5.74227753 6.38030837 -3.375 3.75 C-2.74335937 3.04359375 -2.11171875 2.3371875 -1.4609375 1.609375 C-0.97882813 1.07828125 -0.49671875 0.5471875 0 0 Z " fill="#000000" transform="translate(126,37)"/>
<path d="M0 0 C12.87808494 5.98747326 23.95476101 13.06544676 35 22 C33.46356148 25.68069887 31.21849055 27.98775204 28.375 30.75 C27.55773437 31.54921875 26.74046875 32.3484375 25.8984375 33.171875 C25.27195312 33.77515625 24.64546875 34.3784375 24 35 C19.79198122 33.2518927 16.59366921 30.31519754 13.125 27.4375 C6.09192522 21.69116515 -1.25401992 16.72636073 -9 12 C-7.55575365 8.76138697 -5.74227753 6.38030837 -3.375 3.75 C-2.74335937 3.04359375 -2.11171875 2.3371875 -1.4609375 1.609375 C-0.97882812 1.07828125 -0.49671875 0.5471875 0 0 Z " fill="#232323" transform="translate(620,37)"/>
<path d="M0 0 C6.52110729 5.35764983 10.31250965 15.17387608 14.2109375 22.51953125 C14.66033691 23.36507568 15.10973633 24.21062012 15.57275391 25.08178711 C15.98831543 25.87721924 16.40387695 26.67265137 16.83203125 27.4921875 C17.20642334 28.20769775 17.58081543 28.92320801 17.96655273 29.66040039 C18.7734375 31.45703125 18.7734375 31.45703125 18.7734375 33.45703125 C16.52782468 34.32465439 14.27817495 35.17624155 12.0234375 36.01953125 C11.07210938 36.38981445 11.07210938 36.38981445 10.1015625 36.76757812 C4.16899498 38.96139216 4.16899498 38.96139216 0.7734375 37.45703125 C-0.61108398 35.375 -0.61108398 35.375 -1.84765625 32.64453125 C-2.53891602 31.15373047 -2.53891602 31.15373047 -3.24414062 29.6328125 C-3.71271484 28.58480469 -4.18128906 27.53679687 -4.6640625 26.45703125 C-5.59749386 24.41409826 -6.53366151 22.37241313 -7.47265625 20.33203125 C-7.92624512 19.34460938 -8.37983398 18.3571875 -8.84716797 17.33984375 C-10.79271382 13.27382509 -12.9639017 9.35380179 -15.2265625 5.45703125 C-13.1529066 4.3962304 -11.06721164 3.35893601 -8.9765625 2.33203125 C-7.81640625 1.75195312 -6.65625 1.171875 -5.4609375 0.57421875 C-2.2265625 -0.54296875 -2.2265625 -0.54296875 0 0 Z " fill="#030303" transform="translate(247.2265625,46.54296875)"/>
<path d="M0 0 C2.14944884 2.59716814 3.77394179 5.45025836 5.4375 8.375 C6.15546753 9.5971521 6.15546753 9.5971521 6.88793945 10.84399414 C8.27618503 13.21970851 9.64064016 15.60767152 11 18 C11.68215585 19.17846404 12.36442921 20.35686008 13.046875 21.53515625 C17 28.52842262 17 28.52842262 17 32 C14.5433053 33.00419637 12.08481647 34.00350501 9.625 35 C8.92632812 35.28617188 8.22765625 35.57234375 7.5078125 35.8671875 C2.2265625 38 2.2265625 38 0 38 C-0.235979 37.46221924 -0.47195801 36.92443848 -0.71508789 36.37036133 C-5.06786763 26.48458364 -9.45445005 16.74022191 -14.78515625 7.3359375 C-16 5 -16 5 -16 3 C-14.27709395 2.29695778 -12.54632534 1.61316509 -10.8125 0.9375 C-9.84957031 0.55464844 -8.88664062 0.17179687 -7.89453125 -0.22265625 C-4.52414441 -1.12779388 -3.18651696 -1.47263323 0 0 Z " fill="#040404" transform="translate(280,35)"/>
</svg>
