<?xml version="1.0" encoding="UTF-8"?>
<svg version="1.1" xmlns="http://www.w3.org/2000/svg" width="1150" height="169">
<path d="M0 0 C2.87109375 0.34765625 2.87109375 0.34765625 6.4375 1.0625 C7.61183594 1.28035156 8.78617188 1.49820312 9.99609375 1.72265625 C13 3 13 3 14.22265625 5.87890625 C14.47917969 6.90886719 14.73570312 7.93882813 15 9 C23.59220335 21.83948569 38.54591563 29.3748827 52 36 C51.71517632 37.41805831 51.42181856 38.83440379 51.125 40.25 C50.96257812 41.03890625 50.80015625 41.8278125 50.6328125 42.640625 C50.00849925 44.96831144 49.15161458 46.89031952 48 49 C46.68 49 45.36 49 44 49 C44.00999275 50.18937164 44.00999275 50.18937164 44.02018738 51.402771 C44.08031264 58.87730776 44.12598145 66.35172718 44.15543652 73.82644272 C44.17108879 77.66923087 44.19231873 81.5118191 44.22631836 85.35449219 C44.25892795 89.06329563 44.27685631 92.77190684 44.28463173 96.48084259 C44.29017241 97.89543941 44.30099212 99.31002578 44.31719017 100.72454071 C44.33898301 102.70655548 44.34022556 104.6887639 44.34057617 106.67089844 C44.35056892 108.36300446 44.35056892 108.36300446 44.36076355 110.08929443 C43.95689242 113.34779978 43.36213204 114.73953266 41 117 C38.28770497 117.29642569 36.00260268 117.38061189 33.3125 117.25 C32.61060547 117.23195313 31.90871094 117.21390625 31.18554688 117.1953125 C29.45644564 117.14826213 27.72804795 117.07651873 26 117 C25.67 115.68 25.34 114.36 25 113 C24.67 113.33 24.34 113.66 24 114 C19.71 114 15.42 114 11 114 C11 104.76 11 95.52 11 86 C8.36 86 5.72 86 3 86 C3 95.24 3 104.48 3 114 C-1.29 114 -5.58 114 -10 114 C-10 104.76 -10 95.52 -10 86 C-12.64 86 -15.28 86 -18 86 C-18 96.23 -18 106.46 -18 117 C-22.29 117 -26.58 117 -31 117 C-31 95.22 -31 73.44 -31 51 C-33.475 51.495 -33.475 51.495 -36 52 C-36.33 51.34 -36.66 50.68 -37 50 C-37.33 72.11 -37.66 94.22 -38 117 C-42.62 117 -47.24 117 -52 117 C-52.33 98.85 -52.66 80.7 -53 62 C-54.98 64.475 -54.98 64.475 -57 67 C-58.485 67.495 -58.485 67.495 -60 68 C-61.06092734 66.09392715 -62.09820101 64.17467254 -63.125 62.25 C-63.70507812 61.18265625 -64.28515625 60.1153125 -64.8828125 59.015625 C-66 56 -66 56 -65.40625 53.90234375 C-63.76168947 51.67761881 -62.08754452 49.48558936 -60.375 47.3125 C-50.264334 33.43547379 -45.5808356 17.36043701 -41 1 C-39.39785569 1.3068737 -37.7964282 1.61749144 -36.1953125 1.9296875 C-35.30344238 2.10226074 -34.41157227 2.27483398 -33.49267578 2.45263672 C-30.84845994 3.03327647 -28.4535926 3.85499012 -26 5 C-26 6.65 -26 8.3 -26 10 C-26.66 10 -27.32 10 -28 10 C-28.14695312 10.680625 -28.29390625 11.36125 -28.4453125 12.0625 C-30.52155102 21.0356688 -33.64568366 29.44595057 -37 38 C-21.46952838 29.27650105 -11.60077396 18.74141543 -2.56640625 3.58984375 C-1 1 -1 1 0 0 Z M5 17 C3.48845023 19.43708332 2.08560775 21.92916273 0.66796875 24.421875 C-1 27 -1 27 -5 31 C2.59 31 10.18 31 18 31 C16.02 28.69 14.04 26.38 12 24 C8.6875 20.0625 8.6875 20.0625 7.19921875 18.28515625 C6.80347656 17.86105469 6.40773438 17.43695313 6 17 C5.67 17 5.34 17 5 17 Z M-18.8125 42.3125 C-21.48023527 44.69994789 -24.12284626 46.8421347 -27 49 C-3.57 49 19.86 49 44 49 C41.15346287 46.86509715 38.31761757 44.80540989 35.375 42.8125 C34.59898437 42.28269531 33.82296875 41.75289062 33.0234375 41.20703125 C31.10641502 39.82923342 31.10641502 39.82923342 29 40 C29 41.65 29 43.3 29 45 C14.81 45 0.62 45 -14 45 C-14 43.02 -14 41.04 -14 39 C-15.94154109 39 -17.44997509 41.09153612 -18.8125 42.3125 Z M-18 61 C-18 65.62 -18 70.24 -18 75 C-15.36 75 -12.72 75 -10 75 C-10 70.38 -10 65.76 -10 61 C-12.64 61 -15.28 61 -18 61 Z M3 61 C3 65.62 3 70.24 3 75 C5.64 75 8.28 75 11 75 C11 70.38 11 65.76 11 61 C8.36 61 5.72 61 3 61 Z M24 61 C24 65.62 24 70.24 24 75 C26.64 75 29.28 75 32 75 C32 70.38 32 65.76 32 61 C29.36 61 26.72 61 24 61 Z M24 86 C24 92.27 24 98.54 24 105 C26.64 105 29.28 105 32 105 C32 98.73 32 92.46 32 86 C29.36 86 26.72 86 24 86 Z " fill="#2C2C2C" transform="translate(660,25)"/>
<path d="M0 0 C2.10388569 -0.05402274 4.20816714 -0.09280256 6.3125 -0.125 C8.07013672 -0.15980469 8.07013672 -0.15980469 9.86328125 -0.1953125 C13 0 13 0 16 2 C15.34 5.3 14.68 8.6 14 12 C22.58 12 31.16 12 40 12 C40 8.04 40 4.08 40 0 C51.625 -0.125 51.625 -0.125 55 1 C54.67 4.63 54.34 8.26 54 12 C63.24 12 72.48 12 82 12 C82 15.96 82 19.92 82 24 C72.76 24 63.52 24 54 24 C54 26.31 54 28.62 54 31 C49.38 31 44.76 31 40 31 C40 28.69 40 26.38 40 24 C38.35 24.33 36.7 24.66 35 25 C34.67 27.64 34.34 30.28 34 33 C47.86 33 61.72 33 76 33 C76 36.96 76 40.92 76 45 C69.07 45 62.14 45 55 45 C54.01 47.97 54.01 47.97 53 51 C62.57 51.33 72.14 51.66 82 52 C82 60.58 82 69.16 82 78 C77.38 78 72.76 78 68 78 C68 73.38 68 68.76 68 64 C56.78 64 45.56 64 34 64 C34 65.98 34 67.96 34 70 C44.89 70 55.78 70 67 70 C67.061875 74.846875 67.12375 79.69375 67.1875 84.6875 C67.22846802 86.96853638 67.22846802 86.96853638 67.27026367 89.2956543 C67.27775635 90.50133057 67.28524902 91.70700684 67.29296875 92.94921875 C67.3086792 94.17987061 67.32438965 95.41052246 67.34057617 96.6784668 C66.94185388 100.567081 65.78231001 103.21768999 63 106 C60.30345146 106.07319621 57.63308542 106.09242537 54.9375 106.0625 C54.17888672 106.05798828 53.42027344 106.05347656 52.63867188 106.04882812 C50.75908129 106.0370068 48.87953101 106.01907078 47 106 C46.01 101.71 45.02 97.42 44 93 C46.64 93 49.28 93 52 93 C52 89.37 52 85.74 52 82 C46.06 82 40.12 82 34 82 C34 93.22 34 104.44 34 116 C29.05 116 24.1 116 19 116 C19 104.78 19 93.56 19 82 C13.39 82 7.78 82 2 82 C2 89.92 2 97.84 2 106 C-2.62 106 -7.24 106 -12 106 C-12 94.12 -12 82.24 -12 70 C-1.77 70 8.46 70 19 70 C19 68.02 19 66.04 19 64 C8.11 64 -2.78 64 -14 64 C-14 68.62 -14 73.24 -14 78 C-18.62 78 -23.24 78 -28 78 C-28 69.42 -28 60.84 -28 52 C-18.76 52 -9.52 52 0 52 C-0.99 48.535 -0.99 48.535 -2 45 C-8.27 45 -14.54 45 -21 45 C-21 41.04 -21 37.08 -21 33 C-7.8 33 5.4 33 19 33 C19 30.03 19 27.06 19 24 C17.35 24 15.7 24 14 24 C14 26.31 14 28.62 14 31 C9.38 31 4.76 31 0 31 C0 28.69 0 26.38 0 24 C-8.91 24 -17.82 24 -27 24 C-27 20.04 -27 16.08 -27 12 C-18.09 12 -9.18 12 0 12 C0 8.04 0 4.08 0 0 Z M12 45 C12.66 47.31 13.32 49.62 14 52 C22.25 52 30.5 52 39 52 C39.66 49.69 40.32 47.38 41 45 C31.43 45 21.86 45 12 45 Z " fill="#535353" transform="translate(755,27)"/>
<path d="M0 0 C4.62 0 9.24 0 14 0 C15 5 15 5 14 12 C21.26 12 28.52 12 36 12 C36 8.04 36 4.08 36 0 C40.95 0 45.9 0 51 0 C52 4 52 4 51 12 C60.9 12 70.8 12 81 12 C81 16.29 81 20.58 81 25 C71.1 25 61.2 25 51 25 C51 26.98 51 28.96 51 31 C51.70125 31.226875 52.4025 31.45375 53.125 31.6875 C56.80081558 33.36558972 59.09945058 35.16690522 62 38 C62 39.32 62 40.64 62 42 C61.4225 42.21140625 60.845 42.4228125 60.25 42.640625 C57.19317605 44.48745613 55.91135112 46.74858145 54 49.75 C53.34 50.77609375 52.68 51.8021875 52 52.859375 C51.34 53.89578125 50.68 54.9321875 50 56 C48.67599405 58.00641313 47.33896574 60.00350644 46 62 C46.99 63.98 46.99 63.98 48 66 C48.66 66 49.32 66 50 66 C51.40639905 64.22373458 51.40639905 64.22373458 52.78515625 61.9140625 C53.31560547 61.06585938 53.84605469 60.21765625 54.39257812 59.34375 C55.21918945 57.99796875 55.21918945 57.99796875 56.0625 56.625 C56.61744141 55.73554687 57.17238281 54.84609375 57.74414062 53.9296875 C60.51180155 49.54396564 60.51180155 49.54396564 63 45 C68.07705102 46.79190036 72.88429764 48.76859528 75.375 53.75 C75.684375 54.86375 75.684375 54.86375 76 56 C75.071875 56.0928125 75.071875 56.0928125 74.125 56.1875 C73.42375 56.455625 72.7225 56.72375 72 57 C71.32406164 58.66292801 70.6595041 60.33048613 70 62 C68.70838454 64.04774868 67.37192294 66.06766352 66 68.0625 C63.77704589 71.30294598 61.64562703 74.42590379 60 78 C60.928125 77.505 61.85625 77.01 62.8125 76.5 C66 75 66 75 69 75 C70.61162997 77.16418881 71.96675778 79.23860652 73.3125 81.5625 C73.70622803 82.23128174 74.09995605 82.90006348 74.50561523 83.58911133 C78.83702879 91.15076153 84 100.18094693 84 109 C82.06532058 109.83986084 80.12714871 110.67168027 78.1875 111.5 C76.56908203 112.19609375 76.56908203 112.19609375 74.91796875 112.90625 C72 114 72 114 69 114 C68.01 109.545 68.01 109.545 67 105 C66.01 105.495 66.01 105.495 65 106 C62.71141895 106.25849853 60.41696081 106.46562841 58.12109375 106.6484375 C56.71025211 106.76782397 55.2994459 106.88762964 53.88867188 107.0078125 C51.67310355 107.19226021 49.45742579 107.37344084 47.2409668 107.546875 C39.13285067 108.18830817 31.62439282 108.97534545 24 112 C21.98477757 112.58228187 19.96475678 113.14860896 17.9375 113.6875 C16.99777344 113.93886719 16.05804688 114.19023437 15.08984375 114.44921875 C14.40019531 114.63097656 13.71054687 114.81273437 13 115 C12.34 112.03 11.68 109.06 11 106 C10.01 106.33 9.02 106.66 8 107 C5.93456595 107.20631059 3.86437652 107.36638965 1.79296875 107.5 C0.56642578 107.5825 -0.66011719 107.665 -1.92382812 107.75 C-3.20708984 107.8325 -4.49035156 107.915 -5.8125 108 C-8.34001982 108.16397493 -10.86737246 108.33055195 -13.39453125 108.5 C-15.07832886 108.60828125 -15.07832886 108.60828125 -16.79614258 108.71875 C-19.90523081 108.9916807 -22.93013214 109.44379105 -26 110 C-29.38464596 105.3845737 -30.08907506 100.51913346 -31 95 C-30.41734375 95.10183594 -29.8346875 95.20367187 -29.234375 95.30859375 C-25.2861236 95.51345585 -22.39909207 95.2343966 -19.33251953 92.52880859 C-17.55983841 90.62504358 -15.92225796 88.66828309 -14.3125 86.625 C-13.77141602 85.93978271 -13.23033203 85.25456543 -12.67285156 84.54858398 C-10.65492868 81.88532166 -10.65492868 81.88532166 -9 79 C-10.17049661 75.48851016 -11.01396154 75.02861917 -14 73.00390625 C-15.2065625 72.16569336 -15.2065625 72.16569336 -16.4375 71.31054688 C-18.14401694 70.14642137 -19.85235059 68.98495452 -21.5625 67.82617188 C-22.366875 67.26607422 -23.17125 66.70597656 -24 66.12890625 C-24.7425 65.62431885 -25.485 65.11973145 -26.25 64.59985352 C-28.27467976 62.74888721 -28.7378352 61.70653622 -29 59 C-28.00390625 56.859375 -28.00390625 56.859375 -26.5625 54.75 C-26.08941406 54.04359375 -25.61632812 53.3371875 -25.12890625 52.609375 C-24.75636719 52.07828125 -24.38382812 51.5471875 -24 51 C-20.62537285 51.54723683 -18.91765 52.0549 -16 54 C-12.04 46.74 -8.08 39.48 -4 32 C-3.01 32 -2.02 32 -1 32 C-0.67 29.69 -0.34 27.38 0 25 C-9.24 25 -18.48 25 -28 25 C-28 20.71 -28 16.42 -28 12 C-18.76 12 -9.52 12 0 12 C0 8.04 0 4.08 0 0 Z M14 25 C14 28.3 14 31.6 14 35 C10.7 35 7.4 35 4 35 C4.804375 35.928125 5.60875 36.85625 6.4375 37.8125 C8.32708494 39.99279031 9.05779145 41.17337435 10 44 C9.39317383 44.09079834 8.78634766 44.18159668 8.16113281 44.27514648 C5.43020704 45.19111108 4.88409076 46.15421675 3.421875 48.59765625 C2.98359375 49.31630859 2.5453125 50.03496094 2.09375 50.77539062 C1.6503125 51.53013672 1.206875 52.28488281 0.75 53.0625 C0.06164062 54.20041992 0.06164062 54.20041992 -0.640625 55.36132812 C-1.77162151 57.2345411 -2.89070522 59.11388193 -4 61 C-2.63676257 63.0399719 -2.63676257 63.0399719 -1 65 C-0.34 65 0.32 65 1 65 C2.32851127 63.22288108 2.32851127 63.22288108 3.6015625 60.9140625 C4.09140625 60.06585938 4.58125 59.21765625 5.0859375 58.34375 C5.59382813 57.4465625 6.10171875 56.549375 6.625 55.625 C7.3984375 54.29082031 7.3984375 54.29082031 8.1875 52.9296875 C10.92402636 48.71651756 10.92402636 48.71651756 12 44 C17.31084793 46.3589126 20.90735657 48.7904239 25 53 C25.99 53 26.98 53 28 53 C30.34210921 53.63514826 32.67684969 54.2986716 35 55 C36.84052424 52.0460832 38.67117365 49.08617092 40.5 46.125 C41.02464844 45.28324219 41.54929687 44.44148438 42.08984375 43.57421875 C42.58613281 42.76855469 43.08242188 41.96289062 43.59375 41.1328125 C44.28500977 40.01737061 44.28500977 40.01737061 44.99023438 38.87939453 C46.1577648 37.06194576 46.1577648 37.06194576 46 35 C42.7 35 39.4 35 36 35 C36 31.7 36 28.4 36 25 C28.74 25 21.48 25 14 25 Z M22 56 C20.48691105 58.07375268 20.48691105 58.07375268 18.9375 60.75 C14.99465512 67.14672513 10.57924903 73.0500914 6 79 C9.81756824 80.37432457 13.07255329 79.67975039 17 79 C17.42152344 80.07121094 17.84304688 81.14242187 18.27734375 82.24609375 C18.83059319 83.64328302 19.38398602 85.04041551 19.9375 86.4375 C20.21529297 87.14455078 20.49308594 87.85160156 20.77929688 88.58007812 C21.96222034 92.04673881 21.96222034 92.04673881 24 95 C26.79152877 95.65425813 26.79152877 95.65425813 30 95 C32.36378324 93.03119145 34.07596537 90.66850563 35.875 88.1875 C36.37257813 87.54490234 36.87015625 86.90230469 37.3828125 86.24023438 C40.32782287 82.55309771 40.32782287 82.55309771 41 78 C39.78890557 76.54226102 39.78890557 76.54226102 38.11328125 75.22265625 C37.50419922 74.70896484 36.89511719 74.19527344 36.26757812 73.66601562 C35.29981445 72.87227539 35.29981445 72.87227539 34.3125 72.0625 C33.68666016 71.53720703 33.06082031 71.01191406 32.41601562 70.47070312 C28.9828669 67.59836194 25.50651006 64.78241238 22 62 C22.66 60.02 23.32 58.04 24 56 C23.34 56 22.68 56 22 56 Z M56 81 C54.10849857 83.12166853 52.26338618 85.26056954 50.4375 87.4375 C49.91736328 88.04916016 49.39722656 88.66082031 48.86132812 89.29101562 C46.21632669 91.84020456 46.21632669 91.84020456 45 95 C51.11485027 95.09706112 56.93303301 94.77040851 63 94 C61.02 89.71 59.04 85.42 57 81 C56.67 81 56.34 81 56 81 Z M3 83 C1.77535551 84.42728351 0.59486503 85.89263751 -0.5625 87.375 C-1.20316406 88.18710938 -1.84382813 88.99921875 -2.50390625 89.8359375 C-4.18955647 91.83571083 -4.18955647 91.83571083 -4 94 C-0.0186217 95.3271261 3.85045227 95.06915913 8 95 C6.68 91.04 5.36 87.08 4 83 C3.67 83 3.34 83 3 83 Z " fill="#040404" transform="translate(343,28)"/>
<path d="M0 0 C11.625 -0.125 11.625 -0.125 15 1 C14.67 5.62 14.34 10.24 14 15 C18.62 15 23.24 15 28 15 C28 10.05 28 5.1 28 0 C40.625 -0.25 40.625 -0.25 44 2 C43.34 6.29 42.68 10.58 42 15 C46.95 15 51.9 15 57 15 C57 19.29 57 23.58 57 28 C52.05 28 47.1 28 42 28 C42 31.63 42 35.26 42 39 C37.05 39 32.1 39 27 39 C26.01 41.31 25.02 43.62 24 46 C35.55 46 47.1 46 59 46 C59 50.29 59 54.58 59 59 C57.86981445 58.99363525 56.73962891 58.98727051 55.57519531 58.98071289 C51.377715 58.96627137 47.18160309 58.99761351 42.984375 59.04272461 C41.16866716 59.05585607 39.35282552 59.05660604 37.53710938 59.04467773 C34.9244404 59.02967061 32.3154892 59.05932964 29.703125 59.09765625 C28.48728729 59.07627342 28.48728729 59.07627342 27.24688721 59.05445862 C26.10615753 59.08369667 26.10615753 59.08369667 24.94238281 59.11352539 C24.27619934 59.115746 23.61001587 59.11796661 22.92364502 59.12025452 C19.95292926 60.25275751 19.95292926 60.25275751 17 67 C34.325 67.495 34.325 67.495 52 68 C52 82.85 52 97.7 52 113 C47.71 113 43.42 113 39 113 C39 111.68 39 110.36 39 109 C31.41 109 23.82 109 16 109 C16 110.98 16 112.96 16 115 C11.71 115 7.42 115 3 115 C2.67 105.76 2.34 96.52 2 87 C-1.96 91.455 -1.96 91.455 -6 96 C-8.475 96.99 -8.475 96.99 -11 98 C-11.99 96.35 -12.98 94.7 -14 93 C-14.33 99.93 -14.66 106.86 -15 114 C-19.29 114 -23.58 114 -28 114 C-28 112.68 -28 111.36 -28 110 C-31.96 110 -35.92 110 -40 110 C-40 111.98 -40 113.96 -40 116 C-43.96 116 -47.92 116 -52 116 C-52 101.48 -52 86.96 -52 72 C-39.79 72 -27.58 72 -15 72 C-15 75.96 -15 79.92 -15 84 C-5.45077765 77.33070185 0.7938574 69.4122852 6 59 C-0.27 59 -6.54 59 -13 59 C-13 54.71 -13 50.42 -13 46 C-5.08 46 2.84 46 11 46 C11.33 43.69 11.66 41.38 12 39 C8.04 39 4.08 39 0 39 C0 35.37 0 31.74 0 28 C-3.96 28 -7.92 28 -12 28 C-12 29.65 -12 31.3 -12 33 C-26.85 33 -41.7 33 -57 33 C-57 28.71 -57 24.42 -57 20 C-42.15 20 -27.3 20 -12 20 C-12 18.35 -12 16.7 -12 15 C-8.04 15 -4.08 15 0 15 C0 10.05 0 5.1 0 0 Z M14 28 C14 28.66 14 29.32 14 30 C18.62 31.32 23.24 32.64 28 34 C28 32.02 28 30.04 28 28 C23.38 28 18.76 28 14 28 Z M16 80 C16 85.61 16 91.22 16 97 C23.59 97 31.18 97 39 97 C39 91.39 39 85.78 39 80 C31.41 80 23.82 80 16 80 Z M-40 84 C-40 88.62 -40 93.24 -40 98 C-36.04 98 -32.08 98 -28 98 C-28 93.38 -28 88.76 -28 84 C-31.96 84 -35.92 84 -40 84 Z " fill="#878787" transform="translate(910,27)"/>
<path d="M0 0 C11.625 -0.125 11.625 -0.125 15 1 C14.67 8.26 14.34 15.52 14 23 C18.62 23 23.24 23 28 23 C27.67 21.35 27.34 19.7 27 18 C31.04468114 16.61533779 35.0947028 15.3966223 39.2265625 14.30078125 C53.70533108 10.41333643 67.9391846 6.23802203 82 1 C83.20555009 2.71663118 84.38887724 4.44888468 85.5625 6.1875 C86.22378906 7.15042969 86.88507813 8.11335938 87.56640625 9.10546875 C89.18086851 12.36518683 89.13238877 13.61520953 88 17 C87.35675781 17.09796875 86.71351563 17.1959375 86.05078125 17.296875 C79.37719653 18.40120571 73.08258166 20.10032417 66.65234375 22.1953125 C64 23 64 23 62 23 C62 31.91 62 40.82 62 50 C64.27519531 49.566875 66.55039062 49.13375 68.89453125 48.6875 C71.09859079 48.26985196 73.30282581 47.85314237 75.50708008 47.43652344 C77.03884181 47.14648955 78.57041924 46.85548047 80.10180664 46.56347656 C82.30307037 46.14391641 84.5049732 45.72786827 86.70703125 45.3125 C87.39150833 45.18125732 88.07598541 45.05001465 88.78120422 44.91479492 C91.5753614 44.39070509 94.14900304 44 97 44 C97.495 50.93 97.495 50.93 98 58 C91.89456647 59.9063379 85.73569313 61.04118092 79.4375 62.125 C78.42236328 62.30675781 77.40722656 62.48851562 76.36132812 62.67578125 C75.37455078 62.84722656 74.38777344 63.01867187 73.37109375 63.1953125 C72.48349365 63.35016113 71.59589355 63.50500977 70.68139648 63.66455078 C68 64 68 64 62 64 C62 74.89 62 85.78 62 97 C71.9 96.505 71.9 96.505 82 96 C83.46233512 92.3441622 84.78322054 88.7372512 86 85 C87.41805831 85.28482368 88.83440379 85.57818144 90.25 85.875 C91.03890625 86.03742188 91.8278125 86.19984375 92.640625 86.3671875 C94.96831144 86.99150075 96.89031952 87.84838542 99 89 C98.58941399 95.46672961 97.73175009 101.5340837 94 107 C89.79401383 110.23331469 85.9396942 110.46736562 80.8125 110.46875 C79.64231323 110.48017029 79.64231323 110.48017029 78.44848633 110.49182129 C76.80455719 110.50259226 75.16055979 110.50548762 73.51660156 110.50097656 C71.00730136 110.50000283 68.5010477 110.54168085 65.9921875 110.5859375 C64.39063135 110.59114412 62.78906462 110.5938327 61.1875 110.59375 C60.44153564 110.61014526 59.69557129 110.62654053 58.92700195 110.64343262 C54.96125122 110.59103081 53.18932998 110.15083706 50.05078125 107.65039062 C46.6084508 103.20158831 46.86633049 99.21852625 46.90234375 93.83203125 C46.9037587 93.03721848 46.90517365 92.2424057 46.90663147 91.42350769 C46.91222622 88.88646675 46.92477772 86.34951425 46.9375 83.8125 C46.94251568 82.09179815 46.94707847 80.37109492 46.95117188 78.65039062 C46.96219393 74.4335597 46.97945494 70.21679484 47 66 C46.04738281 66.2165625 45.09476563 66.433125 44.11328125 66.65625 C42.85902344 66.9346875 41.60476563 67.213125 40.3125 67.5 C39.07113281 67.7784375 37.82976563 68.056875 36.55078125 68.34375 C33.57601782 68.89354126 31.00631398 69.13795705 28 69 C28 66.69 28 64.38 28 62 C27.15695312 62.28875 26.31390625 62.5775 25.4453125 62.875 C24.34960938 63.24625 23.25390625 63.6175 22.125 64 C21.03445313 64.37125 19.94390625 64.7425 18.8203125 65.125 C16 66 16 66 14 66 C14.02094727 67.24612061 14.04189453 68.49224121 14.06347656 69.77612305 C14.13597351 74.40719067 14.18183513 79.0382083 14.21972656 83.66967773 C14.23981991 85.67269328 14.26709965 87.67565032 14.30175781 89.6784668 C14.35037611 92.56053108 14.37299152 95.44181866 14.390625 98.32421875 C14.41127014 99.21711105 14.43191528 100.11000336 14.45318604 101.029953 C14.45467755 105.1792699 14.34988133 107.42053812 12.16308594 111.04223633 C8.34981848 114.49354465 4.82182395 114.13515775 -0.125 114.125 C-2.01605469 114.12886719 -2.01605469 114.12886719 -3.9453125 114.1328125 C-7 114 -7 114 -8 113 C-8.23481693 110.81707226 -8.41363323 108.62796826 -8.5625 106.4375 C-8.64628906 105.23996094 -8.73007812 104.04242188 -8.81640625 102.80859375 C-8.87699219 101.88175781 -8.93757813 100.95492187 -9 100 C-6.03 100 -3.06 100 0 100 C0 90.43 0 80.86 0 71 C-2.64 72.32 -5.28 73.64 -8 75 C-11 75.25 -11 75.25 -13 75 C-16.25968109 65.58997722 -16.25968109 65.58997722 -17 61 C-15.67037928 60.51062571 -14.33600575 60.03416419 -13 59.5625 C-12.2575 59.29566406 -11.515 59.02882812 -10.75 58.75390625 C-7.24848515 57.79397391 -3.60267611 57.45033451 0 57 C0 50.4 0 43.8 0 37 C-4.62 37 -9.24 37 -14 37 C-14 32.38 -14 27.76 -14 23 C-9.38 23 -4.76 23 0 23 C0 15.41 0 7.82 0 0 Z M41.3125 27 C37.47024329 27.78278401 33.93713551 28.20721766 30 28 C30 30.97 30 33.94 30 37 C24.72 37 19.44 37 14 37 C14 41.95 14 46.9 14 52 C18.35806333 51.27365611 21.90729837 50.46167915 26 49 C26.33 51.31 26.66 53.62 27 56 C33.6 55.01 40.2 54.02 47 53 C47 44.09 47 35.18 47 26 C45.08191727 26 43.17869825 26.5983071 41.3125 27 Z " fill="#131313" transform="translate(484,28)"/>
<path d="M0 0 C4.15422634 3.69264564 7.27087259 7.63296818 9 13 C8.67 13.99 8.34 14.98 8 16 C0.08 16.99 -7.84 17.98 -16 19 C-16.33 28.24 -16.66 37.48 -17 47 C-6.44 47 4.12 47 15 47 C15 51.29 15 55.58 15 60 C4.44 60 -6.12 60 -17 60 C-17 69.9 -17 79.8 -17 90 C-7.76 90 1.48 90 11 90 C11 94.29 11 98.58 11 103 C-13.09 103 -37.18 103 -62 103 C-62 98.71 -62 94.42 -62 90 C-52.1 90 -42.2 90 -32 90 C-32 80.1 -32 70.2 -32 60 C-43.22 60 -54.44 60 -66 60 C-66 55.71 -66 51.42 -66 47 C-54.78 47 -43.56 47 -32 47 C-32 38.42 -32 29.84 -32 21 C-38.64118898 21.6549886 -38.64118898 21.6549886 -45.28173828 22.31640625 C-46.11946777 22.39761719 -46.95719727 22.47882812 -47.8203125 22.5625 C-49.09285889 22.68818359 -49.09285889 22.68818359 -50.39111328 22.81640625 C-53.25431374 23.01789668 -56.12971861 23 -59 23 C-59.66 18.71 -60.32 14.42 -61 10 C-58.59003196 8.79501598 -56.8361507 8.76594801 -54.14453125 8.60546875 C-53.1405127 8.5391626 -52.13649414 8.47285645 -51.10205078 8.40454102 C-50.01649902 8.33291748 -48.93094727 8.26129395 -47.8125 8.1875 C-39.00012806 7.54438679 -30.32913993 6.5908516 -21.625 5.0625 C-20.71854736 4.90483154 -19.81209473 4.74716309 -18.87817383 4.5847168 C-12.48106379 3.40966528 -6.24964422 1.79472728 0 0 Z " fill="#000000" transform="translate(280,33)"/>
<path d="M0 0 C4.95 1.32 9.9 2.64 15 4 C15.495 6.475 15.495 6.475 16 9 C15.34 9 14.68 9 14 9 C13.90203125 9.65484375 13.8040625 10.3096875 13.703125 10.984375 C13.55359375 11.89703125 13.4040625 12.8096875 13.25 13.75 C13.11078125 14.63171875 12.9715625 15.5134375 12.828125 16.421875 C12 20 12 20 11.06555176 22.31030273 C7.31365212 31.81036214 7.3954514 40.841799 7.390625 50.890625 C7.37561579 52.68952909 7.35888297 54.48841955 7.34051514 56.28729248 C7.29713673 60.98236789 7.27690859 65.67725751 7.26177979 70.37249756 C7.24210138 75.17943169 7.20014403 79.98616826 7.16015625 84.79296875 C7.08517422 94.19528458 7.03675344 103.59745696 7 113 C2.05 113 -2.9 113 -8 113 C-8.495 86.765 -8.495 86.765 -9 60 C-10.65 61.98 -12.3 63.96 -14 66 C-17.62613199 65.43040847 -19.25517741 64.07625466 -21.75 61.4375 C-22.67039063 60.47650391 -22.67039063 60.47650391 -23.609375 59.49609375 C-24.06828125 59.00238281 -24.5271875 58.50867188 -25 58 C-23.97217466 54.60817639 -22.76566803 52.73777137 -20.375 50.0625 C-8.12241614 36.1363925 -3.40550019 17.78427875 0 0 Z " fill="#000000" transform="translate(206,27)"/>
<path d="M0 0 C10.89 0 21.78 0 33 0 C33 4.62 33 9.24 33 14 C22.11 14 11.22 14 0 14 C0 9.38 0 4.76 0 0 Z " fill="#777777" transform="translate(860,64)"/>
<path d="M0 0 C10.89 0 21.78 0 33 0 C33 4.29 33 8.58 33 13 C22.11 13 11.22 13 0 13 C0 8.71 0 4.42 0 0 Z " fill="#777777" transform="translate(860,82)"/>
<path d="M0 0 C10.89 0 21.78 0 33 0 C33 4.29 33 8.58 33 13 C22.11 13 11.22 13 0 13 C0 8.71 0 4.42 0 0 Z " fill="#777777" transform="translate(860,30)"/>
</svg>
