<?xml version="1.0" encoding="UTF-8"?>
<svg version="1.1" xmlns="http://www.w3.org/2000/svg" width="1150" height="169">
<path d="M0 0 C53.36712329 0 53.36712329 0 62.5546875 8.42578125 C68.3837376 14.50133347 71.14167292 22.13903481 71.5 30.5 C71.13895929 38.92428319 68.33173757 46.47004563 62.52734375 52.62890625 C60.51750279 54.43313689 58.41230891 55.79384554 56 57 C57.53750655 61.08067474 59.44473016 64.91102462 61.4765625 68.76171875 C62.15373378 70.05789676 62.83081449 71.3541221 63.5078125 72.65039062 C64.5708065 74.67891282 65.63511354 76.70672904 66.70117188 78.73364258 C67.73397507 80.69952187 68.76179644 82.66794185 69.7890625 84.63671875 C70.11089508 85.24505051 70.43272766 85.85338226 70.76431274 86.48014832 C73 90.77349687 73 90.77349687 73 93 C65.74 93 58.48 93 51 93 C50.01902344 90.77378906 49.03804687 88.54757813 48.02734375 86.25390625 C47.02834934 84.09900425 46.00938453 81.95468404 44.98803711 79.81030273 C44.29310848 78.3233848 43.61913086 76.82647671 42.9675293 75.32006836 C42.02122939 73.14278579 41.00294216 71.01366665 39.96484375 68.87890625 C39.69228256 68.20598038 39.41972137 67.5330545 39.13890076 66.83973694 C38.09864303 64.55676857 38.09864303 64.55676857 35 62 C30.05 61.67 25.1 61.34 20 61 C20 71.56 20 82.12 20 93 C13.4 93 6.8 93 0 93 C0 62.31 0 31.62 0 0 Z M20 17 C20 25.91 20 34.82 20 44 C25.011875 44.0928125 25.011875 44.0928125 30.125 44.1875 C31.16672363 44.21481201 32.20844727 44.24212402 33.28173828 44.27026367 C38.58421086 44.31768913 42.49382663 44.13225321 47 41 C49.97677046 37.49471677 51.36196241 33.46382106 51.0625 28.875 C50.21282724 24.47057387 48.17881423 22.10488832 45 19 C41.91586071 17.08640595 39.61979303 16.76073423 36.015625 16.8046875 C35.17290039 16.80968262 34.33017578 16.81467773 33.46191406 16.81982422 C32.40198242 16.83803223 31.34205078 16.85624023 30.25 16.875 C26.8675 16.91625 23.485 16.9575 20 17 Z " fill="#000000" transform="translate(116,38)"/>
<path d="M0 0 C0.64453125 0.33902344 1.2890625 0.67804688 1.953125 1.02734375 C8.37049914 4.9475223 11.52393047 11.51110839 14.375 18.25 C15.34829681 24.08978086 15 30.07966663 15 36 C-0.51 36 -16.02 36 -32 36 C-29.05625571 45.00952191 -29.05625571 45.00952191 -23 50 C-18.25101245 51.58299585 -14.43540528 51.55207896 -9.75 49.75 C-6.9444622 48.23463877 -6.9444622 48.23463877 -5.65625 45.91015625 C-4 44 -4 44 -1.546875 43.57421875 C-0.16242187 43.63029297 -0.16242187 43.63029297 1.25 43.6875 C2.70599609 43.73970703 2.70599609 43.73970703 4.19140625 43.79296875 C7.50886436 44.03751017 10.72534733 44.41783953 14 45 C13.38345819 51.47368903 10.61275416 55.63120061 6.0625 60.125 C-1.19953511 66.02152423 -11.01370243 67.67401272 -20.14453125 67.32421875 C-31.37054568 66.04958237 -39.04609499 61.11952972 -46.125 52.375 C-52.02367491 41.75738517 -52.57369532 29.84851546 -49.4375 18.25 C-46.5085104 9.74051443 -41.91412623 3.61862332 -34.1875 -1.02734375 C-23.21991625 -5.90400152 -10.5205276 -5.81700705 0 0 Z M-28 15 C-30.57702109 18.43602812 -31 19.60072868 -31 24 C-21.76 24 -12.52 24 -3 24 C-6.11056824 15.46749202 -6.11056824 15.46749202 -13 11 C-19.13148981 10.25195824 -23.21136997 10.78144498 -28 15 Z " fill="#2E2E2E" transform="translate(695,66)"/>
<path d="M0 0 C7.41609658 5.85262846 10.7139369 13.71322768 12.45703125 22.8125 C12.8318358 26.70039796 12.71875 30.62142145 12.71875 34.52734375 C-2.79125 34.52734375 -18.30125 34.52734375 -34.28125 34.52734375 C-32.22766538 43.74358371 -32.22766538 43.74358371 -26.28125 48.52734375 C-21.89655965 49.9889072 -17.61646532 50.44507428 -13.2734375 48.73828125 C-10.09769187 46.99760059 -8.30452733 45.56225975 -6.28125 42.52734375 C-3.92578125 42.19921875 -3.92578125 42.19921875 -1.09375 42.27734375 C-0.1140625 42.303125 0.865625 42.32890625 1.875 42.35546875 C5.21473081 42.55732061 8.42582337 42.94193457 11.71875 43.52734375 C10.04453213 51.06132416 6.84926845 55.8230223 0.71875 60.52734375 C-8.98809297 66.20059994 -20.12577329 66.96249103 -30.96875 64.40234375 C-40.36956783 61.5231759 -46.69174312 55.22962612 -51.28125 46.66015625 C-55.71219287 36.39229825 -55.07818418 24.1345694 -51.27734375 13.796875 C-47.34707278 5.22291753 -42.13248468 -0.17641473 -33.39453125 -3.74609375 C-22.21887476 -7.58837121 -9.94490441 -6.41991261 0 0 Z M-31.28125 13.52734375 C-33.35870104 16.81105669 -34.28125 18.6439376 -34.28125 22.52734375 C-25.04125 22.52734375 -15.80125 22.52734375 -6.28125 22.52734375 C-8.31276728 15.27997261 -8.31276728 15.27997261 -13.28125 10.52734375 C-20.3994576 8.15460788 -25.42418955 9.16325949 -31.28125 13.52734375 Z " fill="#010101" transform="translate(250.28125,67.47265625)"/>
<path d="M0 0 C7.96798492 5.40328977 12.95018172 12.56322383 15 22 C15.85927878 31.90126202 16.28135977 42.26925212 11 51 C10.38125 52.06927734 10.38125 52.06927734 9.75 53.16015625 C5.37017097 59.81699867 -1.27314166 64.0944425 -8.875 66.375 C-18.46369199 68.25020791 -28.65155316 67.74104903 -37.1875 62.7109375 C-39.25348103 61.24753427 -41.12559533 59.70069906 -43 58 C-43.556875 57.50886719 -44.11375 57.01773438 -44.6875 56.51171875 C-51.21516664 49.93509461 -53.17305068 40.50200461 -53.5 31.5 C-53.13792915 21.51891356 -50.49575983 11.01628692 -43 4 C-30.54770107 -5.20029359 -13.9173815 -7.69805164 0 0 Z M-30.25390625 17.8125 C-33.64402125 24.23836257 -33.89884308 30.88116284 -33 38 C-31.4906174 42.8669888 -28.99415806 46.77890479 -25 50 C-20.12861268 51.62379577 -16.46902421 51.7201099 -11.8125 49.4375 C-6.1884777 44.56334734 -4.32221272 39.10821217 -3.75 31.8125 C-4.18127088 25.23561913 -5.26846475 19.14139075 -10.125 14.375 C-13.60805101 11.78296204 -16.56475085 11.21531597 -20.859375 11.55859375 C-25.16111421 12.44563121 -27.75514515 14.20058364 -30.25390625 17.8125 Z " fill="#909090" transform="translate(1019,66)"/>
<path d="M0 0 C7.96798492 5.40328977 12.95018172 12.56322383 15 22 C15.85927878 31.90126202 16.28135977 42.26925212 11 51 C10.38125 52.06927734 10.38125 52.06927734 9.75 53.16015625 C5.37017097 59.81699867 -1.27314166 64.0944425 -8.875 66.375 C-18.47097882 68.25163296 -28.69922783 67.75388711 -37.22265625 62.67578125 C-45.3094313 56.91678817 -50.20153299 49.74425128 -52.75 40.1875 C-53.7100856 27.94640855 -53.07759886 15.58865002 -44.83203125 5.71484375 C-32.95307929 -5.40426054 -14.30134847 -7.91043337 0 0 Z M-30.25390625 17.84765625 C-33.8007475 24.65709712 -34.08922991 31.92251287 -32.4921875 39.3671875 C-30.98599101 43.95502739 -28.69293703 46.95332695 -25 50 C-20.12861268 51.62379577 -16.46902421 51.7201099 -11.8125 49.4375 C-6.1884777 44.56334734 -4.32221272 39.10821217 -3.75 31.8125 C-4.18127088 25.23561913 -5.26846475 19.14139075 -10.125 14.375 C-13.60805101 11.78296204 -16.56475085 11.21531597 -20.859375 11.55859375 C-25.17148024 12.44776874 -27.77984143 14.20207165 -30.25390625 17.84765625 Z " fill="#1A1A1A" transform="translate(582,66)"/>
<path d="M0 0 C6.81785251 4.55876249 9.30393124 10.48617027 10.96875 18.31640625 C11.32952259 22.15209634 11.32142868 25.94314459 11.26171875 29.79296875 C11.25747391 30.84422943 11.25322906 31.89549011 11.24885559 32.97860718 C11.23221139 36.29981308 11.19458614 39.62038719 11.15625 42.94140625 C11.14118473 45.2083245 11.12749957 47.47525237 11.11523438 49.7421875 C11.08235466 55.2671664 11.03067216 60.79167962 10.96875 66.31640625 C4.36875 66.31640625 -2.23125 66.31640625 -9.03125 66.31640625 C-9.05703125 63.12597656 -9.0828125 59.93554688 -9.109375 56.6484375 C-9.14780242 53.55386583 -9.19296051 50.45946039 -9.23876953 47.36499023 C-9.26697127 45.21663364 -9.28818975 43.06817344 -9.30224609 40.91967773 C-9.32368623 37.82872506 -9.37034311 34.73901703 -9.421875 31.6484375 C-9.42310364 30.68992386 -9.42433228 29.73141022 -9.42559814 28.74385071 C-9.52015695 24.42531921 -9.62652794 21.96868226 -11.94433594 18.2331543 C-15.5144691 14.95412816 -18.10109875 15.08924522 -22.7734375 15.171875 C-25.66968279 15.35727478 -27.59642405 15.69318895 -30.03125 17.31640625 C-32.38610786 22.57131484 -32.37356661 27.65893295 -32.4453125 33.30859375 C-32.46467865 34.254534 -32.4840448 35.20047424 -32.5039978 36.17507935 C-32.56352049 39.18043147 -32.61006946 42.18582246 -32.65625 45.19140625 C-32.69445492 47.23569329 -32.73350811 49.27996467 -32.7734375 51.32421875 C-32.87078773 56.32153059 -32.95057313 61.31868641 -33.03125 66.31640625 C-39.30125 66.31640625 -45.57125 66.31640625 -52.03125 66.31640625 C-52.03125 43.87640625 -52.03125 21.43640625 -52.03125 -1.68359375 C-46.09125 -1.68359375 -40.15125 -1.68359375 -34.03125 -1.68359375 C-33.70125 1.28640625 -33.37125 4.25640625 -33.03125 7.31640625 C-32.0721875 5.95515625 -32.0721875 5.95515625 -31.09375 4.56640625 C-23.46526328 -4.42583229 -10.09875103 -5.25061874 0 0 Z " fill="#424242" transform="translate(777.03125,64.68359375)"/>
<path d="M0 0 C4.92082779 4.02613183 7.99299946 8.97899837 10 15 C10.08754798 16.67220971 10.11765995 18.34772199 10.11352539 20.0222168 C10.11344986 21.04304855 10.11337433 22.06388031 10.11329651 23.11564636 C10.10813522 24.21572525 10.10297394 25.31580414 10.09765625 26.44921875 C10.0962413 27.5769722 10.09482635 28.70472565 10.09336853 29.86665344 C10.0877647 33.47362912 10.07521153 37.08054304 10.0625 40.6875 C10.05748549 43.13085848 10.0529225 45.57421793 10.04882812 48.01757812 C10.03779403 54.01174259 10.02052679 60.00586082 10 66 C3.73 66 -2.54 66 -9 66 C-9.03738281 63.04933594 -9.07476563 60.09867188 -9.11328125 57.05859375 C-9.15955592 54.18571767 -9.21076798 51.31296882 -9.26245117 48.44018555 C-9.29560684 46.45100706 -9.32366765 44.46173661 -9.34643555 42.47241211 C-9.380154 39.60490916 -9.43247823 36.73824183 -9.48828125 33.87109375 C-9.49467117 32.98852402 -9.5010611 32.10595428 -9.50764465 31.19664001 C-9.63618313 25.73965694 -10.43589551 21.84454622 -13 17 C-15.91621089 14.51582036 -19.28771833 14.63230284 -23.0390625 14.7578125 C-26.08345915 15.13381368 -27.70395134 15.9663569 -30 18 C-32.99472224 23.63179091 -33.46484111 28.33812124 -33.51171875 34.65234375 C-33.52966995 35.55247696 -33.54762115 36.45261017 -33.56611633 37.38002014 C-33.61995245 40.23246691 -33.65402888 43.08474893 -33.6875 45.9375 C-33.72069668 47.88088217 -33.7551885 49.82424267 -33.79101562 51.76757812 C-33.87808302 56.51173896 -33.93837881 61.25516862 -34 66 C-40.27 66 -46.54 66 -53 66 C-53 43.56 -53 21.12 -53 -2 C-46.73 -2 -40.46 -2 -34 -2 C-33.67 0.64 -33.34 3.28 -33 6 C-32.01 4.88625 -32.01 4.88625 -31 3.75 C-22.35721155 -4.70019149 -10.60510327 -5.39557886 0 0 Z " fill="#747474" transform="translate(942,65)"/>
<path d="M0 0 C4.92082779 4.02613183 7.99299946 8.97899837 10 15 C10.08754798 16.67220971 10.11765995 18.34772199 10.11352539 20.0222168 C10.11344986 21.04304855 10.11337433 22.06388031 10.11329651 23.11564636 C10.10813522 24.21572525 10.10297394 25.31580414 10.09765625 26.44921875 C10.0962413 27.5769722 10.09482635 28.70472565 10.09336853 29.86665344 C10.0877647 33.47362912 10.07521153 37.08054304 10.0625 40.6875 C10.05748549 43.13085848 10.0529225 45.57421793 10.04882812 48.01757812 C10.03779403 54.01174259 10.02052679 60.00586082 10 66 C3.73 66 -2.54 66 -9 66 C-9.03738281 63.04933594 -9.07476562 60.09867188 -9.11328125 57.05859375 C-9.15955592 54.18571767 -9.21076798 51.31296882 -9.26245117 48.44018555 C-9.29560684 46.45100706 -9.32366765 44.46173661 -9.34643555 42.47241211 C-9.380154 39.60490916 -9.43247823 36.73824183 -9.48828125 33.87109375 C-9.49467117 32.98852402 -9.5010611 32.10595428 -9.50764465 31.19664001 C-9.63618313 25.73965694 -10.43589551 21.84454622 -13 17 C-15.91621089 14.51582036 -19.28771833 14.63230284 -23.0390625 14.7578125 C-26.08345915 15.13381368 -27.70395134 15.9663569 -30 18 C-32.99472224 23.63179091 -33.46484111 28.33812124 -33.51171875 34.65234375 C-33.52966995 35.55247696 -33.54762115 36.45261017 -33.56611633 37.38002014 C-33.61995245 40.23246691 -33.65402888 43.08474893 -33.6875 45.9375 C-33.72069668 47.88088217 -33.7551885 49.82424267 -33.79101562 51.76757812 C-33.87808302 56.51173896 -33.93837881 61.25516862 -34 66 C-40.27 66 -46.54 66 -53 66 C-53 43.56 -53 21.12 -53 -2 C-46.73 -2 -40.46 -2 -34 -2 C-33.67 0.64 -33.34 3.28 -33 6 C-32.01 4.88625 -32.01 4.88625 -31 3.75 C-22.35721155 -4.70019149 -10.60510327 -5.39557886 0 0 Z " fill="#030303" transform="translate(330,65)"/>
<path d="M0 0 C25.08 0 50.16 0 76 0 C76 5.61 76 11.22 76 17 C66.76 17 57.52 17 48 17 C48 42.08 48 67.16 48 93 C41.4 93 34.8 93 28 93 C28 67.92 28 42.84 28 17 C18.76 17 9.52 17 0 17 C0 11.39 0 5.78 0 0 Z " fill="#111111" transform="translate(455,38)"/>
<path d="M0 0 C18.48 0 36.96 0 56 0 C56 16.04547438 56 16.04547438 50.1875 22 C48.98947348 23.34379463 47.79288447 24.68887208 46.59765625 26.03515625 C45.99324707 26.69402832 45.38883789 27.35290039 44.76611328 28.03173828 C42.06142175 31.04600744 39.59618394 34.23135377 37.125 37.4375 C36.29478086 38.49909698 35.46406121 39.56030275 34.6328125 40.62109375 C31.41923678 44.74534152 28.20994601 48.87292656 25 53 C35.56 53 46.12 53 57 53 C57 57.95 57 62.9 57 68 C38.19 68 19.38 68 0 68 C0 54 0 54 3.4375 49.3125 C4.95119701 47.86748732 6.47226621 46.43016424 8 45 C9.40237388 43.35629983 10.7761795 41.68792359 12.125 40 C12.85847656 39.09636719 13.59195312 38.19273438 14.34765625 37.26171875 C14.75516113 36.75946777 15.16266602 36.2572168 15.58251953 35.73974609 C18.56048291 32.08473971 21.56381981 28.45051032 24.5625 24.8125 C26.686875 22.234375 28.81125 19.65625 31 17 C20.77 16.67 10.54 16.34 0 16 C0 10.72 0 5.44 0 0 Z " fill="#070707" transform="translate(357,63)"/>
<path d="M0 0 C6.6 0 13.2 0 20 0 C20 5.61 20 11.22 20 17 C24.29 17 28.58 17 33 17 C33 21.95 33 26.9 33 32 C28.71 32 24.42 32 20 32 C20.11794522 37.10881026 20.24217047 42.21741364 20.37231445 47.32592773 C20.41572573 49.06514288 20.45739612 50.80440235 20.49731445 52.54370117 C20.55486768 55.03838488 20.6186042 57.5328441 20.68359375 60.02734375 C20.70030624 60.80963852 20.71701874 61.59193329 20.73423767 62.39793396 C20.50648731 65.99871781 20.50648731 65.99871781 22 69 C23.84891946 69.23363881 25.70488031 69.41303635 27.5625 69.5625 C29.356875 69.706875 31.15125 69.85125 33 70 C33.495 77.425 33.495 77.425 34 85 C25.46044255 87.13488936 14.8835432 87.46174998 7 83 C2.6890717 79.4960435 1.21418494 75.30475989 0 70 C-0.24558813 66.99608931 -0.23442114 64.01616797 -0.1953125 61.00390625 C-0.1924826 60.17036118 -0.18965271 59.3368161 -0.18673706 58.47801208 C-0.17562289 55.8393564 -0.15053515 53.20105152 -0.125 50.5625 C-0.11495885 48.76367681 -0.10583499 46.96484825 -0.09765625 45.16601562 C-0.07571235 40.77721045 -0.04124387 36.38866452 0 32 C-3.3 32 -6.6 32 -10 32 C-10 27.05 -10 22.1 -10 17 C-6.7 17 -3.4 17 0 17 C0 11.39 0 5.78 0 0 Z " fill="#555555" transform="translate(809,46)"/>
<path d="M0 0 C6.6 0 13.2 0 20 0 C20 30.69 20 61.38 20 93 C13.4 93 6.8 93 0 93 C0 62.31 0 31.62 0 0 Z " fill="#232323" transform="translate(612,38)"/>
<path d="M0 0 C6.6 0 13.2 0 20 0 C20 22.44 20 44.88 20 68 C13.4 68 6.8 68 0 68 C0 45.56 0 23.12 0 0 Z " fill="#626262" transform="translate(854,63)"/>
<path d="M0 0 C3.33513484 2.16783765 3.87155493 3.53759776 4.9375 7.375 C5.00919226 11.53315085 4.25303125 13.53998772 2 17 C-2.23552856 19.82368571 -6.02477314 19.66653757 -11 19 C-13.93423195 17.20353146 -15.47205355 16.0558929 -17 13 C-17.37340899 8.05233086 -17.22237243 4.88907017 -14 1 C-9.63854365 -1.82211882 -4.8540795 -1.23393423 0 0 Z " fill="#616161" transform="translate(870,36)"/>
</svg>
