<?xml version="1.0" encoding="UTF-8"?>
<svg version="1.1" xmlns="http://www.w3.org/2000/svg" width="2048" height="2048">
<path d="M0 0 C1.86296614 -0.0070215 3.72593204 -0.01410832 5.58889771 -0.02125549 C11.51239364 -0.04066359 17.43585048 -0.04568967 23.359375 -0.046875 C24.36816963 -0.04731686 25.37696426 -0.04775871 26.41632843 -0.04821396 C56.74547781 -0.05518299 86.90361524 0.18549341 117.109375 3.203125 C118.00553528 3.29033813 118.90169556 3.37755127 119.82501221 3.46740723 C159.23752608 7.30937472 198.35183658 13.07659996 237.109375 21.203125 C238.39473145 21.47205566 239.68008789 21.74098633 241.00439453 22.01806641 C275.43270999 29.31806586 309.47492637 38.41490108 342.88598633 49.46807861 C345.17230278 50.22392876 347.46011145 50.97514036 349.74804688 51.72607422 C372.90155974 59.34596822 395.61706099 67.81206395 418.109375 77.203125 C418.74796448 77.46891357 419.38655396 77.73470215 420.04449463 78.00854492 C491.25180271 107.67307615 558.21539269 145.59986769 621.109375 190.203125 C621.88313477 190.7511377 622.65689453 191.29915039 623.45410156 191.86376953 C639.91720002 203.55235864 655.75741578 215.98226691 671.36962891 228.77929688 C672.92885827 230.05538804 674.493386 231.32499881 676.05859375 232.59375 C686.52971322 241.09293602 696.74212934 249.87165181 706.6796875 258.98828125 C708.71452915 260.84319317 710.77258747 262.65741298 712.859375 264.453125 C722.49087027 272.84375278 731.70254006 281.69926236 740.6730957 290.78833008 C744.05454069 294.19931194 747.55453083 297.38288846 751.22241211 300.48608398 C753.09691145 302.1917838 754.70065861 303.96810852 756.3359375 305.90234375 C760.06296815 310.21465552 764.04212749 314.21379411 768.109375 318.203125 C772.7543063 322.75907294 777.21922704 327.37895779 781.46582031 332.31005859 C783.89976824 335.1135096 786.44468283 337.80835846 788.984375 340.515625 C793.52286024 345.38898049 797.80286297 350.40616477 801.97265625 355.6015625 C804.06819994 358.15299229 806.24900655 360.58639273 808.484375 363.015625 C812.46199185 367.38549819 816.11814094 371.93922036 819.73730469 376.60424805 C823.33403439 381.23705993 827.01834988 385.79064 830.734375 390.328125 C836.03635739 396.82683174 841.17007025 403.42303711 846.109375 410.203125 C846.58842285 410.86006348 847.0674707 411.51700195 847.56103516 412.19384766 C859.05564431 427.98416873 870.40568791 443.86372123 881.109375 460.203125 C881.53541016 460.8518457 881.96144531 461.50056641 882.40039062 462.16894531 C900.68270617 490.05286214 917.46474747 518.76033885 933.109375 548.203125 C933.64272461 549.20134277 934.17607422 550.19956055 934.72558594 551.22802734 C943.46340269 567.61471371 951.46525219 584.28050123 959.109375 601.203125 C959.58616699 602.25467773 960.06295898 603.30623047 960.55419922 604.38964844 C985.11332735 658.73434849 1004.62236309 715.37039083 1019.109375 773.203125 C1019.2952417 773.94119385 1019.4811084 774.6792627 1019.67260742 775.43969727 C1033.38167229 829.95231291 1042.22237994 885.56913768 1046.796875 941.578125 C1046.88828262 942.69252457 1046.88828262 942.69252457 1046.98153687 943.82943726 C1048.47605402 962.28632558 1049.26918423 980.70968686 1049.3125 999.2265625 C1049.31948023 1001.09113588 1049.32652118 1002.95570904 1049.33361816 1004.82028198 C1049.35287623 1010.73956604 1049.35779318 1016.65881301 1049.359375 1022.578125 C1049.35996414 1023.58550217 1049.36055328 1024.59287933 1049.36116028 1025.63078308 C1049.37320253 1054.79175109 1049.19301366 1083.80771968 1046.33721924 1112.85516357 C1046.10441009 1115.25428899 1045.88604669 1117.65436234 1045.67138672 1120.05517578 C1041.08410278 1171.04493268 1032.34597658 1221.50822984 1020.109375 1271.203125 C1019.91408203 1271.99632141 1019.71878906 1272.78951782 1019.51757812 1273.60675049 C1013.55944643 1297.70658205 1006.60579727 1321.42389763 998.83532715 1344.99987793 C998.13660489 1347.12048294 997.4416031 1349.2422777 996.74707031 1351.36425781 C982.67406805 1394.22484942 965.06842394 1435.77207627 945.109375 1476.203125 C944.38664457 1477.67704696 943.66397627 1479.15099939 942.94140625 1480.625 C941.40752435 1483.737537 939.84745055 1486.83582721 938.27050781 1489.92675781 C937.39217662 1491.64870063 936.51709277 1493.37230038 935.64355469 1495.09667969 C927.79854293 1510.55720733 919.54538936 1525.68166071 910.66992188 1540.57421875 C909.26440783 1542.94195579 907.87695125 1545.31870083 906.5 1547.703125 C881.52718493 1590.87877318 852.19371985 1631.9271151 820.54931641 1670.44726562 C819.26571799 1672.01248092 817.98974428 1673.583942 816.71484375 1675.15625 C808.2186202 1685.62727146 799.43950678 1695.83734154 790.32421875 1705.7734375 C788.46930683 1707.80827915 786.65508702 1709.86633747 784.859375 1711.953125 C776.46874722 1721.58462027 767.61323764 1730.79629006 758.52416992 1739.7668457 C755.11073956 1743.15071798 751.92600037 1746.65431188 748.81896973 1750.32336426 C747.15096456 1752.15739578 745.42420854 1753.71886193 743.52929688 1755.31445312 C738.51171795 1759.65427504 733.869833 1764.33586757 729.203125 1769.046875 C727.79074568 1770.4650415 726.37836339 1771.88320507 724.96581268 1773.30120087 C722.51149999 1775.76635632 720.06052967 1778.23483009 717.609375 1780.703125 C714.68000297 1783.65298131 711.75001215 1786.60220339 708.81604004 1789.54748535 C706.99716887 1791.37380929 705.18054848 1793.20237861 703.36657715 1795.03356934 C698.9917913 1799.42567271 694.56322478 1803.67737068 689.84870911 1807.70437622 C686.91143657 1810.23536415 684.11681197 1812.91812962 681.296875 1815.578125 C676.35188638 1820.20584811 671.29710262 1824.60140318 666.0078125 1828.8359375 C662.53405635 1831.67299441 659.16911045 1834.62188597 655.796875 1837.578125 C649.8841303 1842.74270511 643.82723076 1847.66285206 637.62109375 1852.46875 C634.63393272 1854.78257214 631.69302445 1857.14872972 628.75854492 1859.52880859 C619.4404955 1867.07193248 609.80477813 1874.15529769 600.109375 1881.203125 C598.91779785 1882.07300049 598.91779785 1882.07300049 597.70214844 1882.96044922 C588.63218544 1889.58163377 579.50202275 1896.04462113 570.109375 1902.203125 C568.97555949 1902.96334997 567.84279739 1903.72514771 566.7109375 1904.48828125 C506.84891995 1944.809302 442.24556818 1978.7463763 375.109375 2005.203125 C374.02414551 2005.63270508 372.93891602 2006.06228516 371.82080078 2006.50488281 C336.33273445 2020.4775544 300.06168858 2032.66781525 263.16838831 2042.36472034 C260.81403488 2043.00999406 258.48868841 2043.69702278 256.15586716 2044.4128952 C244.1317005 2047.98372369 233.07147791 2048.93011184 220.58079529 2048.87841797 C218.58141624 2048.88850239 216.58204706 2048.90072861 214.58269268 2048.91488266 C209.14263873 2048.94711338 203.70296092 2048.94870204 198.26282918 2048.94470263 C192.37335114 2048.94574652 186.4840021 2048.97543889 180.59458923 2049.00106812 C168.40577032 2049.04891643 156.21707268 2049.06464854 144.02817 2049.07123517 C135.31119861 2049.07605036 126.59426223 2049.08919366 117.87730598 2049.10583496 C115.16545925 2049.11091175 112.45361243 2049.11593779 109.74176556 2049.12094116 C109.06734654 2049.12218556 108.39292752 2049.12342995 107.69807156 2049.12471205 C88.74641848 2049.15932492 69.79477881 2049.18264959 50.84309292 2049.18371582 C50.12977059 2049.18376315 49.41644826 2049.18381047 48.68151011 2049.18385923 C45.06707419 2049.18408322 41.45263827 2049.18423572 37.83820235 2049.18437958 C37.12052254 2049.18441105 36.40284273 2049.18444252 35.66341504 2049.18447495 C34.21208828 2049.18453854 32.76076151 2049.18459449 31.30943475 2049.18464279 C8.78283916 2049.18570762 -13.74331768 2049.23019076 -36.26977539 2049.30761719 C-61.65441585 2049.39485006 -87.03876338 2049.44392514 -112.42356247 2049.44145012 C-115.14263945 2049.44132308 -117.8617164 2049.44134362 -120.58079338 2049.44146729 C-121.25015554 2049.44147644 -121.9195177 2049.44148559 -122.60916357 2049.44149502 C-132.62465283 2049.44245073 -142.63969561 2049.47289444 -152.65509224 2049.51898193 C-164.08534092 2049.57129223 -175.51484891 2049.58426554 -186.94517601 2049.54920614 C-192.75748014 2049.53245356 -198.56835193 2049.5320678 -204.38050079 2049.58167648 C-233.31760894 2049.81336758 -258.86748801 2046.71532194 -286.49140029 2037.95850086 C-290.7549932 2036.61614424 -295.0355082 2035.32907488 -299.31269169 2034.03082275 C-307.81350786 2031.44561114 -316.26491925 2028.72080493 -324.69976807 2025.92840576 C-326.83728373 2025.22078357 -328.97594906 2024.51672633 -331.11474609 2023.81298828 C-361.31878646 2013.84501139 -390.8111736 2002.07862602 -419.890625 1989.203125 C-420.90979004 1988.75211426 -421.92895508 1988.30110352 -422.97900391 1987.83642578 C-451.38717806 1975.17541386 -479.55881771 1961.38796262 -506.39746094 1945.65478516 C-508.92661061 1944.18217216 -511.47145969 1942.74124063 -514.0234375 1941.30859375 C-532.76607079 1930.76972931 -551.25498671 1919.65464332 -568.99902344 1907.49853516 C-571.16950531 1906.01214166 -573.34647107 1904.53547261 -575.5234375 1903.05859375 C-585.07209154 1896.56783121 -594.5528661 1889.99400292 -603.890625 1883.203125 C-604.95700195 1882.428479 -604.95700195 1882.428479 -606.04492188 1881.63818359 C-624.56668023 1868.15601157 -642.60699462 1854.13344178 -660.0559082 1839.28613281 C-663.46063537 1836.39360338 -666.90819922 1833.56472595 -670.390625 1830.765625 C-675.77635914 1826.38627622 -680.83879299 1821.70267662 -685.91015625 1816.96875 C-688.15661189 1814.87401576 -690.43535928 1812.82982831 -692.765625 1810.828125 C-705.79390408 1799.51385701 -717.97467755 1787.27793759 -730.15478516 1775.06933594 C-732.91063855 1772.30807216 -735.67186528 1769.5522614 -738.43359375 1766.796875 C-740.21125859 1765.01855008 -741.98861359 1763.23991537 -743.765625 1761.4609375 C-744.98608521 1760.24351364 -744.98608521 1760.24351364 -746.23120117 1759.00149536 C-750.44191139 1754.77359027 -754.50416236 1750.4749044 -758.38796997 1745.94389343 C-760.7685064 1743.18613295 -763.27353129 1740.54715243 -765.765625 1737.890625 C-770.30089044 1733.02072688 -774.57743051 1728.00657976 -778.74609375 1722.81640625 C-780.88937456 1720.20464877 -783.1144283 1717.69947198 -785.390625 1715.203125 C-790.09485888 1710.02765526 -794.50777987 1704.6516861 -798.890625 1699.203125 C-799.79273162 1698.09355717 -800.69508583 1696.98419059 -801.59765625 1695.875 C-809.32041234 1686.34532121 -816.70406555 1676.57574133 -824.01464844 1666.72753906 C-825.81398926 1664.30625014 -827.62114492 1661.89098199 -829.4296875 1659.4765625 C-886.75715567 1582.66340317 -932.4615019 1496.47972871 -974.890625 1379.203125 C-975.1104303 1378.55466614 -975.3302356 1377.90620728 -975.55670166 1377.23809814 C-982.54091657 1356.59704585 -988.72870283 1335.72417293 -994.21968788 1314.63544285 C-994.72412947 1312.8067137 -995.28160475 1310.99248487 -995.86460596 1309.18726432 C-999.13944794 1298.41418167 -999.47325507 1288.3123448 -999.44566345 1277.11087036 C-999.4553023 1275.11010891 -999.46664836 1273.10935509 -999.47953898 1271.10861194 C-999.50965339 1265.64623879 -999.51509642 1260.18408535 -999.516137 1254.72163963 C-999.52151542 1248.8150816 -999.5497032 1242.90862297 -999.57460022 1237.00212097 C-999.62189227 1224.76863402 -999.64312963 1212.53520868 -999.65628386 1200.30164264 C-999.65699802 1199.63749828 -999.65771218 1198.97335391 -999.65844798 1198.28908396 C-999.65951287 1197.29064335 -999.65951287 1197.29064335 -999.66059926 1196.27203222 C-999.6680971 1189.54393245 -999.68089516 1182.81584575 -999.69439162 1176.08775571 C-999.74067635 1152.99931803 -999.7792668 1129.91088978 -999.78908443 1106.82240486 C-999.78939778 1106.10641039 -999.78971112 1105.39041592 -999.79003395 1104.65272465 C-999.79130215 1101.75166599 -999.79254595 1098.85060731 -999.79378897 1095.94954864 C-999.79472753 1093.76649596 -999.79567845 1091.58344329 -999.79663086 1089.40039062 C-999.79693766 1088.67901696 -999.79724447 1087.9576433 -999.79756057 1087.21440983 C-999.80779418 1063.88365518 -999.86383034 1040.55333308 -999.94802673 1017.22273553 C-1000.03713777 992.48440183 -1000.08560967 967.74631254 -1000.08827978 943.00781333 C-1000.08871941 940.28054733 -1000.08931694 937.55328141 -1000.09002876 934.82601547 C-1000.09026224 933.81891737 -1000.09026224 933.81891737 -1000.09050043 932.79147385 C-1000.09368381 922.74092144 -1000.1268204 912.69081898 -1000.17591667 902.64038467 C-1000.23173334 891.16903566 -1000.24844975 879.6984104 -1000.21719294 868.22695561 C-1000.20239206 862.392516 -1000.20405871 856.55951406 -1000.25571823 850.72525215 C-1000.49467782 822.0382578 -997.51874596 796.88184819 -988.64611419 769.55750927 C-987.29097675 765.33439884 -986.0093514 761.08871201 -984.71826077 756.84567451 C-981.89905815 747.59050126 -978.92226106 738.3906431 -975.890625 729.203125 C-975.65901672 728.49841064 -975.42740845 727.79369629 -975.18878174 727.06762695 C-965.02076504 696.14791174 -953.06362158 665.96483432 -939.890625 636.203125 C-939.22208496 634.69032959 -939.22208496 634.69032959 -938.54003906 633.14697266 C-925.6320921 604.1396576 -911.57360143 575.28982976 -895.47265625 547.9140625 C-893.7200611 544.91085007 -892.00677254 541.88709166 -890.296875 538.859375 C-883.05861599 526.08730472 -875.44984663 513.66339559 -867.3359375 501.4296875 C-864.28254134 496.82525338 -861.34667153 492.15910654 -858.453125 487.453125 C-855.22065464 482.22179786 -851.81159145 477.21117729 -848.12890625 472.28125 C-845.81248525 469.0956658 -843.61000148 465.84966173 -841.41113281 462.58251953 C-835.36961556 453.61705134 -828.99414736 445.0201545 -822.29296875 436.5390625 C-819.07653917 432.46522081 -815.9763433 428.31378483 -812.890625 424.140625 C-803.30487874 411.24911763 -792.84731185 399.05193675 -782.34960938 386.90039062 C-780.88026952 385.19107826 -779.42298628 383.47217301 -777.96875 381.75 C-772.16930664 374.89698629 -766.21658683 368.22843958 -760.04931641 361.70336914 C-756.90572256 358.37670333 -753.82287656 355.00870197 -750.78442383 351.58544922 C-746.04930585 346.31863399 -741.10175146 341.30264739 -736.0703125 336.3203125 C-734.71596603 334.97164597 -734.71596603 334.97164597 -733.33425903 333.59573364 C-730.48049104 330.75406089 -727.62359026 327.9155745 -724.765625 325.078125 C-720.98908757 321.32862418 -717.21627297 317.57542452 -713.4453125 313.8203125 C-712.59097626 312.9742746 -711.73664001 312.12823669 -710.85641479 311.25656128 C-706.54441859 306.96212158 -702.39057288 302.61372267 -698.4704895 297.95681763 C-696.15793613 295.38982039 -693.55469493 293.21428557 -690.92578125 290.98046875 C-687.401991 287.90307035 -684.16498522 284.54143757 -680.890625 281.203125 C-676.33467706 276.5581937 -671.71479221 272.09327296 -666.78369141 267.84667969 C-663.9802404 265.41273176 -661.28539154 262.86781717 -658.578125 260.328125 C-653.70476951 255.78963976 -648.68758523 251.50963703 -643.4921875 247.33984375 C-640.94075771 245.24430006 -638.50735727 243.06349345 -636.078125 240.828125 C-631.70825181 236.85050815 -627.15452964 233.19435906 -622.48950195 229.57519531 C-617.85669007 225.97846561 -613.30311 222.29415012 -608.765625 218.578125 C-602.26691826 213.27614261 -595.67071289 208.14242975 -588.890625 203.203125 C-587.90521729 202.48455322 -587.90521729 202.48455322 -586.89990234 201.75146484 C-571.10958127 190.25685569 -555.23002877 178.90681209 -538.890625 168.203125 C-538.2419043 167.77708984 -537.59318359 167.35105469 -536.92480469 166.91210938 C-509.04088786 148.62979383 -480.33341115 131.84775253 -450.890625 116.203125 C-449.89240723 115.66977539 -448.89418945 115.13642578 -447.86572266 114.58691406 C-431.48183795 105.85059123 -414.8366818 97.78791668 -397.890625 90.203125 C-396.85424896 89.73876038 -396.85424896 89.73876038 -395.79693604 89.26501465 C-317.77646074 54.36512507 -235.85698962 29.01262032 0 0 Z " fill="#6C429C" transform="translate(998.890625,-0.203125)"/>
<path d="M0 0 C1.86296614 -0.0070215 3.72593204 -0.01410832 5.58889771 -0.02125549 C11.51239364 -0.04066359 17.43585048 -0.04568967 23.359375 -0.046875 C24.36816963 -0.04731686 25.37696426 -0.04775871 26.41632843 -0.04821396 C56.74547781 -0.05518299 86.90361524 0.18549341 117.109375 3.203125 C118.00553528 3.29033813 118.90169556 3.37755127 119.82501221 3.46740723 C159.23752608 7.30937472 198.35183658 13.07659996 237.109375 21.203125 C238.39473145 21.47205566 239.68008789 21.74098633 241.00439453 22.01806641 C275.43270999 29.31806586 309.47492637 38.41490108 342.88598633 49.46807861 C345.17230278 50.22392876 347.46011145 50.97514036 349.74804688 51.72607422 C372.90155974 59.34596822 395.61706099 67.81206395 418.109375 77.203125 C418.74796448 77.46891357 419.38655396 77.73470215 420.04449463 78.00854492 C491.25180271 107.67307615 558.21539269 145.59986769 621.109375 190.203125 C621.88313477 190.7511377 622.65689453 191.29915039 623.45410156 191.86376953 C639.91720002 203.55235864 655.75741578 215.98226691 671.36962891 228.77929688 C672.92885827 230.05538804 674.493386 231.32499881 676.05859375 232.59375 C686.52971322 241.09293602 696.74212934 249.87165181 706.6796875 258.98828125 C708.71452915 260.84319317 710.77258747 262.65741298 712.859375 264.453125 C722.49087027 272.84375278 731.70254006 281.69926236 740.6730957 290.78833008 C744.05454069 294.19931194 747.55453083 297.38288846 751.22241211 300.48608398 C753.09691145 302.1917838 754.70065861 303.96810852 756.3359375 305.90234375 C760.06296815 310.21465552 764.04212749 314.21379411 768.109375 318.203125 C772.7543063 322.75907294 777.21922704 327.37895779 781.46582031 332.31005859 C783.89976824 335.1135096 786.44468283 337.80835846 788.984375 340.515625 C793.52286024 345.38898049 797.80286297 350.40616477 801.97265625 355.6015625 C804.06819994 358.15299229 806.24900655 360.58639273 808.484375 363.015625 C812.46199185 367.38549819 816.11814094 371.93922036 819.73730469 376.60424805 C823.33403439 381.23705993 827.01834988 385.79064 830.734375 390.328125 C836.03635739 396.82683174 841.17007025 403.42303711 846.109375 410.203125 C846.58842285 410.86006348 847.0674707 411.51700195 847.56103516 412.19384766 C859.05564431 427.98416873 870.40568791 443.86372123 881.109375 460.203125 C881.53541016 460.8518457 881.96144531 461.50056641 882.40039062 462.16894531 C900.68270617 490.05286214 917.46474747 518.76033885 933.109375 548.203125 C933.64272461 549.20134277 934.17607422 550.19956055 934.72558594 551.22802734 C943.46340269 567.61471371 951.46525219 584.28050123 959.109375 601.203125 C959.58616699 602.25467773 960.06295898 603.30623047 960.55419922 604.38964844 C985.11332735 658.73434849 1004.62236309 715.37039083 1019.109375 773.203125 C1019.2952417 773.94119385 1019.4811084 774.6792627 1019.67260742 775.43969727 C1033.38167229 829.95231291 1042.22237994 885.56913768 1046.796875 941.578125 C1046.88828262 942.69252457 1046.88828262 942.69252457 1046.98153687 943.82943726 C1048.47605402 962.28632558 1049.26918423 980.70968686 1049.3125 999.2265625 C1049.31948023 1001.09113588 1049.32652118 1002.95570904 1049.33361816 1004.82028198 C1049.35287623 1010.73956604 1049.35779318 1016.65881301 1049.359375 1022.578125 C1049.36025871 1024.08919075 1049.36025871 1024.08919075 1049.36116028 1025.63078308 C1049.37320253 1054.79175109 1049.19301366 1083.80771968 1046.33721924 1112.85516357 C1046.10441009 1115.25428899 1045.88604669 1117.65436234 1045.67138672 1120.05517578 C1041.08410278 1171.04493268 1032.34597658 1221.50822984 1020.109375 1271.203125 C1019.91408203 1271.99632141 1019.71878906 1272.78951782 1019.51757812 1273.60675049 C1013.55944643 1297.70658205 1006.60579727 1321.42389763 998.83532715 1344.99987793 C998.13660489 1347.12048294 997.4416031 1349.2422777 996.74707031 1351.36425781 C982.67406805 1394.22484942 965.06842394 1435.77207627 945.109375 1476.203125 C944.38664457 1477.67704696 943.66397627 1479.15099939 942.94140625 1480.625 C941.40752435 1483.737537 939.84745055 1486.83582721 938.27050781 1489.92675781 C937.39217662 1491.64870063 936.51709277 1493.37230038 935.64355469 1495.09667969 C927.79854293 1510.55720733 919.54538936 1525.68166071 910.66992188 1540.57421875 C909.26440783 1542.94195579 907.87695125 1545.31870083 906.5 1547.703125 C881.52718493 1590.87877318 852.19371985 1631.9271151 820.54931641 1670.44726562 C819.26571799 1672.01248092 817.98974428 1673.583942 816.71484375 1675.15625 C808.2186202 1685.62727146 799.43950678 1695.83734154 790.32421875 1705.7734375 C788.46930683 1707.80827915 786.65508702 1709.86633747 784.859375 1711.953125 C776.40042706 1721.66304412 767.49226718 1730.99069647 758.28466797 1739.9909668 C756.14448714 1742.09530728 754.15208526 1744.14505824 752.37109375 1746.56640625 C751.95472656 1747.10652344 751.53835938 1747.64664062 751.109375 1748.203125 C750.449375 1748.203125 749.789375 1748.203125 749.109375 1748.203125 C750.84853681 1744.23783607 753.32682161 1741.89872562 756.453125 1738.984375 C758.15901737 1737.14973604 759.04247277 1735.45082535 760.109375 1733.203125 C759.39577653 1732.4897605 759.39577653 1732.4897605 758.66776192 1731.76198459 C706.90218069 1680.01334061 655.13721467 1628.26408126 603.37548828 1576.51158142 C602.60295211 1575.7391833 601.83041593 1574.96678519 601.03446957 1574.17098107 C584.24736439 1557.38686842 567.46037035 1540.60264461 550.67349088 1523.81830621 C542.44185315 1515.58791587 534.21019084 1507.35755011 525.97851562 1499.12719727 C524.74975493 1497.89863271 524.74975493 1497.89863271 523.49617079 1496.64524867 C496.91854109 1470.07188443 470.33928748 1443.50014518 443.75919607 1416.92924329 C416.45702 1389.6364893 389.15647341 1362.34210641 361.85799199 1335.04565698 C358.00704919 1331.19500236 354.15608767 1327.34436647 350.30511475 1323.49374199 C349.54714828 1322.73584295 348.78918182 1321.97794391 348.00824668 1321.19707823 C335.78044722 1308.97046298 323.55091841 1296.7455789 311.32075065 1284.52133269 C299.04145222 1272.24790637 286.76395692 1259.97267871 274.48832941 1247.69558079 C267.18469702 1240.3911847 259.87965678 1233.08820303 252.57264248 1225.78719003 C247.70148911 1220.91976607 242.83212699 1216.0505552 237.96426138 1211.17984319 C235.18431375 1208.39837513 232.40355284 1205.61773284 229.62061906 1202.83925224 C226.63362821 1199.85700519 223.6504535 1196.8709711 220.66769409 1193.88449192 C219.78851279 1193.00793763 218.90933149 1192.13138334 218.00350833 1191.22826681 C216.82523939 1190.04662693 216.82523939 1190.04662693 215.62316704 1188.84111553 C214.93934798 1188.15745246 214.25552892 1187.47378938 213.55098808 1186.76940924 C212.109375 1185.203125 212.109375 1185.203125 212.109375 1184.203125 C252.699375 1184.203125 293.289375 1184.203125 335.109375 1184.203125 C335.109375 1163.083125 335.109375 1141.963125 335.109375 1120.203125 C255.909375 1120.203125 176.709375 1120.203125 95.109375 1120.203125 C95.109375 1053.543125 95.109375 986.883125 95.109375 918.203125 C164.409375 918.203125 233.709375 918.203125 305.109375 918.203125 C305.109375 897.743125 305.109375 877.283125 305.109375 856.203125 C235.809375 856.203125 166.509375 856.203125 95.109375 856.203125 C95.109375 792.183125 95.109375 728.163125 95.109375 662.203125 C169.359375 662.203125 243.609375 662.203125 320.109375 662.203125 C320.109375 642.073125 320.109375 621.943125 320.109375 601.203125 C222.759375 601.203125 125.409375 601.203125 25.109375 601.203125 C25.109375 731.883125 25.109375 862.563125 25.109375 997.203125 C22.799375 995.223125 20.489375 993.243125 18.109375 991.203125 C16.0275556 989.66547993 13.92412818 988.15668803 11.80079651 986.67689514 C10.56628624 985.80705953 9.33268962 984.93592619 8.09986877 984.06369781 C7.45071062 983.60443311 6.80155247 983.1451684 6.13272285 982.67198658 C-14.95505326 967.66885845 -34.88996967 951.3391945 -54.328125 934.265625 C-55.17944504 933.52082508 -56.03076508 932.77602516 -56.90788269 932.00865555 C-100.64031163 893.60720298 -130.61440408 854.55279928 -134.74847585 795.38567895 C-136.48473459 768.47545244 -136.07866528 741.62413311 -134.890625 714.703125 C-134.8291507 713.27417322 -134.76773465 711.84521893 -134.70637655 710.41626215 C-133.10400732 673.53707586 -130.00292684 636.89399585 -125.890625 600.203125 C-148.660625 600.203125 -171.430625 600.203125 -194.890625 600.203125 C-194.890625 658.613125 -194.890625 717.023125 -194.890625 777.203125 C-202.765625 770.453125 -202.765625 770.453125 -205.85061258 767.36733592 C-206.55725072 766.66294506 -207.26388887 765.95855421 -207.99194029 765.23281819 C-208.7468457 764.47528577 -209.5017511 763.71775334 -210.27953243 762.9372654 C-211.10140546 762.11654621 -211.92327848 761.29582703 -212.77005675 760.45023757 C-215.04424417 758.17823595 -217.31618523 755.90401585 -219.58718619 753.62883 C-222.06083025 751.15173938 -224.53738925 748.67756589 -227.01357609 746.20301759 C-231.35069761 741.86796661 -235.68596286 737.53106623 -240.0200119 733.19294357 C-246.46457143 726.74234359 -252.9120016 720.29461858 -259.36002057 713.84747689 C-270.207064 703.00174679 -281.05177992 692.15369221 -291.89517021 681.30430984 C-302.63112794 670.56243462 -313.3681195 659.82159451 -324.106493 649.08213425 C-324.77423097 648.41432754 -325.44196894 647.74652083 -326.12994139 647.05847755 C-329.52106564 643.66701497 -332.91220837 640.27557086 -336.3033582 636.88413386 C-360.32134565 612.86404614 -384.33701391 588.84164088 -408.35131836 564.81787109 C-431.68054758 541.47945717 -455.01082718 518.14209409 -478.3425293 494.80615234 C-479.06174356 494.08680655 -479.78095783 493.36746076 -480.52196647 492.62631661 C-487.74462844 485.40233611 -494.96731177 478.17837697 -502.19001074 470.95443348 C-516.903414 456.23849402 -531.61667472 441.52241205 -546.32984924 426.8062439 C-547.00633387 426.12962198 -547.68281851 425.45300005 -548.37980267 424.75587444 C-593.55246483 379.57401198 -638.7218041 334.38882756 -683.890625 289.203125 C-688.87013797 292.47122827 -688.87013797 292.47122827 -693.265625 296.453125 C-694.131875 297.360625 -694.998125 298.268125 -695.890625 299.203125 C-696.880625 298.873125 -697.870625 298.543125 -698.890625 298.203125 C-697.83488281 297.25566406 -697.83488281 297.25566406 -696.7578125 296.2890625 C-690.89583722 290.99035183 -685.19870357 285.57059599 -679.640625 279.953125 C-675.54663816 275.82003241 -671.44402346 271.79157754 -667 268.03125 C-664.70391565 266.04131023 -662.48697699 263.98008272 -660.26708984 261.90600586 C-654.83405226 256.83030162 -649.29402905 251.99636499 -643.4921875 247.33984375 C-640.94075771 245.24430006 -638.50735727 243.06349345 -636.078125 240.828125 C-631.70825181 236.85050815 -627.15452964 233.19435906 -622.48950195 229.57519531 C-617.85669007 225.97846561 -613.30311 222.29415012 -608.765625 218.578125 C-602.26691826 213.27614261 -595.67071289 208.14242975 -588.890625 203.203125 C-588.23368652 202.72407715 -587.57674805 202.2450293 -586.89990234 201.75146484 C-571.10958127 190.25685569 -555.23002877 178.90681209 -538.890625 168.203125 C-538.2419043 167.77708984 -537.59318359 167.35105469 -536.92480469 166.91210938 C-509.04088786 148.62979383 -480.33341115 131.84775253 -450.890625 116.203125 C-449.89240723 115.66977539 -448.89418945 115.13642578 -447.86572266 114.58691406 C-431.48183795 105.85059123 -414.8366818 97.78791668 -397.890625 90.203125 C-396.85424896 89.73876038 -396.85424896 89.73876038 -395.79693604 89.26501465 C-317.77646074 54.36512507 -235.85698962 29.01262032 0 0 Z " fill="#5C2D91" transform="translate(998.890625,-0.203125)"/>
<path d="M0 0 C22.77 0 45.54 0 69 0 C69 192.72 69 385.44 69 584 C40.95 584 12.9 584 -16 584 C-19.63 578.06 -23.26 572.12 -27 566 C-30.55567183 560.63993427 -30.55567183 560.63993427 -34.140625 555.30078125 C-37.82600386 549.79812015 -41.37444433 544.20728678 -44.9375 538.625 C-45.97559814 536.99872681 -45.97559814 536.99872681 -47.03466797 535.33959961 C-47.71674316 534.27104736 -48.39881836 533.20249512 -49.1015625 532.1015625 C-52.32180746 527.05677196 -55.5577559 522.02259156 -58.8125 517 C-59.25045898 516.32404785 -59.68841797 515.6480957 -60.13964844 514.95166016 C-61.42590857 512.96743314 -62.71281546 510.98362744 -64 509 C-70.32616461 499.25100649 -76.61677397 489.48027967 -82.875 479.6875 C-88.23531628 471.30017419 -93.62929317 462.93641146 -99.06591797 454.59838867 C-104.10918774 446.85386496 -109.08345701 439.06574567 -114.05859375 431.27734375 C-118.17805883 424.8332669 -122.32263671 418.40667936 -126.5 412 C-132.06984496 403.45771908 -137.56888375 394.87129204 -143.05859375 386.27734375 C-147.17805883 379.8332669 -151.32263671 373.40667936 -155.5 367 C-161.06984496 358.45771908 -166.56888375 349.87129204 -172.05859375 341.27734375 C-176.17805883 334.8332669 -180.32263671 328.40667936 -184.5 322 C-190.06984496 313.45771908 -195.56888375 304.87129204 -201.05859375 296.27734375 C-205.17805883 289.8332669 -209.32263671 283.40667936 -213.5 277 C-219.06984496 268.45771908 -224.56888375 259.87129204 -230.05859375 251.27734375 C-234.17805883 244.8332669 -238.32263671 238.40667936 -242.5 232 C-248.06984496 223.45771908 -253.56888375 214.87129204 -259.05859375 206.27734375 C-263.17805883 199.8332669 -267.32263671 193.40667936 -271.5 187 C-277.06695935 178.46214464 -282.56363604 169.88047172 -288.04980469 161.29052734 C-292.252652 154.71510494 -296.4871027 148.16161458 -300.75 141.625 C-302.32309904 139.203607 -303.89502953 136.78146109 -305.46630859 134.35888672 C-306.48421955 132.79329365 -307.50535371 131.22979126 -308.52978516 129.66845703 C-333 92.33075843 -333 92.33075843 -333 82 C-333.99 82 -334.98 82 -336 82 C-335.86722656 82.8971875 -335.73445313 83.794375 -335.59765625 84.71875 C-335.33275391 86.59046875 -335.33275391 86.59046875 -335.0625 88.5 C-334.88847656 89.7065625 -334.71445312 90.913125 -334.53515625 92.15625 C-332.89835189 105.66346592 -332.85693599 119.22283809 -332.87974548 132.80505371 C-332.87930851 134.76164371 -332.87843129 136.71823365 -332.87715632 138.67482328 C-332.87493614 144.00882254 -332.87889844 149.34280144 -332.88393438 154.67679811 C-332.88827453 160.44480526 -332.88678993 166.21281137 -332.8860321 171.9808197 C-332.88550912 181.96020273 -332.88863232 191.93957919 -332.89426994 201.91896057 C-332.90241556 216.34726631 -332.9050033 230.77556889 -332.90625793 245.20387667 C-332.90835476 268.61590003 -332.91508206 292.02791997 -332.92456055 315.43994141 C-332.93375441 338.17529278 -332.9408334 360.91064323 -332.94506836 383.64599609 C-332.94519989 384.34759201 -332.94533141 385.04918793 -332.94546692 385.77204432 C-332.94678552 392.81817176 -332.94806132 399.86429921 -332.94930578 406.91042667 C-332.95184156 421.26242805 -332.95466281 435.61442937 -332.95765686 449.96643066 C-332.95793159 451.28436349 -332.95820631 452.60229632 -332.95848937 453.96016651 C-332.96765027 497.30677911 -332.98358861 540.65338964 -333 584 C-355.44 584 -377.88 584 -401 584 C-401 391.61 -401 199.22 -401 1 C-371.63 1 -342.26 1 -312 1 C-296.98577844 24.0988024 -296.98577844 24.0988024 -291.0625 33.375 C-290.39412109 34.42042969 -289.72574219 35.46585938 -289.03710938 36.54296875 C-284.11049652 44.25216238 -279.19765818 51.9700887 -274.28930664 59.69091797 C-269.87275398 66.63576439 -265.43895166 73.56945286 -261 80.5 C-255.98777332 88.32560296 -250.985624 96.15742141 -246 104 C-238.35984741 116.01698353 -230.68053955 128.00880356 -223 140 C-214.74590736 152.88665276 -206.49864311 165.77738408 -198.28857422 178.69213867 C-193.8721962 185.63653392 -189.43869585 192.56985227 -185 199.5 C-179.98777332 207.32560296 -174.985624 215.15742141 -170 223 C-162.35984741 235.01698353 -154.68053955 247.00880356 -147 259 C-138.74590736 271.88665276 -130.49864311 284.77738408 -122.28857422 297.69213867 C-117.8721962 304.63653392 -113.43869585 311.56985227 -109 318.5 C-103.98777332 326.32560296 -98.985624 334.15742141 -94 342 C-86.35984741 354.01698353 -78.68053955 366.00880356 -71 378 C-62.74590736 390.88665276 -54.49864311 403.77738408 -46.28857422 416.69213867 C-41.8721957 423.63653472 -37.43847168 430.56970809 -33 437.5 C-30.98921612 440.64147078 -28.97866423 443.78308984 -26.96826172 446.92480469 C-25.67089118 448.95180535 -24.37305064 450.97850529 -23.07470703 453.00488281 C-15.88007612 464.23798299 -8.73717521 475.4847863 -2 487 C-1.6277832 487.62406738 -1.25556641 488.24813477 -0.87207031 488.89111328 C2 493.77312938 2 493.77312938 2 496 C2.66 496 3.32 496 4 496 C3.87882812 494.72511719 3.75765625 493.45023438 3.6328125 492.13671875 C3.16918277 487.20580708 2.73294171 482.27269898 2.29908156 477.33909094 C2.11435179 475.27667855 1.92421658 473.21473241 1.7253077 471.1536392 C-0.36287327 449.46964359 -0.27594142 427.83603284 -0.23213124 406.07551181 C-0.22338208 400.60967797 -0.22642489 395.14384792 -0.22793579 389.67800903 C-0.22897749 380.23956468 -0.22277633 370.80114828 -0.21146011 361.36271095 C-0.19511014 347.71681818 -0.18998746 334.07093873 -0.18748413 320.42503723 C-0.18312182 298.27806081 -0.16985272 276.13109923 -0.15087891 253.98413086 C-0.13246732 232.48803789 -0.11832112 210.9919489 -0.10986328 189.49584961 C-0.10960023 188.83155782 -0.10933718 188.16726604 -0.10906615 187.4828442 C-0.10616706 180.14876474 -0.10338349 172.81468524 -0.10064721 165.48060572 C-0.07996035 110.32039301 -0.04421924 55.16019845 0 0 Z " fill="#FEFDFE" transform="translate(804,600)"/>
<path d="M0 0 C97.35 0 194.7 0 295 0 C295 20.13 295 40.26 295 61 C220.75 61 146.5 61 70 61 C70 125.02 70 189.04 70 255 C139.3 255 208.6 255 280 255 C280 275.46 280 295.92 280 317 C210.7 317 141.4 317 70 317 C70 383.66 70 450.32 70 519 C149.2 519 228.4 519 310 519 C310 540.12 310 561.24 310 583 C207.7 583 105.4 583 0 583 C0 390.61 0 198.22 0 0 Z " fill="#FEFEFE" transform="translate(1024,601)"/>
<path d="M0 0 C133.65 0 267.3 0 405 0 C405 20.13 405 40.26 405 61 C348.9 61 292.8 61 235 61 C235 233.26 235 405.52 235 583 C212.56 583 190.12 583 167 583 C167 411.07 167 239.14 167 62 C111.89 62 56.78 62 0 62 C0 41.54 0 21.08 0 0 Z " fill="#FEFEFE" transform="translate(1387,601)"/>
<path d="M0 0 C0.33 0 0.66 0 1 0 C1.06469482 1.18811279 1.12938965 2.37622559 1.19604492 3.6003418 C6.01847382 90.72255016 20.11300684 176.41146617 137.5234375 468.48730469 C139.20781127 471.3536365 140.81416067 474.25585155 142.40625 477.17407227 C147.5502898 486.59385159 153.4509483 495.49141975 159.359375 504.4453125 C162.38671607 509.03943536 165.31181189 513.68505182 168.1875 518.375 C172.98658593 526.15520038 178.23701733 533.58967912 183.57128906 541.00976562 C184.8852817 542.84019419 186.19077538 544.67623994 187.4921875 546.515625 C201.50218696 566.29276418 216.19739544 585.43028944 231.52783203 604.19580078 C232.82271511 605.78273046 234.11290478 607.37348737 235.40234375 608.96484375 C244.12475042 619.70618 253.13645427 630.16278845 262.53515625 640.31640625 C264.64816148 642.6169365 266.71105034 644.94659183 268.75 647.3125 C271.42221735 650.3982748 274.24576138 653.2702808 277.15940857 656.12696838 C278.92969099 657.92845181 280.57511977 659.78670389 282.21508789 661.70678711 C285.99137617 666.04781569 289.98551923 670.13003722 294.05859375 674.19140625 C294.8065773 674.94034653 295.55456085 675.6892868 296.32521057 676.46092224 C297.89632464 678.03271225 299.46868392 679.60325849 301.04223633 681.17260742 C303.43099846 683.55601304 305.81437446 685.94471068 308.19726562 688.33398438 C309.7340545 689.87011237 311.2711536 691.40593009 312.80859375 692.94140625 C313.51092636 693.64576309 314.21325897 694.35011993 314.93687439 695.07582092 C318.89000508 699.0105599 322.93656509 702.77664739 327.16871643 706.41026306 C330.36272618 709.18298236 333.42240023 712.09953695 336.5 715 C341.58575457 719.76594677 346.68664567 724.48715103 352 729 C352.98355469 729.83917969 353.96710938 730.67835938 354.98046875 731.54296875 C360.93847023 736.6137027 366.93717166 741.63071131 373.0078125 746.56640625 C375.2376434 748.37996324 377.4607188 750.20059399 379.6796875 752.02734375 C388.24204884 759.05783851 396.94944247 765.84143552 405.86230469 772.42138672 C408.12238959 774.09038043 410.37768199 775.76572549 412.6328125 777.44140625 C461.61605886 813.7696044 513.53190455 845.57288896 568 873 C568.95232513 873.48049805 568.95232513 873.48049805 569.92388916 873.97070312 C615.65560055 897.01624128 663.24308562 915.66636605 711.96398926 931.34368896 C713.90258929 931.96859952 715.839525 932.5986662 717.77636719 933.22900391 C788.93982604 956.32761368 863.22053694 969.88492363 937.6875 976.25 C938.66138672 976.33326538 939.63527344 976.41653076 940.63867188 976.50231934 C953.74915269 977.60876648 966.85571237 978.4244291 980 979 C980 979.33 980 979.66 980 980 C951.66931801 980.25279966 923.33878205 980.44655172 895.00718621 980.56171862 C891.63646214 980.5754708 888.26574029 980.58970889 884.89501953 980.60424805 C883.88875484 980.60857617 883.88875484 980.60857617 882.86216156 980.61299173 C872.76797336 980.65748722 862.67439554 980.73468705 852.58056641 980.82983398 C840.81744872 980.94066167 829.05485596 981.01071656 817.29123056 981.03497344 C811.08193522 981.04911754 804.87413941 981.08151683 798.66533279 981.16303062 C768.26255007 981.54630681 741.36059112 979.14766742 712.36556768 969.75718904 C708.1238143 968.3994561 703.85849908 967.11864773 699.59634399 965.82670593 C691.08854675 963.24388496 682.63138991 960.5195617 674.19085693 957.72528076 C672.05334127 957.01765857 669.91467594 956.31360133 667.77587891 955.60986328 C637.57183854 945.64188639 608.0794514 933.87550102 579 921 C577.98083496 920.54898926 576.96166992 920.09797852 575.91162109 919.63330078 C547.50344694 906.97228886 519.33180729 893.18483762 492.49316406 877.45166016 C489.96401439 875.97904716 487.41916531 874.53811563 484.8671875 873.10546875 C466.12455421 862.56660431 447.63563829 851.45151832 429.89160156 839.29541016 C427.72111969 837.80901666 425.54415393 836.33234761 423.3671875 834.85546875 C413.81853346 828.36470621 404.3377589 821.79087792 395 815 C394.28908203 814.48356934 393.57816406 813.96713867 392.84570312 813.43505859 C374.32394477 799.95288657 356.28363038 785.93031678 338.8347168 771.08300781 C335.42998963 768.19047838 331.98242578 765.36160095 328.5 762.5625 C323.11426586 758.18315122 318.05183201 753.49955162 312.98046875 748.765625 C310.73401311 746.67089076 308.45526572 744.62670331 306.125 742.625 C293.09672092 731.31073201 280.91594745 719.07481259 268.73583984 706.86621094 C265.97998645 704.10494716 263.21875972 701.3491364 260.45703125 698.59375 C258.67936641 696.81542508 256.90201141 695.03679037 255.125 693.2578125 C254.31135986 692.44619659 253.49771973 691.63458069 252.65942383 690.79837036 C248.44871361 686.57046527 244.38646264 682.2717794 240.50265503 677.74076843 C238.1221186 674.98300795 235.61709371 672.34402743 233.125 669.6875 C228.58973456 664.81760188 224.31319449 659.80345476 220.14453125 654.61328125 C218.00125044 652.00152377 215.7761967 649.49634698 213.5 647 C208.79576612 641.82453026 204.38284513 636.4485611 200 631 C199.09789338 629.89043217 198.19553917 628.78106559 197.29296875 627.671875 C189.57021266 618.14219621 182.18655945 608.37261633 174.87597656 598.52441406 C173.07663574 596.10312514 171.26948008 593.68785699 169.4609375 591.2734375 C112.13346933 514.46027817 66.4291231 428.27660371 24 311 C23.7801947 310.35154114 23.5603894 309.70308228 23.33392334 309.03497314 C16.34962387 288.39367096 10.13357955 267.51926783 4.67133141 246.42203617 C4.17327758 244.62515258 3.61379928 242.84505747 3.02247047 241.07667446 C-0.58510166 229.4823144 -0.53927426 218.33651663 -0.45410156 206.27563477 C-0.45297121 204.0172935 -0.4536106 201.75895077 -0.45587158 199.50061035 C-0.45701232 193.41271866 -0.4336071 187.32514662 -0.40557575 181.23732877 C-0.38045479 174.85923999 -0.37821169 168.4811427 -0.37347412 162.10301208 C-0.36248152 151.41162995 -0.3375508 140.72037305 -0.30175781 130.02905273 C-0.26495484 119.02450129 -0.23668384 108.01998155 -0.21972656 97.01538086 C-0.21867567 96.33529972 -0.21762477 95.65521859 -0.21654204 94.95452894 C-0.2113213 91.54223633 -0.20626661 88.12994351 -0.20129442 84.71765053 C-0.1599316 56.47835379 -0.08927015 28.23918316 0 0 Z " fill="#FEFEFE" transform="translate(0,1068)"/>
<path d="M0 0 C2.28844547 0.01612097 4.57513216 0.00004125 6.86352539 -0.01904297 C29.87823081 -0.05275903 51.36045521 8.65865128 68.03344727 24.59814453 C84.20118888 41.49441524 93.79570928 65.57922363 93.92797852 88.85986328 C93.93367859 89.65783325 93.93937866 90.45580322 93.94525146 91.2779541 C93.95465324 92.96214494 93.96121614 94.64635378 93.96508789 96.33056641 C93.97472075 98.85630155 94.00575955 101.38119601 94.03735352 103.90673828 C94.21037964 130.12430033 85.49677667 154.84832234 67.72485352 174.39111328 C67.12415039 175.08462891 66.52344727 175.77814453 65.90454102 176.49267578 C52.13744719 191.45172578 30.44009394 201.54050969 10.24658203 202.56811523 C-22.26519865 203.1150261 -22.26519865 203.1150261 -34.27514648 198.39111328 C-34.9602832 198.12266602 -35.64541992 197.85421875 -36.35131836 197.57763672 C-46.87358001 193.33963392 -55.72749844 187.81501459 -64.27514648 180.39111328 C-65.02151367 179.74529297 -65.76788086 179.09947266 -66.53686523 178.43408203 C-83.44906098 162.65158109 -94.45398587 137.63338776 -95.43188477 114.71826172 C-95.54845225 110.50520253 -95.57877475 106.29310706 -95.58764648 102.07861328 C-95.59123169 101.387565 -95.59481689 100.69651672 -95.59851074 99.98452759 C-95.62189603 91.59206996 -95.12065018 83.59839674 -93.27514648 75.39111328 C-93.0753418 74.35599609 -92.87553711 73.32087891 -92.66967773 72.25439453 C-89.56185808 58.63421845 -83.48560733 46.63515806 -75.27514648 35.39111328 C-74.75694336 34.61509766 -74.23874023 33.83908203 -73.70483398 33.03955078 C-61.4423447 15.60093537 -39.22471231 5.58752919 -19.07885742 1.02612305 C-12.72795827 -0.03412655 -6.42567601 -0.05373676 0 0 Z " fill="#F0F0F1" transform="translate(968.275146484375,1393.60888671875)"/>
<path d="M0 0 C19.38451087 15.66825069 27.46964823 36.81454973 32.24755859 60.70410156 C32.24755859 72.25410156 32.24755859 83.80410156 32.24755859 95.70410156 C-12.30244141 95.70410156 -56.85244141 95.70410156 -102.75244141 95.70410156 C-100.99256404 114.18281389 -98.77128608 126.84957175 -88.75244141 141.70410156 C-87.88619141 143.03441406 -87.88619141 143.03441406 -87.00244141 144.39160156 C-78.9977383 152.61865753 -66.2302075 159.95424019 -54.6472168 160.97875977 C-53.55916748 160.98738037 -52.47111816 160.99600098 -51.35009766 161.00488281 C-50.13749268 161.01455078 -48.9248877 161.02421875 -47.67553711 161.03417969 C-24.68395774 160.92949407 -6.01206769 157.23771023 13.18115234 144.05175781 C15.24755859 142.70410156 15.24755859 142.70410156 18.24755859 141.70410156 C18.50956612 146.24466959 18.66898186 150.78329559 18.81005859 155.32910156 C18.92317383 157.25689453 18.92317383 157.25689453 19.03857422 159.22363281 C19.25460676 168.48902863 19.25460676 168.48902863 16.50073242 171.81176758 C14.15035403 173.43375962 11.87540216 174.59215453 9.24755859 175.70410156 C8.53043701 176.04957031 7.81331543 176.39503906 7.07446289 176.75097656 C5.01055164 177.71159101 2.93062081 178.56433444 0.81005859 179.39160156 C0.07070068 179.68703857 -0.66865723 179.98247559 -1.43041992 180.28686523 C-6.79723506 182.40195607 -12.1611491 184.27316013 -17.75244141 185.70410156 C-18.42339844 185.88457031 -19.09435547 186.06503906 -19.78564453 186.25097656 C-27.32832811 188.03048368 -34.84018942 187.97392187 -42.53881836 187.90991211 C-44.81391621 187.89160981 -47.08860548 187.88940345 -49.36376953 187.88964844 C-72.83787888 187.83621468 -92.30590698 181.90561903 -109.20947266 165.27441406 C-110.04865234 164.42621094 -110.88783203 163.57800781 -111.75244141 162.70410156 C-112.62449219 161.86492187 -112.62449219 161.86492187 -113.51416016 161.00878906 C-131.77557822 141.8968392 -136.12073397 114.39083673 -136.12744141 89.20410156 C-136.12934479 88.4286499 -136.13124817 87.65319824 -136.13320923 86.85424805 C-136.12509398 57.62389425 -127.12587566 31.05993285 -106.50244141 9.89160156 C-100.53082154 3.98822878 -94.19745553 -0.36268343 -86.75244141 -4.29589844 C-85.86169922 -4.77542969 -84.97095703 -5.25496094 -84.05322266 -5.74902344 C-58.36627122 -18.49650905 -23.42586386 -17.3229988 0 0 Z " fill="#F0F0F1" transform="translate(1366.75244140625,1408.2958984375)"/>
<path d="M0 0 C0.88059586 -0.00570007 1.76119171 -0.01140015 2.66847229 -0.01727295 C4.52660949 -0.02667204 6.38476298 -0.03323653 8.24291992 -0.03710938 C11.02749369 -0.04674041 13.81130431 -0.07778179 16.59570312 -0.109375 C31.6261959 -0.1997997 45.63135779 1.42964492 59.94140625 6.265625 C61.13540039 6.64944336 61.13540039 6.64944336 62.35351562 7.04101562 C65.9854097 8.22725139 69.18692403 9.48213389 72.62890625 11.203125 C72.62890625 21.433125 72.62890625 31.663125 72.62890625 42.203125 C68.17360858 40.71802578 63.95257443 39.12654732 59.62890625 37.328125 C32.20878596 26.23273047 -1.61091628 22.82276181 -29.54736328 34.08007812 C-56.57565689 45.69798941 -75.298313 66.13819857 -86.51904297 93.03271484 C-98.57601396 123.74517104 -98.17893964 160.78876683 -85.57617188 191.22680664 C-75.55290114 214.17687814 -59.1242221 231.77380166 -36.015625 241.78125 C-13.69691653 250.48865609 12.40516694 251.26466702 35.62890625 245.203125 C36.3137207 245.03151855 36.99853516 244.85991211 37.70410156 244.68310547 C49.95902069 241.57070091 61.33214572 236.85150527 72.62890625 231.203125 C72.62890625 241.103125 72.62890625 251.003125 72.62890625 261.203125 C64.95942659 264.66676098 57.32277434 267.79436758 49.31640625 270.390625 C48.60830811 270.62797363 47.90020996 270.86532227 47.1706543 271.10986328 C32.65422462 275.68390509 18.32955439 276.67165816 3.20678711 276.53930664 C0.30229246 276.51550936 -2.60129035 276.51879987 -5.50585938 276.52539062 C-14.97297633 276.51119902 -24.09124229 276.29265994 -33.37109375 274.203125 C-35.24474609 273.82994141 -35.24474609 273.82994141 -37.15625 273.44921875 C-57.67285281 268.38731555 -75.1581643 257.73173582 -90.37109375 243.203125 C-91.03367187 242.6153125 -91.69625 242.0275 -92.37890625 241.421875 C-115.26776925 220.29369377 -126.86519308 185.58862062 -128.59350586 155.30615234 C-128.70953746 151.31217001 -128.75776525 147.32337477 -128.74609375 143.328125 C-128.74554993 142.61856659 -128.7450061 141.90900818 -128.7444458 141.177948 C-128.62702598 107.53435157 -119.73225423 74.18272781 -97.37109375 48.203125 C-96.24574219 46.89021484 -96.24574219 46.89021484 -95.09765625 45.55078125 C-92.89949998 43.05628651 -90.65095438 40.62290488 -88.37109375 38.203125 C-87.76007812 37.52765625 -87.1490625 36.8521875 -86.51953125 36.15625 C-64.86192175 13.11623989 -31.2032016 0.16091889 0 0 Z " fill="#F0F0F1" transform="translate(763.37109375,1319.796875)"/>
<path d="M0 0 C11.64050889 8.55966479 18.10532345 19.59958871 23 33 C23.41636719 34.12148437 23.83273437 35.24296875 24.26171875 36.3984375 C29.67429017 53.90858084 29.49451566 76.52496148 24 94 C23.79600586 94.6506543 23.59201172 95.30130859 23.38183594 95.97167969 C17.89997819 112.99177078 9.72590902 125.74066833 -6.359375 134.19921875 C-20.75513878 141.43094648 -38.7092092 142.82240504 -54.3125 138.375 C-56.23259529 137.64414145 -58.13158205 136.85436205 -60 136 C-61.41925781 135.36384766 -61.41925781 135.36384766 -62.8671875 134.71484375 C-78.70654028 126.83904368 -89.26922215 113.01717216 -95.2265625 96.625 C-101.46510645 77.23614398 -101.8730342 53.26352145 -95 34 C-94.69964844 33.07960938 -94.39929688 32.15921875 -94.08984375 31.2109375 C-88.34591577 15.14783156 -77.01697847 2.73974006 -62 -5 C-58.06126465 -6.64529451 -54.13919917 -7.96365803 -50 -9 C-49.24976563 -9.19078125 -48.49953125 -9.3815625 -47.7265625 -9.578125 C-30.61808227 -12.2252824 -14.73830697 -8.89827443 0 0 Z " fill="#6C429C" transform="translate(1004,1431)"/>
<path d="M0 0 C1.21913086 -0.01836914 1.21913086 -0.01836914 2.46289062 -0.03710938 C3.6781543 -0.04000977 3.6781543 -0.04000977 4.91796875 -0.04296875 C6.00307739 -0.04913208 6.00307739 -0.04913208 7.11010742 -0.05541992 C11.06595623 0.30017404 14.93528126 1.32589584 18.8125 2.1875 C18.8125 12.7475 18.8125 23.3075 18.8125 34.1875 C17.1625 33.5275 15.5125 32.8675 13.8125 32.1875 C3.46504509 28.08614514 -7.40201072 27.51318526 -18 31.125 C-31.95925922 37.28349672 -38.58421429 48.7307682 -44.5 62.125 C-49.86568686 77.30256352 -49.65875877 92.45831518 -49.69921875 108.37109375 C-49.71609183 110.88315188 -49.73424555 113.39520171 -49.75361633 115.90724182 C-49.79603162 121.80348195 -49.82570022 127.6996743 -49.84893972 133.59601885 C-49.87885031 140.98141984 -49.92900625 148.36666203 -49.97851562 155.75195312 C-50.06423038 168.89708769 -50.13018549 182.0422109 -50.1875 195.1875 C-60.7475 195.1875 -71.3075 195.1875 -82.1875 195.1875 C-82.1875 131.8275 -82.1875 68.4675 -82.1875 3.1875 C-71.6275 3.1875 -61.0675 3.1875 -50.1875 3.1875 C-49.8575 14.7375 -49.5275 26.2875 -49.1875 38.1875 C-47.2075 34.2275 -45.2275 30.2675 -43.1875 26.1875 C-40.91935909 22.97786663 -38.75757243 20.11334692 -36.1875 17.1875 C-35.54296875 16.42566406 -34.8984375 15.66382813 -34.234375 14.87890625 C-25.02515143 4.76581444 -13.50571069 0.01046143 0 0 Z " fill="#F1F1F1" transform="translate(1193.1875,1396.8125)"/>
<path d="M0 0 C0.66 0.33 1.32 0.66 2 1 C-0.82902876 3.85846007 -3.66400779 6.71094984 -6.5 9.5625 C-7.68722656 10.76229492 -7.68722656 10.76229492 -8.8984375 11.98632812 C-13.17945656 16.28489234 -17.52692889 20.42234847 -22.12841797 24.37573242 C-25.10290466 26.95716471 -27.94800975 29.67297831 -30.8125 32.375 C-35.75748862 37.00272311 -40.81227238 41.39827818 -46.1015625 45.6328125 C-49.57531865 48.46986941 -52.94026455 51.41876097 -56.3125 54.375 C-62.2252447 59.53958011 -68.28214424 64.45972706 -74.48828125 69.265625 C-77.47544228 71.57944714 -80.41635055 73.94560472 -83.35083008 76.32568359 C-92.6688795 83.86880748 -102.30459687 90.95217269 -112 98 C-112.79438477 98.57991699 -113.58876953 99.15983398 -114.40722656 99.75732422 C-123.47718956 106.37850877 -132.60735225 112.84149613 -142 119 C-143.13381551 119.76022497 -144.26657761 120.52202271 -145.3984375 121.28515625 C-205.26045505 161.606177 -269.86380682 195.5432513 -337 222 C-338.08522949 222.42958008 -339.17045898 222.85916016 -340.28857422 223.30175781 C-375.77927131 237.2754652 -412.04531769 249.42964592 -448.93089867 259.16117477 C-451.31546915 259.81290884 -453.67762589 260.5018397 -456.04430008 261.21355534 C-467.22021349 264.48030847 -477.34361271 265.70651177 -488.94604492 265.56762695 C-490.64340676 265.56621124 -492.34077163 265.56701863 -494.03813171 265.56983948 C-498.57846325 265.57125466 -503.11811343 265.54217841 -507.65828872 265.50696969 C-512.42810579 265.47538402 -517.1979442 265.47275038 -521.96784973 265.46684265 C-530.970104 265.45139773 -539.97204906 265.41049798 -548.97416812 265.3600952 C-559.2355546 265.30390794 -569.49695705 265.27664188 -579.75845945 265.25161803 C-600.83914452 265.19957214 -621.91955266 265.11181485 -643 265 C-643 264.67 -643 264.34 -643 264 C-641.21783081 263.90295776 -641.21783081 263.90295776 -639.3996582 263.80395508 C-552.27744984 258.98152618 -466.58853383 244.88699316 -174.65917969 127.57568359 C-171.36158887 125.62171269 -168.03375046 123.72416004 -164.70263672 121.828125 C-122.84076647 97.94218267 -83.00966983 69.50890877 -45.71484375 39.02734375 C-42.78902204 36.63710118 -39.83988076 34.27922027 -36.875 31.9375 C-31.07349799 27.3098805 -25.47494873 22.44821312 -19.85839844 17.59960938 C-17.95504019 15.96130101 -16.04499159 14.33112634 -14.1328125 12.703125 C-13.50342773 12.16655273 -12.87404297 11.62998047 -12.22558594 11.07714844 C-11.02410531 10.05319529 -9.8216849 9.03034344 -8.61816406 8.00878906 C-5.6202176 5.44896324 -2.74072745 2.83431327 0 0 Z " fill="#FEFEFE" transform="translate(1711,1783)"/>
<path d="M0 0 C0 3 0 3 -1.72265625 4.98046875 C-2.49480469 5.70878906 -3.26695312 6.43710937 -4.0625 7.1875 C-8.2920272 11.28547114 -12.19329869 15.51103858 -16 20 C-16.78761719 20.92167969 -17.57523438 21.84335937 -18.38671875 22.79296875 C-21.27481385 26.18109225 -24.14108643 29.58723295 -27 33 C-27.5460791 33.65178223 -28.0921582 34.30356445 -28.65478516 34.97509766 C-36.23510176 44.04591378 -43.58090024 53.25810183 -50.71484375 62.68359375 C-53.52988961 66.39891276 -56.39942734 70.06854192 -59.28125 73.73217773 C-65.95624179 82.23053283 -72.29992313 90.90362771 -78.45507812 99.78417969 C-80.05426778 102.07783413 -81.67319457 104.35643906 -83.296875 106.6328125 C-106.902727 139.83117233 -127.8233839 175.08189365 -147 211 C-147.4655127 211.86786133 -147.93102539 212.73572266 -148.41064453 213.62988281 C-182.60371379 277.55037561 -209.60298787 345.15358738 -229 415 C-229.20540405 415.73653809 -229.41080811 416.47307617 -229.62243652 417.23193359 C-250.54789271 492.37721169 -261.77688177 569.18696163 -266 647 C-266.33 647 -266.66 647 -267 647 C-267.25950162 625.41279836 -267.45215804 603.82586165 -267.56993389 582.23740482 C-267.62612691 572.20843247 -267.70241137 562.18044103 -267.82983398 552.15209961 C-267.94112729 543.3888129 -268.01082073 534.62623762 -268.03497344 525.86226362 C-268.0490437 521.24175484 -268.080919 516.6232771 -268.16303062 512.00343513 C-268.61333862 485.60240683 -264.70514645 462.57760911 -256.75718904 437.4107635 C-255.41981358 433.15278329 -254.12799508 428.88082588 -252.82670593 424.61170959 C-250.00467285 415.36803684 -247.0284481 406.17785686 -244 397 C-243.76839172 396.29528564 -243.53678345 395.59057129 -243.29815674 394.86450195 C-233.13014004 363.94478674 -221.17299658 333.76170932 -208 304 C-207.33145996 302.48720459 -207.33145996 302.48720459 -206.64941406 300.94384766 C-193.7414671 271.9365326 -179.68297643 243.08670476 -163.58203125 215.7109375 C-161.8294361 212.70772507 -160.11614754 209.68396666 -158.40625 206.65625 C-151.16799099 193.88417972 -143.55922163 181.46027059 -135.4453125 169.2265625 C-132.39191634 164.62212838 -129.45604653 159.95598154 -126.5625 155.25 C-123.33002964 150.01867286 -119.92096645 145.00805229 -116.23828125 140.078125 C-113.92186025 136.8925408 -111.71937648 133.64653673 -109.52050781 130.37939453 C-103.47899056 121.41392634 -97.10352236 112.8170295 -90.40234375 104.3359375 C-87.18591417 100.26209581 -84.0857183 96.11065983 -81 91.9375 C-71.41425374 79.04599263 -60.95668685 66.84881175 -50.45898438 54.69726562 C-48.98964452 52.98795326 -47.53236128 51.26904801 -46.078125 49.546875 C-39.67290171 41.97803083 -33.03889116 34.6721976 -26.23828125 27.45703125 C-23.60663741 24.66143152 -21.04007975 21.81688539 -18.5 18.9375 C-12.62337488 12.34720503 -6.28123565 6.20082154 0 0 Z " fill="#FEFEFE" transform="translate(267,332)"/>
<path d="M0 0 C12.601585 7.41655784 21.12908271 17.82384069 25 32 C25.2720498 34.79792483 25.27999139 37.56580663 25.25 40.375 C25.26160156 41.45007812 25.26160156 41.45007812 25.2734375 42.546875 C25.22751982 55.26607338 20.1082887 65.57709251 11.46484375 74.73828125 C0.99718294 84.34331391 -11.04796796 87.53247491 -24.91796875 87.27734375 C-36.8113478 86.72435527 -47.08839246 79.70541102 -55.14453125 71.34375 C-64.4927582 59.53546333 -66.23314764 46.50131169 -65 32 C-63.40890379 23.86349602 -59.13061861 17.39134754 -54 11 C-53.24976563 10.04287109 -53.24976563 10.04287109 -52.484375 9.06640625 C-39.65901516 -5.47547903 -16.98457205 -7.87305683 0 0 Z " fill="#FEFDFE" transform="translate(257,1105)"/>
<path d="M0 0 C12.20751066 8.80171777 18.34616139 22.02314112 21.38671875 36.42578125 C21.38671875 40.71578125 21.38671875 45.00578125 21.38671875 49.42578125 C-12.60328125 49.42578125 -46.59328125 49.42578125 -81.61328125 49.42578125 C-80.73230554 39.73504843 -79.68681392 34.68984101 -75.61328125 26.42578125 C-75.12988281 25.43449219 -74.64648438 24.44320313 -74.1484375 23.421875 C-66.27502574 8.65682164 -54.97239757 -0.32487223 -39.26171875 -5.7265625 C-25.79815861 -8.85460592 -11.86433535 -7.1469763 0 0 Z " fill="#6C429C" transform="translate(1345.61328125,1428.57421875)"/>
<path d="M0 0 C4.16182413 3.56727783 8.08142389 6.95593094 11.92553711 10.79614258 C13.27614479 12.14202202 13.27614479 12.14202202 14.65403748 13.51509094 C15.61193441 14.47477646 16.56970019 15.4345929 17.52734375 16.39453125 C18.52610445 17.39261718 19.52501346 18.39055473 20.52406311 19.38835144 C22.60238537 21.46520896 24.67891172 23.54384072 26.75415039 25.6237793 C29.41959972 28.29497003 32.08957407 30.96158593 34.76087093 33.62692738 C36.81719739 35.67965301 38.87115204 37.73473846 40.92437935 39.79056358 C41.90888562 40.77573816 42.89413862 41.76016708 43.8801403 42.74384499 C45.24924681 44.11042808 46.61483146 45.48053685 47.98022461 46.85083008 C48.75853134 47.6299324 49.53683807 48.40903473 50.33872986 49.21174622 C52 51 52 51 52 52 C34.84 52 17.68 52 0 52 C0 34.84 0 17.68 0 0 Z " fill="#6B419B" transform="translate(1094,1068)"/>
<path d="M0 0 C0 3 0 3 -1.828125 5.12109375 C-2.62734375 5.88550781 -3.4265625 6.64992188 -4.25 7.4375 C-5.03890625 8.19933594 -5.8278125 8.96117187 -6.640625 9.74609375 C-7.41921875 10.48988281 -8.1978125 11.23367188 -9 12 C-10.33673902 13.32991892 -11.67124591 14.6621031 -13 16 C-13 13 -13 13 -11.80664062 11.46606445 C-11.26201172 10.937146 -10.71738281 10.40822754 -10.15625 9.86328125 C-9.56972656 9.28642578 -8.98320312 8.70957031 -8.37890625 8.11523438 C-7.75886719 7.52033203 -7.13882812 6.92542969 -6.5 6.3125 C-5.87996094 5.70599609 -5.25992187 5.09949219 -4.62109375 4.47460938 C-3.08735293 2.97626257 -1.54451802 1.48723507 0 0 Z " fill="#F3EFF7" transform="translate(267,332)"/>
</svg>
