<?xml version="1.0" encoding="UTF-8"?>
<svg version="1.1" xmlns="http://www.w3.org/2000/svg" width="1024" height="617">
<path d="M0 0 C1.13373311 0.00436926 1.13373311 0.00436926 2.29036993 0.00882679 C3.48609063 0.00754515 3.48609063 0.00754515 4.70596731 0.00623763 C7.39769296 0.00458039 10.08935734 0.01010815 12.78107733 0.01555592 C14.70238265 0.01583776 16.62368808 0.01568011 18.54499334 0.01511341 C23.77824765 0.01482533 29.01147926 0.02072372 34.24472827 0.02768737 C39.70735921 0.03391921 45.16999062 0.03452457 50.63262457 0.03571278 C60.98468355 0.0388266 71.33673204 0.04704067 81.68878639 0.05706227 C93.47092983 0.06822184 105.25307376 0.07373346 117.03522116 0.0787577 C141.27920724 0.08922324 165.52318325 0.107024 189.76716131 0.12908131 C189.76716131 5.73908131 189.76716131 11.34908131 189.76716131 17.12908131 C131.68716131 17.12908131 73.60716131 17.12908131 13.76716131 17.12908131 C13.76716131 54.74908131 13.76716131 92.36908131 13.76716131 131.12908131 C68.21716131 131.12908131 122.66716131 131.12908131 178.76716131 131.12908131 C178.76716131 136.73908131 178.76716131 142.34908131 178.76716131 148.12908131 C124.31716131 148.12908131 69.86716131 148.12908131 13.76716131 148.12908131 C13.76716131 189.37908131 13.76716131 230.62908131 13.76716131 273.12908131 C72.17716131 273.12908131 130.58716131 273.12908131 190.76716131 273.12908131 C190.76716131 278.73908131 190.76716131 284.34908131 190.76716131 290.12908131 C165.22920734 290.15219723 139.69125587 290.17005895 114.15329355 290.18089348 C102.29647046 290.1860571 90.43965398 290.19310105 78.58283514 290.20452076 C68.25245972 290.21446559 57.92208909 290.22093425 47.59170902 290.2231698 C42.11823074 290.22447725 36.64476615 290.22756526 31.17129225 290.23481137 C26.02584034 290.24156841 20.88040783 290.24369892 15.73495191 290.24218899 C13.84061605 290.24246546 11.94627958 290.24447245 10.05194753 290.24828678 C7.4773853 290.25321911 4.90289754 290.25208132 2.3283338 290.24933583 C1.56862077 290.25224867 0.80890775 290.25516151 0.02617311 290.25816262 C-5.11871748 290.24320252 -5.11871748 290.24320252 -6.23283869 289.12908131 C-6.33063901 287.59226625 -6.35839376 286.05094787 -6.35867983 284.51102406 C-6.36128758 283.50643178 -6.36389533 282.50183951 -6.3665821 281.46680504 C-6.36435137 280.34980689 -6.36212065 279.23280874 -6.35982233 278.08196217 C-6.36138232 276.90575023 -6.36294231 275.72953829 -6.36454958 274.51768357 C-6.36786282 271.23820778 -6.36665041 267.9587686 -6.36356336 264.67929369 C-6.3613111 261.14824144 -6.364788 257.61719433 -6.36754328 254.08614308 C-6.37200185 247.16301507 -6.37102413 240.23989786 -6.36813064 233.31676942 C-6.36587695 227.69275358 -6.36556394 222.06874078 -6.36665446 216.44472462 C-6.36680769 215.6458448 -6.36696092 214.84696497 -6.3671188 214.02387667 C-6.36743851 212.40122793 -6.36776272 210.77857919 -6.36809139 209.15593046 C-6.37094644 193.92202329 -6.36765877 178.68812213 -6.36229102 163.45421594 C-6.35782296 150.36829566 -6.35859889 137.28238425 -6.36320978 124.19646412 C-6.36855511 109.01897145 -6.37067174 93.84148404 -6.36759752 78.66399056 C-6.36727895 77.04713971 -6.36696458 75.43028885 -6.36665446 73.813438 C-6.36650018 73.01780994 -6.3663459 72.22218188 -6.36618695 71.40244389 C-6.36532167 65.78185194 -6.36678491 60.16126332 -6.36913401 54.54067189 C-6.37193175 47.69583353 -6.3711943 40.85100665 -6.36585326 34.00616962 C-6.3632159 30.51042238 -6.36221178 27.0146943 -6.36550242 23.51894718 C-6.36821056 19.73801211 -6.36483692 15.95713196 -6.35982233 12.17620045 C-6.36316842 10.50070323 -6.36316842 10.50070323 -6.3665821 8.79135758 C-6.36397435 7.7867653 -6.3613666 6.78217303 -6.35867983 5.74713856 C-6.35851748 4.87318471 -6.35835513 3.99923086 -6.35818785 3.09879357 C-6.09992567 -0.95948789 -3.44041011 0.01005503 0 0 Z " fill="#000000" transform="translate(246.23283869028091,159.8709186911583)"/>
<path d="M0 0 C0.66 0 1.32 0 2 0 C1.39035221 3.87626807 -0.47539563 6.27909551 -2.8125 9.375 C-5.65709428 13.19314526 -8.40280453 17.01144981 -11 21 C-12.33333333 23 -13.66666667 25 -15 27 C-15.50015625 27.78503906 -16.0003125 28.57007812 -16.515625 29.37890625 C-17.04671875 30.20261719 -17.5778125 31.02632812 -18.125 31.875 C-18.62257813 32.65617187 -19.12015625 33.43734375 -19.6328125 34.2421875 C-20.08398438 34.82226562 -20.53515625 35.40234375 -21 36 C-21.66 36 -22.32 36 -23 36 C-23.08507812 36.54785156 -23.17015625 37.09570312 -23.2578125 37.66015625 C-24.24012674 40.75703115 -25.91674399 42.85159784 -27.875 45.4375 C-30.46566252 48.87419069 -32.81359247 52.29571055 -35 56 C-36.659123 58.623025 -38.35755373 61.21909555 -40.0625 63.8125 C-40.73249023 64.85180664 -40.73249023 64.85180664 -41.41601562 65.91210938 C-42.55766217 67.64420391 -43.77322205 69.32712098 -45 71 C-45.66 71 -46.32 71 -47 71 C-47.27457031 71.73863281 -47.54914063 72.47726563 -47.83203125 73.23828125 C-48.92013175 75.81114766 -50.1141408 77.88996451 -51.6875 80.1875 C-52.21988281 80.96867187 -52.75226563 81.74984375 -53.30078125 82.5546875 C-55.57033732 85.82076129 -57.85630881 89.0751112 -60.14453125 92.328125 C-64.12787596 98.06414139 -68.00200436 103.88171541 -71.76953125 109.76171875 C-72.29933594 110.58285156 -72.82914063 111.40398437 -73.375 112.25 C-74.06722656 113.34054688 -74.06722656 113.34054688 -74.7734375 114.453125 C-75.17820312 114.96359375 -75.58296875 115.4740625 -76 116 C-76.66 116 -77.32 116 -78 116 C-78.12955078 116.82371094 -78.12955078 116.82371094 -78.26171875 117.6640625 C-79.23240942 120.73534831 -80.87443585 122.80769424 -82.8125 125.375 C-85.65709428 129.19314526 -88.40280453 133.01144981 -91 137 C-91.639375 137.94875 -92.27875 138.8975 -92.9375 139.875 C-94.08638384 141.61573309 -95.22036877 143.36750321 -96.29296875 145.15625 C-96.73253906 145.8884375 -97.17210937 146.620625 -97.625 147.375 C-98.02976562 148.06335938 -98.43453125 148.75171875 -98.8515625 149.4609375 C-99.23054687 149.96882812 -99.60953125 150.47671875 -100 151 C-100.66 151 -101.32 151 -102 151 C-102.26039063 151.72316406 -102.52078125 152.44632813 -102.7890625 153.19140625 C-104.04051825 156.09397619 -105.5248514 158.38041689 -107.375 160.9375 C-108.00019531 161.81148437 -108.62539063 162.68546875 -109.26953125 163.5859375 C-109.84058594 164.38257813 -110.41164063 165.17921875 -111 166 C-112.865277 168.76965373 -114.71117752 171.54613611 -116.50390625 174.36328125 C-117.03886719 175.19214844 -117.57382812 176.02101562 -118.125 176.875 C-118.62257813 177.65617188 -119.12015625 178.43734375 -119.6328125 179.2421875 C-120.08398438 179.82226562 -120.53515625 180.40234375 -121 181 C-121.66 181 -122.32 181 -123 181 C-123.33 182.65 -123.66 184.3 -124 186 C-124.66 186 -125.32 186 -126 186 C-126.2475 186.721875 -126.495 187.44375 -126.75 188.1875 C-128.11953215 191.26894735 -129.85997022 193.4060245 -132 196 C-133.00432786 197.66406229 -134.00343429 199.33127756 -135 201 C-136.5580852 203.41272656 -138.15274852 205.80056885 -139.75 208.1875 C-140.19174561 208.84806396 -140.63349121 209.50862793 -141.08862305 210.18920898 C-150.83928629 224.73290109 -150.83928629 224.73290109 -154.6875 229.1875 C-156.75200892 231.69838923 -158.29210835 234.18487671 -159.84765625 237.02734375 C-162.28427038 241.19849675 -165.19880888 245.06901455 -168 249 C-169.29380594 250.83182425 -170.58554606 252.66510969 -171.875 254.5 C-172.73738281 255.72203125 -172.73738281 255.72203125 -173.6171875 256.96875 C-175.02656893 258.94175977 -175.02656893 258.94175977 -176 261 C-176.66 261 -177.32 261 -178 261 C-178.1546875 262.1446875 -178.1546875 262.1446875 -178.3125 263.3125 C-179.09375305 266.36648918 -179.82433666 266.83941054 -182 269 C-183.28254356 270.83180677 -184.52882762 272.68922158 -185.75 274.5625 C-188.90071391 279.35529869 -192.12937042 284.0747219 -195.45703125 288.74609375 C-197.07719901 291.04366997 -197.07719901 291.04366997 -198.57421875 293.78515625 C-199.04472656 294.51605469 -199.51523437 295.24695313 -200 296 C-200.66 296 -201.32 296 -202 296 C-202.74926071 299.66305234 -203.2380014 302.42355152 -202 306 C-201.34 306 -200.68 306 -200 306 C-198.43761577 308.2442597 -196.9840787 310.48147838 -195.5625 312.8125 C-194.77575827 314.09207832 -193.98549389 315.36949868 -193.19140625 316.64453125 C-192.84279541 317.21534424 -192.49418457 317.78615723 -192.13500977 318.37426758 C-190.91030433 320.12847569 -189.51637624 321.49452771 -188 323 C-187.09459468 324.1886071 -186.21693246 325.39869447 -185.36328125 326.625 C-184.62670288 327.67723755 -184.62670288 327.67723755 -183.87524414 328.75073242 C-183.35953857 329.49299072 -182.84383301 330.23524902 -182.3125 331 C-181.2349097 332.53813516 -180.15678397 334.07589534 -179.078125 335.61328125 C-178.29018555 336.73790771 -178.29018555 336.73790771 -177.48632812 337.88525391 C-171.58958462 346.32276324 -171.58958462 346.32276324 -165.1875 354.375 C-163 357 -163 357 -161.625 359.3125 C-159.56590083 362.71793324 -157.10970941 365.72855714 -154.64453125 368.84765625 C-152.89813323 371.13332206 -151.43427458 373.50889153 -150 376 C-149.34 376.66 -148.68 377.32 -148 378 C-148 378.99 -148 379.98 -148 381 C-147.34 381 -146.68 381 -146 381 C-144.34375 383.046875 -144.34375 383.046875 -142.5 385.75 C-141.8915625 386.63171875 -141.283125 387.5134375 -140.65625 388.421875 C-139 391 -139 391 -138.03125 393.078125 C-136.72813565 395.5066563 -134.9515212 397.0593407 -133 399 C-131.73021248 400.80543664 -130.50381532 402.6418478 -129.3125 404.5 C-125.80878791 409.84982384 -122.08837267 414.97009826 -118.22265625 420.0625 C-113.98668856 425.66082636 -109.89728833 431.36730257 -105.79296875 437.0625 C-104.71982422 438.5475 -104.71982422 438.5475 -103.625 440.0625 C-102.97789062 440.96097656 -102.33078125 441.85945313 -101.6640625 442.78515625 C-100.04332291 445.05039961 -100.04332291 445.05039961 -98 447 C-98 447.99 -98 448.98 -98 450 C-118.14500458 451.61100553 -118.14500458 451.61100553 -123.88671875 448.37109375 C-125.96180833 445.71083791 -127.43142157 442.98911126 -129 440 C-130.9320484 437.13854886 -132.97492126 434.35856662 -135 431.5625 C-136.035363 430.0905148 -137.06796412 428.61658268 -138.09765625 427.140625 C-144.6655847 417.66284585 -144.6655847 417.66284585 -151.8125 408.625 C-153.86283654 406.16459615 -155.36608244 403.74481933 -157 401 C-160.06233516 396.4210107 -163.16748854 391.8779528 -166.75 387.6875 C-169 385 -169 385 -170.375 382.6875 C-172.40972325 379.32238078 -174.82172883 376.34486409 -177.28125 373.28125 C-179.04584077 370.9391568 -180.50245876 368.51930115 -182 366 C-183.14681048 364.36092653 -184.31505787 362.73672214 -185.5 361.125 C-186.19738281 360.17238281 -186.89476562 359.21976562 -187.61328125 358.23828125 C-189.33492564 355.89868558 -191.06346773 353.56426038 -192.79296875 351.23046875 C-201.13842258 339.94437021 -201.13842258 339.94437021 -204 335.25 C-205.70801063 332.17279685 -205.70801063 332.17279685 -207.36328125 330.68359375 C-209.68339024 328.29703772 -211.36407242 325.59247975 -213.1875 322.8125 C-213.90292969 321.72582031 -214.61835937 320.63914062 -215.35546875 319.51953125 C-215.89816406 318.68808594 -216.44085937 317.85664063 -217 317 C-217.45375 317.66 -217.9075 318.32 -218.375 319 C-218.91125 319.66 -219.4475 320.32 -220 321 C-220.66 321 -221.32 321 -222 321 C-222.23976563 321.69480469 -222.47953125 322.38960938 -222.7265625 323.10546875 C-224.2185209 326.49669934 -226.19591055 329.34251953 -228.375 332.3125 C-228.80981689 332.91352539 -229.24463379 333.51455078 -229.69262695 334.13378906 C-233.64429606 339.57213489 -237.69075163 344.93986335 -241.73876953 350.30664062 C-245.04072842 354.69213834 -248.24336719 359.13098324 -251.36328125 363.6484375 C-253.83714601 367.20277303 -256.39486455 370.69466895 -258.94921875 374.19140625 C-260.35208236 376.11266136 -261.75030717 378.03730991 -263.14453125 379.96484375 C-263.83933594 380.92519531 -264.53414062 381.88554687 -265.25 382.875 C-265.87390625 383.73867188 -266.4978125 384.60234375 -267.140625 385.4921875 C-268.44238839 387.2479272 -269.78481359 388.97390817 -271.15625 390.67578125 C-272.79007521 392.73537024 -273.93738304 394.60911184 -275 397 C-275.66 397 -276.32 397 -277 397 C-277.2578125 397.71542969 -277.515625 398.43085938 -277.78125 399.16796875 C-279.07384765 402.17160111 -280.6277709 404.63505372 -282.5 407.3125 C-283.1084375 408.19550781 -283.716875 409.07851563 -284.34375 409.98828125 C-285.16359375 410.98408203 -285.16359375 410.98408203 -286 412 C-286.66 412 -287.32 412 -288 412 C-288.2578125 412.71542969 -288.515625 413.43085938 -288.78125 414.16796875 C-290.07384765 417.17160111 -291.6277709 419.63505372 -293.5 422.3125 C-294.1084375 423.19550781 -294.716875 424.07851563 -295.34375 424.98828125 C-296.16359375 425.98408203 -296.16359375 425.98408203 -297 427 C-297.66 427 -298.32 427 -299 427 C-299.08894531 427.55171875 -299.17789063 428.1034375 -299.26953125 428.671875 C-300.21711395 431.69197814 -301.78988419 433.71984558 -303.6875 436.25 C-304.35136719 437.14203125 -305.01523437 438.0340625 -305.69921875 438.953125 C-306.45847656 439.95859375 -307.21773438 440.9640625 -308 442 C-308.3928418 442.70125 -308.78568359 443.4025 -309.19042969 444.125 C-310.6282912 446.49447813 -311.86923582 448.21730827 -314 450 C-318.00379463 450.96913276 -321.78589085 450.76186413 -325.875 450.5 C-326.94492187 450.46390625 -328.01484375 450.4278125 -329.1171875 450.390625 C-331.7484998 450.29664956 -334.37237515 450.16545954 -337 450 C-335.62122741 446.44544438 -334.11097361 443.36979271 -332 440.1875 C-331.484375 439.39730469 -330.96875 438.60710937 -330.4375 437.79296875 C-329.963125 437.20128906 -329.48875 436.60960937 -329 436 C-328.34 436 -327.68 436 -327 436 C-326.7421875 435.28328125 -326.484375 434.5665625 -326.21875 433.828125 C-324.9295897 430.83661199 -323.37791273 428.40772395 -321.5 425.75 C-320.8915625 424.87859375 -320.283125 424.0071875 -319.65625 423.109375 C-318 421 -318 421 -316 420 C-314.96986723 418.35178756 -313.97934924 416.67888441 -313 415 C-311.99248479 413.38743543 -310.97066492 411.78375237 -309.9375 410.1875 C-309.43089844 409.39730469 -308.92429687 408.60710937 -308.40234375 407.79296875 C-307.70818359 406.90544922 -307.70818359 406.90544922 -307 406 C-306.34 406 -305.68 406 -305 406 C-304.74734375 405.28328125 -304.4946875 404.5665625 -304.234375 403.828125 C-302.8962408 400.76227323 -301.26280776 398.41814051 -299.25 395.75 C-296.05163715 391.46419378 -293.06680406 387.11213719 -290.2265625 382.58203125 C-289.82179688 382.05996094 -289.41703125 381.53789062 -289 381 C-288.34 381 -287.68 381 -287 381 C-286.61134766 380.18208984 -286.61134766 380.18208984 -286.21484375 379.34765625 C-284.79968083 376.61288803 -283.20877314 374.03967367 -281.5625 371.4375 C-280.96566406 370.48746094 -280.36882812 369.53742188 -279.75390625 368.55859375 C-278 366 -278 366 -276.53125 364.54296875 C-273.39610326 361.38382854 -271.24004293 357.34487114 -268.83984375 353.6171875 C-267 351 -267 351 -265 350 C-263.97243418 348.35018599 -262.97666892 346.68044506 -262 345 C-260.85318952 343.36092653 -259.68494213 341.73672214 -258.5 340.125 C-257.45972656 338.70574219 -257.45972656 338.70574219 -256.3984375 337.2578125 C-255.59904706 336.17180968 -254.79956083 335.08587737 -254 334 C-252.53520669 332.00678782 -251.07104723 330.01311294 -249.60742188 328.01904297 C-248.63301852 326.69191587 -247.65778245 325.3653997 -246.68164062 324.03955078 C-244.73416303 321.39005921 -242.82432908 318.73649362 -241 316 C-240.34 316 -239.68 316 -239 316 C-238.896875 315.236875 -238.79375 314.47375 -238.6875 313.6875 C-237.91551835 310.66975354 -237.22605361 310.06116075 -235 308 C-232.60869555 305.20485402 -232.60869555 305.20485402 -231 302 C-231.7880856 298.32226718 -233.76066627 295.95184901 -236 293 C-236 292.34 -236 291.68 -236 291 C-236.66 291 -237.32 291 -238 291 C-239.41015625 289.015625 -239.41015625 289.015625 -241.0625 286.25 C-244.35984156 280.90981481 -247.98160002 275.93512056 -251.77734375 270.94140625 C-253.91424809 268.11348188 -256.00626478 265.26203733 -258.0625 262.375 C-258.63097656 261.57835937 -259.19945312 260.78171875 -259.78515625 259.9609375 C-261 258 -261 258 -261 256 C-261.99 255.67 -262.98 255.34 -264 255 C-265.05589069 253.36816893 -266.0436126 251.69207001 -267 250 C-268.31396678 248.16518152 -269.65575172 246.35473739 -271.01171875 244.55078125 C-272 243 -272 243 -272 241 C-272.66 241 -273.32 241 -274 241 C-275.04764925 239.36286566 -276.03897066 237.68943789 -277 236 C-278.16837243 234.34053338 -279.35730774 232.69542229 -280.5625 231.0625 C-283.74026836 226.73023965 -286.88379026 222.37655142 -290 218 C-292.98002286 213.81847351 -295.97403394 209.64850186 -299 205.5 C-303.27650212 199.63483745 -307.49166868 193.72679824 -311.70458984 187.81591797 C-313.0057613 185.99192375 -314.30915217 184.16953676 -315.61328125 182.34765625 C-320.44795225 175.5920506 -325.25493856 168.8190618 -330 162 C-329.505 161.01 -329.505 161.01 -329 160 C-309.31434838 158.36309664 -309.31434838 158.36309664 -304.05078125 162.0859375 C-302.29361271 164.68547968 -301.08582323 167.06293716 -300 170 C-298.94030518 172.47262125 -298.04949932 173.95050068 -296.1328125 175.8671875 C-293.60069871 178.39930129 -291.81711958 181.11951457 -289.875 184.125 C-287.21507121 188.28785373 -287.21507121 188.28785373 -284 192 C-284 192.99 -284 193.98 -284 195 C-283.34 195 -282.68 195 -282 195 C-280.4140625 196.9765625 -280.4140625 196.9765625 -278.625 199.625 C-277.99722656 200.54667969 -277.36945313 201.46835938 -276.72265625 202.41796875 C-275.49745221 204.25438569 -274.27799974 206.09464556 -273.0625 207.9375 C-268.9553975 214.03592492 -264.53522082 219.91650961 -260.17578125 225.8359375 C-259.69117432 226.494729 -259.20656738 227.15352051 -258.70727539 227.83227539 C-257.75853459 229.1214757 -256.80856455 230.4097726 -255.85717773 231.69702148 C-248 242.37105821 -248 242.37105821 -248 245 C-247.34 245 -246.68 245 -246 245 C-244.20778423 247.40470702 -242.52839804 249.81464702 -240.875 252.3125 C-239.88265072 253.78462348 -238.88915457 255.2559745 -237.89453125 256.7265625 C-237.4042041 257.45391602 -236.91387695 258.18126953 -236.40869141 258.93066406 C-232.7483448 264.30763075 -228.99262948 269.65717202 -224.77734375 274.61328125 C-223 277 -223 277 -223 280 C-222.01 280.33 -221.02 280.66 -220 281 C-218.3125 283.0625 -218.3125 283.0625 -217 285 C-216.34773437 284.0821875 -215.69546875 283.164375 -215.0234375 282.21875 C-207.07888972 271.05771832 -207.07888972 271.05771832 -203.8125 266.75 C-199.68424569 261.30446796 -195.79008461 255.68512691 -192 250 C-191.34 250 -190.68 250 -190 250 C-189.73960937 249.26652344 -189.47921875 248.53304687 -189.2109375 247.77734375 C-187.97513934 244.94298087 -186.57401654 242.94983248 -184.625 240.5625 C-181.8878274 237.13962913 -179.41550849 233.65986135 -177 230 C-172.18786944 223.24535802 -167.21721537 216.61048239 -162.23046875 209.984375 C-159.39447719 206.18980836 -156.61371195 202.35681256 -153.8359375 198.51953125 C-152.22452109 196.30811937 -150.58965229 194.11851586 -148.9375 191.9375 C-144.77773418 186.42153655 -140.83189017 180.74783526 -137 175 C-136.34 175 -135.68 175 -135 175 C-134.7421875 174.28457031 -134.484375 173.56914062 -134.21875 172.83203125 C-132.92615235 169.82839889 -131.3722291 167.36494628 -129.5 164.6875 C-128.8915625 163.80449219 -128.283125 162.92148438 -127.65625 162.01171875 C-127.1096875 161.34785156 -126.563125 160.68398437 -126 160 C-125.34 160 -124.68 160 -124 160 C-123.34 158.35 -122.68 156.7 -122 155 C-121.34 155 -120.68 155 -120 155 C-119.74347656 154.27039063 -119.48695313 153.54078125 -119.22265625 152.7890625 C-117.93936329 149.86167855 -116.47121941 147.83189739 -114.4375 145.375 C-113.72207031 144.50230469 -113.00664063 143.62960938 -112.26953125 142.73046875 C-111.52058594 141.82941406 -110.77164063 140.92835938 -110 140 C-101.96545714 130.26334573 -94.00047255 120.51579604 -87 110 C-86.01834406 108.98198643 -85.02408568 107.9753197 -84 107 C-83.67 106.34 -83.34 105.68 -83 105 C-82.34 105 -81.68 105 -81 105 C-80.62875 103.92685547 -80.62875 103.92685547 -80.25 102.83203125 C-78.86136405 99.68590294 -77.15536054 97.36189037 -75 94.6875 C-74.29875 93.80449219 -73.5975 92.92148438 -72.875 92.01171875 C-72.25625 91.34785156 -71.6375 90.68398437 -71 90 C-70.34 90 -69.68 90 -69 90 C-68.62681641 88.91525391 -68.62681641 88.91525391 -68.24609375 87.80859375 C-66.87656093 84.72177839 -65.25044799 82.63027259 -63.0625 80.0625 C-62.25683594 79.10085937 -61.45117188 78.13921875 -60.62109375 77.1484375 C-60.19296387 76.63764648 -59.76483398 76.12685547 -59.32373047 75.60058594 C-57.03852948 72.83743993 -54.83299279 70.01245511 -52.625 67.1875 C-51.94147461 66.31363647 -51.94147461 66.31363647 -51.24414062 65.42211914 C-50.30860007 64.22603381 -49.37321745 63.02982492 -48.43798828 61.83349609 C-46.96331541 59.95322559 -45.48080006 58.07938683 -43.99609375 56.20703125 C-43.5047998 55.58610596 -43.01350586 54.96518066 -42.50732422 54.32543945 C-41.57446657 53.14683577 -40.6400093 51.9694956 -39.70361328 50.79370117 C-36.94795326 47.30517498 -34.45247856 43.70549163 -32 40 C-31.01834406 38.98198643 -30.02408568 37.9753197 -29 37 C-28.67 36.34 -28.34 35.68 -28 35 C-27.34 35 -26.68 35 -26 35 C-25.62875 34.195625 -25.62875 34.195625 -25.25 33.375 C-23.69347463 30.4176018 -21.96564327 27.70275949 -20 25 C-19.34 25 -18.68 25 -18 25 C-17.34 23.35 -16.68 21.7 -16 20 C-15.34 20 -14.68 20 -14 20 C-13.64228516 18.93458984 -13.64228516 18.93458984 -13.27734375 17.84765625 C-11.79350863 14.53965686 -9.90341776 12.20124363 -7.5625 9.4375 C-4.34208741 5.63341645 -4.34208741 5.63341645 -1.33984375 1.66015625 C-0.67662109 0.83837891 -0.67662109 0.83837891 0 0 Z " fill="#000000" transform="translate(781,0)"/>
<path d="M0 0 C23 0 23 0 28 4.8125 C29.06289744 6.84330163 30.06564646 8.9069425 31 11 C32.01425347 12.64224978 33.05669758 14.2673855 34.125 15.875 C34.68832031 16.77476562 35.25164063 17.67453125 35.83203125 18.6015625 C38.74217217 23.20558042 41.7868079 27.72151265 44.8125 32.25 C45.42399902 33.16523438 46.03549805 34.08046875 46.66552734 35.0234375 C47.87972374 36.83973341 49.09423592 38.65581828 50.30908203 40.47167969 C52.62658015 43.93688478 54.9385634 47.40575014 57.25 50.875 C58.04683766 52.07033739 58.84371221 53.26565019 59.640625 54.4609375 C64.484375 61.7265625 64.484375 61.7265625 65.74194336 63.61303711 C66.57594005 64.86395123 67.41008549 66.11476619 68.24438477 67.36547852 C70.36830376 70.54989799 72.48934232 73.73617717 74.60546875 76.92578125 C78.80880006 83.25608044 83.05125889 89.54655331 87.4296875 95.7578125 C91.18404427 101.11851097 94.74809346 106.59755218 98.27124023 112.11230469 C101.86402179 117.73500406 105.51940815 123.28400945 109.39453125 128.71875 C112.4531208 133.06477505 115.3423906 137.51581436 118.1965332 141.99804688 C121.84269238 147.72214187 125.58104361 153.35333799 129.5078125 158.890625 C131.39443464 161.55757777 133.20232231 164.27248903 135 167 C135.66 167.99 136.32 168.98 137 170 C137.66 170.99 138.32 171.98 139 173 C139.7425 174.0725 140.485 175.145 141.25 176.25 C143 179 143 179 143 181 C143.66 181 144.32 181 145 181 C145.33 182.65 145.66 184.3 146 186 C146.66 186 147.32 186 148 186 C149.2890625 187.6796875 149.2890625 187.6796875 150.625 189.875 C151.07101563 190.59429687 151.51703125 191.31359375 151.9765625 192.0546875 C153 194 153 194 153 196 C153.66 196 154.32 196 155 196 C155.33 197.65 155.66 199.3 156 201 C156.66 201 157.32 201 158 201 C159.2890625 202.6796875 159.2890625 202.6796875 160.625 204.875 C161.07101563 205.59429687 161.51703125 206.31359375 161.9765625 207.0546875 C163 209 163 209 163 211 C163.66 211 164.32 211 165 211 C165.33 212.65 165.66 214.3 166 216 C166.66 216 167.32 216 168 216 C169.2890625 217.6796875 169.2890625 217.6796875 170.625 219.875 C171.07101563 220.59429687 171.51703125 221.31359375 171.9765625 222.0546875 C173 224 173 224 173 226 C173.66 226 174.32 226 175 226 C175.33 227.65 175.66 229.3 176 231 C176.66 231 177.32 231 178 231 C179.2890625 232.6796875 179.2890625 232.6796875 180.625 234.875 C181.07101563 235.59429687 181.51703125 236.31359375 181.9765625 237.0546875 C183 239 183 239 183 241 C183.66 241 184.32 241 185 241 C185.33 242.65 185.66 244.3 186 246 C186.66 246 187.32 246 188 246 C189.2890625 247.6796875 189.2890625 247.6796875 190.625 249.875 C191.07101563 250.59429687 191.51703125 251.31359375 191.9765625 252.0546875 C193 254 193 254 193 256 C193.66 256 194.32 256 195 256 C195.33 257.65 195.66 259.3 196 261 C196.66 261 197.32 261 198 261 C199.2890625 262.6796875 199.2890625 262.6796875 200.625 264.875 C201.07101563 265.59429687 201.51703125 266.31359375 201.9765625 267.0546875 C203 269 203 269 203 271 C203.66 271 204.32 271 205 271 C205.33 272.65 205.66 274.3 206 276 C206.66 276 207.32 276 208 276 C209.2890625 277.6796875 209.2890625 277.6796875 210.625 279.875 C211.07101563 280.59429687 211.51703125 281.31359375 211.9765625 282.0546875 C213 284 213 284 213 286 C213.66 286 214.32 286 215 286 C215.33 287.65 215.66 289.3 216 291 C216.66 291 217.32 291 218 291 C219.2890625 292.6796875 219.2890625 292.6796875 220.625 294.875 C221.07101563 295.59429687 221.51703125 296.31359375 221.9765625 297.0546875 C223 299 223 299 223 301 C223.66 301 224.32 301 225 301 C225.33 302.65 225.66 304.3 226 306 C226.66 306 227.32 306 228 306 C229.2890625 307.6796875 229.2890625 307.6796875 230.625 309.875 C231.07101563 310.59429687 231.51703125 311.31359375 231.9765625 312.0546875 C233 314 233 314 233 316 C233.66 316 234.32 316 235 316 C235.33 317.65 235.66 319.3 236 321 C236.66 321 237.32 321 238 321 C239.2890625 322.6796875 239.2890625 322.6796875 240.625 324.875 C241.07101563 325.59429687 241.51703125 326.31359375 241.9765625 327.0546875 C243 329 243 329 243 331 C243.66 331 244.32 331 245 331 C246.48403998 333.09760437 247.84739038 335.18775266 249.1875 337.375 C249.9957644 338.66508606 250.80567394 339.95414281 251.6171875 341.2421875 C252.01905273 341.88124023 252.42091797 342.52029297 252.83496094 343.17871094 C254.91651332 346.4327723 257.15246353 349.57431923 259.39453125 352.71875 C262.4531208 357.06477505 265.3423906 361.51581436 268.1965332 365.99804688 C271.80559584 371.66390413 275.49341984 377.24756166 279.39453125 382.71875 C282.4531208 387.06477505 285.3423906 391.51581436 288.1965332 395.99804688 C291.80559584 401.66390413 295.49341984 407.24756166 299.39453125 412.71875 C302.97556211 417.80712476 306.35769067 423.03446252 309.75 428.25 C310.16121094 428.87390625 310.57242187 429.4978125 310.99609375 430.140625 C314 434.77123131 314 434.77123131 314 437 C314.66 437 315.32 437 316 437 C317.47309111 439.10019014 318.81309635 441.17767729 320.125 443.375 C320.49753906 443.97828125 320.87007813 444.5815625 321.25390625 445.203125 C324 449.72965316 324 449.72965316 324 452 C324.66 452 325.32 452 326 452 C326.33 453.65 326.66 455.3 327 457 C326.34 457 325.68 457 325 457 C323.59765625 455.13671875 323.59765625 455.13671875 322.0625 452.6875 C320.22627562 449.77114363 318.43823869 447.41427565 316 445 C314.47523005 443.0608904 312.97771061 441.10020652 311.5 439.125 C310.7265625 438.09632813 309.953125 437.06765625 309.15625 436.0078125 C307 433 307 433 305.40625 430.3046875 C304.08300409 428.13603449 302.80287711 426.75868895 301 425 C299.47523005 423.0608904 297.97771061 421.10020652 296.5 419.125 C295.7265625 418.09632813 294.953125 417.06765625 294.15625 416.0078125 C292 413 292 413 290.40625 410.3046875 C289.08300409 408.13603449 287.80287711 406.75868895 286 405 C284.47523005 403.0608904 282.97771061 401.10020652 281.5 399.125 C280.7265625 398.09632813 279.953125 397.06765625 279.15625 396.0078125 C277 393 277 393 275.40625 390.3046875 C274.08300409 388.13603449 272.80287711 386.75868895 271 385 C269.47523005 383.0608904 267.97771061 381.10020652 266.5 379.125 C265.7265625 378.09632813 264.953125 377.06765625 264.15625 376.0078125 C262 373 262 373 260.40625 370.3046875 C259.08300409 368.13603449 257.80287711 366.75868895 256 365 C254.47523005 363.0608904 252.97771061 361.10020652 251.5 359.125 C250.7265625 358.09632813 249.953125 357.06765625 249.15625 356.0078125 C247 353 247 353 245.40625 350.3046875 C244.08300409 348.13603449 242.80287711 346.75868895 241 345 C239.47523005 343.0608904 237.97771061 341.10020652 236.5 339.125 C235.7265625 338.09632813 234.953125 337.06765625 234.15625 336.0078125 C232 333 232 333 230.46875 330.3671875 C228.90013709 327.83905074 227.11868672 326.07840751 225 324 C223.67617251 322.2742006 222.38587489 320.5223141 221.125 318.75 C218.79486757 315.50154651 216.46653921 312.2567248 214.0625 309.0625 C213.588125 308.43214844 213.11375 307.80179687 212.625 307.15234375 C211.37596309 305.49797035 210.1257372 303.84449457 208.875 302.19140625 C204.11642452 295.88147086 199.4670132 289.51971212 195 283 C194.41734375 282.15824219 193.8346875 281.31648438 193.234375 280.44921875 C192.68265625 279.64097656 192.1309375 278.83273437 191.5625 278 C190.82193359 276.9171875 190.82193359 276.9171875 190.06640625 275.8125 C189 274 189 274 189 272 C188.34 272 187.68 272 187 272 C185.5384968 269.92296745 184.19587394 267.85182357 182.875 265.6875 C179.36182759 260.06642414 175.65771582 254.66466813 171.71484375 249.33203125 C169.71216669 246.60857292 167.84441689 243.83249737 166 241 C164.10942749 238.13154515 162.20728198 235.286076 160.19140625 232.50390625 C159.55074219 231.61574219 158.91007813 230.72757813 158.25 229.8125 C157.63640625 228.97332031 157.0228125 228.13414062 156.390625 227.26953125 C155 225 155 225 155 222 C154.34 222 153.68 222 153 222 C151.37318785 219.75935353 149.86197688 217.51870863 148.375 215.1875 C147.47719033 213.8073364 146.57743011 212.42843981 145.67578125 211.05078125 C145.2267041 210.3645166 144.77762695 209.67825195 144.31494141 208.97119141 C141.89645292 205.34570383 139.29731699 201.85986954 136.69140625 198.3671875 C134.9848729 195.97882905 133.50215262 193.52062783 132 191 C130.86889021 189.34401328 129.72274158 187.69820806 128.5625 186.0625 C125.97825251 182.41449068 123.47438651 178.72340762 121 175 C120.29359375 173.96359375 119.5871875 172.9271875 118.859375 171.859375 C118.16328125 170.83328125 117.4671875 169.8071875 116.75 168.75 C116.04359375 167.71359375 115.3371875 166.6771875 114.609375 165.609375 C113 163 113 163 113 161 C112.01 160.67 111.02 160.34 110 160 C109.02994068 158.36093425 108.06887977 156.71531519 107.171875 155.03515625 C105.51532075 152.1582737 103.50725364 149.60343834 101.46484375 146.9921875 C99.8116956 144.74390601 98.42998777 142.39629138 97 140 C94.89840551 136.86970916 92.77384801 133.75601935 90.64453125 130.64453125 C89 128 89 128 89 126 C88.34 126 87.68 126 87 126 C85.7109375 124.3203125 85.7109375 124.3203125 84.375 122.125 C83.92898437 121.40570313 83.48296875 120.68640625 83.0234375 119.9453125 C82 118 82 118 82 116 C81.34 116 80.68 116 80 116 C78.94346516 114.36858591 77.95852672 112.69085905 77 111 C75.44816885 108.58327214 73.84674671 106.1997334 72.25 103.8125 C71.81042969 103.15266113 71.37085937 102.49282227 70.91796875 101.81298828 C67.82826652 97.19082076 64.65289479 92.63978373 61.375 88.1484375 C59.90204534 85.84694585 58.93492559 83.5620557 58 81 C57.34 81 56.68 81 56 81 C55.67 79.35 55.34 77.7 55 76 C54.34 76 53.68 76 53 76 C51.51953125 74.19921875 51.51953125 74.19921875 49.8125 71.6875 C48.884375 70.32625 48.884375 70.32625 47.9375 68.9375 C45.45668427 65.17626325 43.04694941 61.37418795 40.67578125 57.54296875 C39.02248655 54.94704892 39.02248655 54.94704892 36.98046875 52.48828125 C35.06288363 50.07900764 33.55727116 47.65178733 32 45 C29.89840551 41.86970916 27.77384801 38.75601935 25.64453125 35.64453125 C24 33 24 33 24 31 C23.34 31 22.68 31 22 31 C21.67 30.34 21.34 29.68 21 29 C20.07633262 58.2611137 19.79903188 87.50830478 19.69667697 116.7826221 C19.67437234 122.90034678 19.64720743 129.01805014 19.62062073 135.13575745 C19.57128048 146.65171937 19.52613145 158.1676935 19.48259836 169.68367869 C19.43271483 182.82340411 19.37799121 195.96310811 19.32291877 209.10281265 C19.21000285 236.06852178 19.10314907 263.03425189 19 290 C12.73 290 6.46 290 0 290 C0 194.3 0 98.6 0 0 Z " fill="#000000" transform="translate(0,160)"/>
<path d="M0 0 C73.26 0 146.52 0 222 0 C222 5.61 222 11.22 222 17 C188.34 17 154.68 17 120 17 C120 107.09 120 197.18 120 290 C113.73 290 107.46 290 101 290 C101 199.91 101 109.82 101 17 C67.67 17 34.34 17 0 17 C0 11.39 0 5.78 0 0 Z " fill="#000000" transform="translate(689,160)"/>
<path d="M0 0 C4.02400203 3.34472095 6.96813488 6.49704926 8.75390625 11.51953125 C8.75390625 12.83953125 8.75390625 14.15953125 8.75390625 15.51953125 C5.02603815 15.8720792 1.46990316 16.04812256 -2.24609375 15.51953125 C-4.87109375 12.64453125 -4.87109375 12.64453125 -7.24609375 9.51953125 C-10.98777693 7.75403802 -14.51539696 7.12976088 -18.5703125 8.04296875 C-22.18929446 9.29458972 -22.18929446 9.29458972 -25.24609375 11.51953125 C-25.28702312 13.85250558 -25.28851098 16.1865835 -25.24609375 18.51953125 C-21.32889233 21.07422783 -18.18545719 22.68713313 -13.55859375 23.45703125 C-7.48957982 24.51048528 -1.60368447 26.45078467 3.75390625 29.51953125 C5.09765625 31.68359375 5.09765625 31.68359375 5.75390625 33.51953125 C6.41390625 33.51953125 7.07390625 33.51953125 7.75390625 33.51953125 C10.22751296 38.46674467 9.48579779 46.09656345 8.75390625 51.51953125 C6.81144445 56.81715435 3.29771999 59.59124475 -1.68359375 62.01953125 C-10.77544649 65.09128844 -21.43881892 64.98823857 -30.15625 60.83984375 C-35.47762207 57.47793018 -38.21375055 53.71264957 -39.62109375 47.58203125 C-39.93046875 45.57109375 -39.93046875 45.57109375 -40.24609375 43.51953125 C-36.28609375 43.51953125 -32.32609375 43.51953125 -28.24609375 43.51953125 C-27.68921875 44.91171875 -27.68921875 44.91171875 -27.12109375 46.33203125 C-24.83777618 50.21367113 -23.49442412 51.10342113 -19.24609375 52.51953125 C-13.69709968 53.22416542 -9.86051811 52.91249034 -5.24609375 49.51953125 C-4.25609375 49.18953125 -3.26609375 48.85953125 -2.24609375 48.51953125 C-2.18958285 45.1510061 -2.18958285 45.1510061 -3.24609375 41.51953125 C-8.06091608 38.19515711 -12.44875091 36.78132399 -18.12109375 35.64453125 C-25.90800697 33.89863091 -32.6515207 31.41139083 -37.24609375 24.51953125 C-38.571508 17.90314881 -38.65993141 11.84148702 -36.24609375 5.51953125 C-34.18359375 4.20703125 -34.18359375 4.20703125 -32.24609375 3.51953125 C-31.91609375 2.52953125 -31.58609375 1.53953125 -31.24609375 0.51953125 C-22.91127488 -5.03701467 -8.49264402 -5.59776014 0 0 Z " fill="#000000" transform="translate(1015.24609375,367.48046875)"/>
<path d="M0 0 C3.63 0 7.26 0 11 0 C11.07417261 7.45643945 11.12861364 14.91266399 11.16479492 22.36938477 C11.17987863 24.90588115 11.20034831 27.44235148 11.22631836 29.97875977 C11.26271881 33.62522822 11.27973082 37.27135173 11.29296875 40.91796875 C11.30845261 42.05147263 11.32393646 43.1849765 11.33988953 44.35282898 C11.34011612 45.41355118 11.34034271 46.47427338 11.34057617 47.56713867 C11.34723801 48.49757492 11.35389984 49.42801117 11.36076355 50.38664246 C10.67863791 55.32793484 7.70235601 58.82655199 4 62 C-1.69623124 66.08960191 -8.27814662 65.76142797 -15 65 C-18.93350797 63.7169415 -22.04693678 61.95306322 -25 59 C-25 58.01 -25 57.02 -25 56 C-25.66 56 -26.32 56 -27 56 C-28.28317892 52.15046324 -28.06643637 49.05261865 -28 45 C-24.37 45 -20.74 45 -17 45 C-16.7215625 46.3921875 -16.7215625 46.3921875 -16.4375 47.8125 C-15.23485489 51.2743511 -15.23485489 51.2743511 -11.75 53 C-7.55155969 54.11958408 -5.81650199 53.99912009 -2 52 C-1.03619923 49.1085977 -0.84887976 47.17346077 -0.79467773 44.16137695 C-0.77473251 43.1805867 -0.75478729 42.19979645 -0.73423767 41.18928528 C-0.71752518 40.13295395 -0.70081268 39.07662262 -0.68359375 37.98828125 C-0.66281265 36.90491989 -0.64203156 35.82155853 -0.62062073 34.70536804 C-0.55518203 31.24114384 -0.49626647 27.7768432 -0.4375 24.3125 C-0.39430939 21.96548685 -0.35069493 19.61848147 -0.30664062 17.27148438 C-0.19950639 11.51440146 -0.09822273 5.75724158 0 0 Z " fill="#000000" transform="translate(953,366)"/>
<path d="M0 0 C0.66 0.33 1.32 0.66 2 1 C3.06399452 4.94397969 3.47353207 8.705679 2.0625 12.5625 C-0.70343196 14.49027076 -2.80298364 14.56601193 -6.125 14.3828125 C-8 14 -8 14 -10 12.375 C-11.28292178 9.32806078 -11.40995912 7.27967299 -11 4 C-8.7746975 -1.28509343 -5.05920627 -0.40152431 0 0 Z " fill="#000000" transform="translate(912,416)"/>
</svg>
