<?xml version="1.0" encoding="UTF-8"?>
<svg version="1.1" xmlns="http://www.w3.org/2000/svg" width="545" height="255">
<path d="M0 0 C1.08924718 -0.00573832 1.08924718 -0.00573832 2.20049936 -0.01159257 C4.6468664 -0.0219549 7.09300014 -0.01792416 9.53938293 -0.01396179 C11.28871886 -0.01830695 13.03805287 -0.02348943 14.78738403 -0.02944946 C19.5526049 -0.04288379 24.31774665 -0.04341236 29.08298278 -0.04088616 C33.06565691 -0.0398177 37.04831496 -0.04469753 41.03098565 -0.04949158 C50.44004691 -0.0606058 59.84906828 -0.06101591 69.25813293 -0.05497742 C78.93955979 -0.04895892 88.62084054 -0.06118998 98.30224246 -0.08254749 C106.62517538 -0.10022797 114.9480621 -0.10615403 123.27101308 -0.10290974 C128.2363308 -0.10110422 133.20154471 -0.10365799 138.16684532 -0.11762428 C142.84952061 -0.13030013 147.53197121 -0.1281673 152.21464348 -0.11521339 C153.92249379 -0.11286771 155.63036037 -0.11550913 157.33819199 -0.12383652 C182.20079268 -0.23620158 204.61554231 6.34770056 222.82771301 24.00679016 C240.1847968 43.42698985 245.29455634 64.49016098 244.26081848 90.08345032 C242.7730883 110.29359711 231.90437245 127.6821846 217.69880676 141.53022766 C205.98277366 151.63231743 192.05569607 157.36821553 177.02693176 160.26069641 C178.48861647 166.18287703 181.70644469 170.25510513 185.33943176 175.01069641 C186.6137128 176.70798009 187.88713013 178.40591253 189.15974426 180.10444641 C190.12895813 181.39221985 190.12895813 181.39221985 191.11775208 182.70600891 C194.03221215 186.60586955 196.8747378 190.55623592 199.71443176 194.51069641 C203.68784677 200.03059281 207.68321464 205.53287028 211.71443176 211.01069641 C215.60370656 216.29692667 219.43818883 221.61895846 223.24055481 226.9679718 C226.92526019 232.14184795 230.67846201 237.26421338 234.44880676 242.37593079 C240.06368452 249.99730163 240.06368452 249.99730163 239.65193176 252.94819641 C239.44568176 253.71132141 239.23943176 254.47444641 239.02693176 255.26069641 C231.42083788 255.37669188 223.81483602 255.46546278 216.20805836 255.51975727 C212.67560332 255.54582029 209.14375463 255.58115507 205.61164856 255.63789368 C201.54819515 255.70275705 197.48537578 255.72690373 193.42146301 255.74897766 C192.15671646 255.77478409 190.89196991 255.80059052 189.58889771 255.82717896 C180.79733633 255.82999065 180.79733633 255.82999065 176.82185364 252.89228821 C176.22952942 252.02386292 175.6372052 251.15543762 175.02693176 250.26069641 C174.32954895 249.40475891 173.63216614 248.54882141 172.91365051 247.66694641 C172.18790833 246.70788391 171.46216614 245.74882141 170.71443176 244.76069641 C170.29838684 244.21300598 169.88234192 243.66531555 169.45368958 243.10102844 C168.50911753 241.85744305 167.56601128 240.61274343 166.62409973 239.36714172 C164.86104461 237.04191403 163.08725892 234.72512426 161.31208801 232.40913391 C154.22397847 223.15204719 147.21758471 213.84346452 140.32575989 204.43940735 C133.35509206 194.94869673 126.19097297 185.60576873 119.02693176 176.26069641 C118.4785968 175.54429993 117.93026184 174.82790344 117.36531067 174.08979797 C112.94135344 167.95774433 112.94135344 167.95774433 108.02693176 162.26069641 C106.09931359 162.16148778 104.16803822 162.13270276 102.23786926 162.13130188 C100.99988586 162.12814972 99.76190247 162.12499756 98.48640442 162.12174988 C97.12491317 162.12353966 95.76342225 162.12559061 94.40193176 162.12788391 C93.01570112 162.12721082 91.62947059 162.12624075 90.24324036 162.12498474 C87.33453755 162.12350801 84.42586539 162.12566151 81.51716614 162.13032532 C77.78096578 162.13602261 74.04483725 162.13274347 70.30863953 162.12675285 C67.44513911 162.12314656 64.58165583 162.12428614 61.71815491 162.12688065 C60.34018444 162.12754973 58.96221245 162.12672215 57.58424377 162.12440109 C55.66149422 162.12187349 53.73873924 162.12640618 51.81599426 162.13130188 C50.71980774 162.13209747 49.62362122 162.13289307 48.49421692 162.13371277 C46.08269825 161.98165406 46.08269825 161.98165406 45.02693176 163.26069641 C43.80607763 174.22995515 43.82616102 185.32714939 43.71052551 196.35054016 C43.68988895 198.03304475 43.6688911 199.71554494 43.64755249 201.39804077 C43.59302219 205.77244954 43.54331609 210.14689954 43.4947052 214.52137756 C43.44397755 219.00678567 43.38856238 223.49213577 43.33357239 227.97749329 C43.22683874 236.7385116 43.12521483 245.49957924 43.02693176 254.26069641 C40.62404749 255.46213855 39.10853424 255.39381667 36.42536926 255.40596008 C35.47097961 255.41233994 34.51658997 255.41871979 33.53327942 255.42529297 C32.49993469 255.42640579 31.46658997 255.42751862 30.40193176 255.42866516 C28.81517639 255.43365776 28.81517639 255.43365776 27.19636536 255.43875122 C24.95694922 255.44381997 22.71752551 255.44615956 20.47810364 255.44599915 C17.04112911 255.44818737 13.60447453 255.46634857 10.16755676 255.48530579 C7.99568287 255.48823929 5.82380744 255.49022437 3.65193176 255.49116516 C2.10191467 255.50194344 2.10191467 255.50194344 0.52058411 255.51293945 C-0.43380554 255.50986282 -1.38819519 255.50678619 -2.37150574 255.50361633 C-3.63486755 255.50575386 -3.63486755 255.50575386 -4.92375183 255.50793457 C-6.97306824 255.26069641 -6.97306824 255.26069641 -8.97306824 253.26069641 C-9.22754383 250.82093143 -9.22754383 250.82093143 -9.23376465 247.68746948 C-9.24084946 246.50265991 -9.24793427 245.31785034 -9.25523376 244.09713745 C-9.25275635 242.79058701 -9.25027893 241.48403656 -9.24772644 240.13789368 C-9.2520718 238.75331852 -9.25725436 237.36874578 -9.26321411 235.98417664 C-9.27663466 232.21765786 -9.27717939 228.45123924 -9.27465081 224.6847012 C-9.27358312 221.54342045 -9.27845929 218.40216014 -9.28325623 215.26088375 C-9.29436208 207.85154477 -9.29478285 200.44225649 -9.28874207 193.03291321 C-9.28270078 185.38253399 -9.29501466 177.73233862 -9.31631213 170.08199078 C-9.33391056 163.51973786 -9.33993227 156.95754356 -9.33667439 150.3952679 C-9.3348585 146.47325486 -9.33752793 142.55137293 -9.35138893 138.62938118 C-9.36393412 134.94150228 -9.3620549 131.25391055 -9.34897804 127.56603622 C-9.34547209 125.56394457 -9.35681466 123.56184429 -9.36854553 121.55978394 C-9.36153122 120.37215454 -9.35451691 119.18452515 -9.34729004 117.96090698 C-9.34745778 116.92648751 -9.34762552 115.89206804 -9.34779835 114.82630253 C-8.97306824 112.26069641 -8.97306824 112.26069641 -7.88883781 110.428092 C-4.93347428 108.62720822 -2.38467746 108.88405228 1.0534668 108.88215637 C1.77317431 108.87762624 2.49288183 108.87309611 3.23439866 108.86842871 C5.65264879 108.85677615 8.0703488 108.86646308 10.48860168 108.87593079 C12.21988788 108.87182684 13.95117131 108.86636702 15.68244934 108.85964966 C19.41476983 108.84790812 23.14694237 108.8454463 26.87927818 108.8500061 C32.7836603 108.8568058 38.68784727 108.84096358 44.5921936 108.8216095 C57.13292909 108.78370882 69.6736478 108.77095486 82.21443176 108.76069641 C95.73547212 108.74962502 109.25642285 108.73423425 122.77740175 108.68998384 C128.64348514 108.67164337 134.50934624 108.66773002 140.37545145 108.67491913 C144.03164615 108.6764439 147.68773031 108.66563812 151.34389496 108.65154076 C153.03533066 108.6475469 154.72678752 108.64864809 156.4182148 108.65531349 C158.73423795 108.66373658 161.04950066 108.65365785 163.36547852 108.63923645 C164.65946658 108.63852394 165.95345465 108.63781143 167.28665447 108.63707733 C174.76655514 107.88438129 181.1121457 105.01255066 186.02693176 99.26069641 C191.16450039 90.85738649 193.63291555 82.64113661 191.49568176 72.81929016 C188.88085337 64.42057504 184.6105379 58.72772468 177.02693176 54.26069641 C167.97223182 50.55216171 158.52434138 50.83065225 148.92903137 50.86006165 C147.22623719 50.85430958 145.52344707 50.84722292 143.82066345 50.83891296 C140.17578285 50.8238804 136.53104797 50.81801854 132.88613701 50.81944084 C127.12557785 50.82148329 121.36521362 50.80185304 115.60470581 50.77926636 C104.43012874 50.73841372 93.2555675 50.71970146 82.08093262 50.70309448 C67.82406062 50.68068757 53.56723382 50.64730342 39.31043631 50.59589535 C33.5798746 50.57594339 27.84941612 50.5663919 22.11882102 50.56494319 C18.56564338 50.56220153 15.0125233 50.55139204 11.45936966 50.53843307 C9.80733458 50.53413858 8.1552865 50.53330331 6.50324821 50.53610802 C4.25575437 50.53948735 2.0086271 50.53077657 -0.23883057 50.51898193 C-1.49846147 50.51734763 -2.75809237 50.51571333 -4.0558939 50.5140295 C-6.97306824 50.26069641 -6.97306824 50.26069641 -8.97306824 48.26069641 C-9.22703552 46.28730774 -9.22703552 46.28730774 -9.2318573 43.84272766 C-9.23816162 42.92837952 -9.24446594 42.01403137 -9.2509613 41.07197571 C-9.24691284 40.08237854 -9.24286438 39.09278137 -9.23869324 38.07319641 C-9.24060669 37.05975159 -9.24252014 36.04630676 -9.24449158 35.00215149 C-9.24585415 32.8568853 -9.24215271 30.71161088 -9.23381042 28.56636047 C-9.22311206 25.27418069 -9.23370343 21.98254663 -9.24650574 18.69038391 C-9.24518416 16.60965353 -9.24262179 14.5289235 -9.23869324 12.44819641 C-9.2427417 11.45859924 -9.24679016 10.46900208 -9.2509613 9.44941711 C-9.24465698 8.53506897 -9.23835266 7.62072083 -9.2318573 6.67866516 C-9.23026611 5.87195374 -9.22867493 5.06524231 -9.22703552 4.23408508 C-8.55940978 -0.95353217 -4.17328813 0.00655961 0 0 Z " fill="#252122" transform="translate(8.973068237304688,-0.2606964111328125)"/>
<path d="M0 0 C0.88554013 -0.00322445 1.77108025 -0.00644889 2.68345493 -0.00977105 C3.66747872 -0.00822245 4.6515025 -0.00667385 5.66534519 -0.00507832 C6.70201078 -0.00734387 7.73867638 -0.00960943 8.80675608 -0.01194364 C12.30915512 -0.01831553 15.81151579 -0.01745224 19.31392002 -0.01662922 C21.81325424 -0.01961872 24.31258799 -0.02302075 26.81192112 -0.02680683 C32.91321661 -0.03474979 39.01449679 -0.0378624 45.11579602 -0.03841921 C50.07285095 -0.03889361 55.02990268 -0.04094451 59.9869566 -0.04411983 C74.02665096 -0.05293079 88.06633766 -0.05753852 102.10603481 -0.05678936 C103.24244385 -0.05672943 103.24244385 -0.05672943 104.40181065 -0.05666828 C105.16033668 -0.0566274 105.91886271 -0.05658652 106.70037437 -0.0565444 C118.99830614 -0.0561378 131.2962073 -0.06570977 143.59413021 -0.07980665 C156.20737213 -0.09415143 168.82059911 -0.10107788 181.43384939 -0.10021287 C188.5209352 -0.09988024 195.60798893 -0.10265595 202.69506741 -0.11339092 C209.35734062 -0.12341738 216.01955745 -0.12318004 222.68183804 -0.11587429 C225.13369947 -0.11482322 227.58556504 -0.11722197 230.03741932 -0.12323475 C233.37140257 -0.13088426 236.70514685 -0.12635694 240.03912449 -0.11860371 C241.02091755 -0.12374727 242.00271062 -0.12889083 243.01425499 -0.13419026 C243.90240286 -0.12959147 244.79055074 -0.12499267 245.70561218 -0.12025452 C246.47590238 -0.12047188 247.24619258 -0.12068925 248.0398249 -0.12091321 C249.91572666 0.12863445 249.91572666 0.12863445 251.91572666 2.12863445 C252.16969395 4.10202312 252.16969395 4.10202312 252.17451572 6.5466032 C252.18082005 7.46095135 252.18712437 8.37529949 252.19361973 9.31735516 C252.18754704 10.80175091 252.18754704 10.80175091 252.18135166 12.31613445 C252.18326511 13.32957928 252.18517857 14.3430241 252.18715 15.38717937 C252.18851257 17.53244557 252.18481113 19.67771998 252.17646885 21.82297039 C252.16577048 25.11515017 252.17636185 28.40678423 252.18916416 31.69894695 C252.18784258 33.77967733 252.18528021 35.86040737 252.18135166 37.94113445 C252.18540012 38.93073162 252.18944859 39.92032879 252.19361973 40.93991375 C252.18416325 42.31143597 252.18416325 42.31143597 252.17451572 43.7106657 C252.17292454 44.51737713 252.17133335 45.32408855 252.16969395 46.15524578 C251.91572666 48.12863445 251.91572666 48.12863445 249.91572666 50.12863445 C239.50552276 51.66620667 228.70164158 51.24455175 218.20484066 51.17323399 C215.51888961 51.15555157 212.83300017 51.14545729 210.14700413 51.1373167 C202.52354749 51.11309004 194.9001765 51.07691718 187.27681065 51.03268719 C182.58465514 51.00598124 177.89254502 50.98889756 173.20032787 50.97781849 C171.41845904 50.97160634 169.63659929 50.96159809 167.85477352 50.9477396 C165.38048338 50.92862408 162.90643785 50.92164345 160.43208408 50.91745281 C159.32807758 50.90431042 159.32807758 50.90431042 158.20176792 50.89090252 C154.10677577 50.77160357 154.10677577 50.77160357 150.91572666 53.12863445 C150.71466087 55.76944751 150.63940599 58.306141 150.65071201 60.94845867 C150.64633074 61.76546686 150.64194947 62.58247505 150.63743544 63.42424107 C150.62505826 66.17732282 150.62692739 68.93021549 150.62861729 71.68332195 C150.62259678 73.65079311 150.61567349 75.61826168 150.60791111 77.58572674 C150.59299325 81.82987508 150.58426573 86.07397613 150.58020115 90.31814861 C150.57350607 97.02309185 150.55177405 103.72793354 150.52766514 110.43283367 C150.47862874 124.66474353 150.44634517 138.89667485 150.41572666 153.12863445 C150.38267651 168.49085893 150.3468339 183.85304385 150.29159594 199.2152071 C150.26818309 205.88657633 150.25449034 212.55787512 150.24810123 219.22928143 C150.24218213 223.37245557 150.22810294 227.51557228 150.21175671 231.65871716 C150.20585768 233.58648976 150.20341322 235.51427634 150.20459652 237.44205761 C150.20574771 240.06443194 150.19480376 242.68648006 150.18074131 245.30881023 C150.18568977 246.46530984 150.18568977 246.46530984 150.1907382 247.64517307 C150.14391224 252.90044887 150.14391224 252.90044887 147.91572666 255.12863445 C145.82844639 255.38260174 145.82844639 255.38260174 143.22236729 255.38742352 C142.24795689 255.39372784 141.27354649 255.40003216 140.2696085 255.40652752 C138.68678074 255.40045483 138.68678074 255.40045483 137.07197666 255.39425945 C135.9919437 255.3961729 134.91191074 255.39808636 133.79914951 255.40005779 C131.51264812 255.40142053 129.22613902 255.39771797 126.93965244 255.38937664 C123.43019912 255.37867857 119.92125773 255.38926918 116.41182041 255.40207195 C114.19437136 255.40075037 111.97692263 255.39818802 109.75947666 255.39425945 C108.70425816 255.39830791 107.64903965 255.40235638 106.56184483 255.40652752 C105.58743443 255.4002232 104.61302402 255.39391888 103.60908604 255.38742352 C102.74907993 255.38583233 101.88907383 255.38424114 101.00300694 255.38260174 C98.91572666 255.12863445 98.91572666 255.12863445 96.91572666 253.12863445 C96.71025843 250.45869749 96.63062777 247.89123079 96.63725376 245.21942425 C96.63146136 244.39283782 96.62566896 243.56625139 96.61970103 242.71461689 C96.6026194 239.92924403 96.59981755 237.14403603 96.59687901 234.35861492 C96.58758645 232.36819327 96.5774188 230.37777553 96.56643772 228.38736248 C96.53904777 222.97030664 96.52396175 217.55327693 96.51100969 212.13616991 C96.49541838 206.4799918 96.46861551 200.82386737 96.44297886 195.16772747 C96.39612003 184.45094249 96.35941038 173.7341475 96.32630599 163.01731217 C96.28813469 150.81915762 96.23871152 138.62105689 96.18832183 126.42294765 C96.08489636 101.3248831 95.99567058 76.226784 95.91572666 51.12863445 C95.06345857 51.12229003 95.06345857 51.12229003 94.19397295 51.11581743 C92.44899797 51.10282754 90.704023 51.08983624 88.95904803 51.07684398 C86.88437938 51.06140235 84.80971065 51.04597108 82.73504186 51.03054929 C76.99054202 50.98783248 71.24604368 50.94492876 65.50154781 50.90168095 C51.08578605 50.79282814 51.08578605 50.79282814 36.66993809 50.69632244 C31.18686209 50.66200346 25.70393764 50.61942264 20.220994 50.56817913 C18.12360949 50.55045954 16.0261896 50.53666941 13.92875767 50.5259428 C10.7571066 50.50896736 7.5857903 50.47963933 4.41426182 50.44748211 C3.47525343 50.44530996 2.53624504 50.44313782 1.56878185 50.44089985 C0.29257504 50.42417256 0.29257504 50.42417256 -1.00941372 50.40710735 C-2.12386144 50.39881122 -2.12386144 50.39881122 -3.26082325 50.39034748 C-5.08427334 50.12863445 -5.08427334 50.12863445 -7.08427334 48.12863445 C-7.28459494 45.11322739 -7.36397152 42.19172088 -7.34989834 39.17550945 C-7.35181179 38.28253155 -7.35372524 37.38955364 -7.35569668 36.4695158 C-7.35705947 34.57642619 -7.35335646 32.68332727 -7.34501553 30.79025555 C-7.33436742 27.90413403 -7.34488153 25.01864213 -7.35771084 22.1325407 C-7.35638828 20.29269559 -7.35382388 18.45285086 -7.34989834 16.61300945 C-7.3539468 15.75342632 -7.35799526 14.89384319 -7.3621664 14.00821209 C-7.25371837 0.00663487 -7.25371837 0.00663487 0 0 Z " fill="#231E20" transform="translate(293.08427333831787,-0.12863445281982422)"/>
<path d="M0 0 C33.33 0 66.66 0 101 0 C101 0.33 101 0.66 101 1 C90.407977 1.88669109 79.91361424 2.11678492 69.289114 2.04459953 C66.60316295 2.02691711 63.91727351 2.01682284 61.23127747 2.00868225 C53.60782083 1.98445559 45.98444984 1.94828272 38.36108398 1.90405273 C33.66892848 1.87734679 28.97681836 1.8602631 24.28460121 1.84918404 C22.50273238 1.84297189 20.72087263 1.83296364 18.93904686 1.81910515 C16.46475672 1.79998962 13.99071118 1.793009 11.51635742 1.78881836 C10.78035309 1.78005676 10.04434875 1.77129517 9.28604126 1.76226807 C5.19104911 1.64296911 5.19104911 1.64296911 2 4 C1.7989342 6.64081305 1.72367933 9.17750655 1.73498535 11.81982422 C1.73060408 12.63683241 1.72622281 13.4538406 1.72170877 14.29560661 C1.70933159 17.04868837 1.71120073 19.80158104 1.71289062 22.5546875 C1.70687012 24.52215866 1.69994682 26.48962723 1.69218445 28.45709229 C1.67726658 32.70124063 1.66853907 36.94534168 1.66447449 41.18951416 C1.65777941 47.8944574 1.63604739 54.59929909 1.61193848 61.30419922 C1.56290208 75.53610907 1.53061851 89.7680404 1.5 104 C1.46694985 119.36222447 1.43110724 134.72440939 1.37586927 150.08657265 C1.35245643 156.75794188 1.33876368 163.42924067 1.33237457 170.10064697 C1.32645547 174.24382112 1.31237628 178.38693783 1.29603004 182.5300827 C1.29013102 184.45785531 1.28768656 186.38564189 1.28886986 188.31342316 C1.29002105 190.93579748 1.2790771 193.5578456 1.26501465 196.18017578 C1.26831362 196.95117552 1.2716126 197.72217525 1.27501154 198.51653862 C1.22818558 203.77181442 1.22818558 203.77181442 -1 206 C-3.08728027 206.25396729 -3.08728027 206.25396729 -5.69335938 206.25878906 C-7.15497498 206.26824554 -7.15497498 206.26824554 -8.64611816 206.27789307 C-10.22894592 206.27182037 -10.22894592 206.27182037 -11.84375 206.265625 C-12.92378296 206.26753845 -14.00381592 206.2694519 -15.11657715 206.27142334 C-17.40307854 206.27278607 -19.68958764 206.26908352 -21.97607422 206.26074219 C-25.48552755 206.25004412 -28.99446893 206.26063473 -32.50390625 206.2734375 C-34.7213553 206.27211592 -36.93880403 206.26955356 -39.15625 206.265625 C-40.21146851 206.26967346 -41.26668701 206.27372192 -42.35388184 206.27789307 C-43.32829224 206.27158875 -44.30270264 206.26528442 -45.30664062 206.25878906 C-46.16664673 206.25719788 -47.02665283 206.25560669 -47.91271973 206.25396729 C-50 206 -50 206 -52 204 C-52.20546823 201.33006304 -52.28509889 198.76259634 -52.2784729 196.09078979 C-52.2842653 195.26420337 -52.2900577 194.43761694 -52.29602563 193.58598244 C-52.31310726 190.80060958 -52.31590911 188.01540158 -52.31884766 185.22998047 C-52.32814021 183.23955882 -52.33830786 181.24914108 -52.34928894 179.25872803 C-52.3766789 173.84167219 -52.39176491 168.42464248 -52.40471697 163.00753546 C-52.42030829 157.35135734 -52.44711116 151.69523291 -52.4727478 146.03909302 C-52.51960663 135.32230804 -52.55631628 124.60551304 -52.58942068 113.88867772 C-52.62759198 101.69052317 -52.67701514 89.49242244 -52.72740483 77.29431319 C-52.83083031 52.19624864 -52.92005608 27.09814955 -53 2 C-53.66 1.67 -54.32 1.34 -55 1 C-53.68 1 -52.36 1 -51 1 C-50.67 67.99 -50.34 134.98 -50 204 C-33.83 204 -17.66 204 -1 204 C-1.00523682 197.89129395 -1.01047363 191.78258789 -1.01586914 185.48876953 C-1.0324031 165.35619339 -1.04352128 145.22361699 -1.05181217 125.09103584 C-1.05697468 112.87888366 -1.06401653 100.6667379 -1.07543945 88.45458984 C-1.08538766 77.8140045 -1.09185376 67.1734238 -1.09408849 56.53283393 C-1.09539537 50.89556228 -1.09847976 45.25830393 -1.10573006 39.62103653 C-1.11249242 34.32045502 -1.11461651 29.01989236 -1.11310768 23.71930695 C-1.11338391 21.76895165 -1.11538776 19.81859575 -1.11920547 17.86824417 C-1.12414607 15.21520932 -1.1229969 12.56224656 -1.12025452 9.90921021 C-1.12316736 9.12906433 -1.1260802 8.34891846 -1.12908131 7.5451318 C-1.11412121 2.22824242 -1.11412121 2.22824242 0 0 Z " fill="#6C6A6B" transform="translate(442,49)"/>
<path d="M0 0 C33.33 0 66.66 0 101 0 C101 0.33 101 0.66 101 1 C90.407977 1.88669109 79.91361424 2.11678492 69.289114 2.04459953 C66.60316295 2.02691711 63.91727351 2.01682284 61.23127747 2.00868225 C53.60782083 1.98445559 45.98444984 1.94828272 38.36108398 1.90405273 C33.66892848 1.87734679 28.97681836 1.8602631 24.28460121 1.84918404 C22.50273238 1.84297189 20.72087263 1.83296364 18.93904686 1.81910515 C16.46475672 1.79998962 13.99071118 1.793009 11.51635742 1.78881836 C10.78035309 1.78005676 10.04434875 1.77129517 9.28604126 1.76226807 C5.19104911 1.64296911 5.19104911 1.64296911 2 4 C1.79456796 6.6449489 1.71489694 9.18646283 1.7215271 11.83328247 C1.7157347 12.65170179 1.7099423 13.47012111 1.70397437 14.31334102 C1.68689332 17.07107521 1.68409094 19.82864287 1.68115234 22.58642578 C1.67185975 24.55714329 1.66169209 26.52785685 1.65071106 28.49856567 C1.62332156 33.86190413 1.60823522 39.22521621 1.59528303 44.58860636 C1.57969152 50.18873034 1.55288871 55.78880011 1.5272522 61.3888855 C1.48039372 71.99942237 1.4436839 82.60996937 1.41057932 93.22055709 C1.37240778 105.29779529 1.32298468 117.37497913 1.27259517 129.45217156 C1.16917022 154.30140746 1.07994427 179.15067826 1 204 C0.67 204 0.34 204 0 204 C0 136.68 0 69.36 0 0 Z " fill="#817F81" transform="translate(442,49)"/>
<path d="M0 0 C1.1702623 0.00222061 2.3405246 0.00444122 3.54624939 0.00672913 C4.19013107 0.0065831 4.83401276 0.00643707 5.49740601 0.00628662 C7.63473327 0.00698567 9.77197438 0.01477761 11.9092865 0.02259827 C13.3875931 0.02446248 14.86590032 0.02588637 16.34420776 0.02688599 C20.24211827 0.03071093 24.13999174 0.040541 28.03788757 0.05158997 C32.01259358 0.0618046 35.98730554 0.06638372 39.96202087 0.07142639 C47.76607425 0.0821633 55.57009707 0.09923942 63.37413025 0.12025452 C64.36413025 2.10025452 64.36413025 2.10025452 65.37413025 4.12025452 C64.38413025 3.46025452 63.39413025 2.80025452 62.37413025 2.12025452 C59.57040914 1.8222884 59.57040914 1.8222884 56.35801697 1.87733459 C54.50126846 1.87271965 54.50126846 1.87271965 52.60700989 1.86801147 C51.25594395 1.87490815 49.90487985 1.88217504 48.55381775 1.88978577 C47.1704462 1.89097786 45.78707382 1.89143067 44.40370178 1.89117432 C41.50691144 1.89273775 38.61024492 1.9010183 35.71348572 1.91444397 C31.99302794 1.93146541 28.27270583 1.93525734 24.55221367 1.93449879 C21.69728796 1.93477011 18.84239214 1.94024471 15.98747635 1.94750023 C14.61509045 1.95069046 13.24270115 1.95265513 11.87031174 1.95339394 C9.95734699 1.95555193 8.04439477 1.96508098 6.13145447 1.97499084 C5.04130035 1.97880264 3.95114624 1.98261444 2.82795715 1.98654175 C0.42839245 1.84346397 0.42839245 1.84346397 -0.62586975 3.12025452 C-1.84672388 14.08951326 -1.82664049 25.18670749 -1.942276 36.21009827 C-1.96291256 37.89260285 -1.98391042 39.57510305 -2.00524902 41.25759888 C-2.05977932 45.63200765 -2.10948542 50.00645765 -2.15809631 54.38093567 C-2.20882396 58.86634377 -2.26423914 63.35169388 -2.31922913 67.83705139 C-2.42596277 76.5980697 -2.52758668 85.35913734 -2.62586975 94.12025452 C-5.04361556 95.32912742 -6.55918039 95.24084794 -9.25917053 95.23377991 C-10.22001556 95.23370438 -11.1808606 95.23362885 -12.17082214 95.23355103 C-13.21044098 95.22838974 -14.25005981 95.22322845 -15.32118225 95.21791077 C-16.38376251 95.21649582 -17.44634277 95.21508087 -18.54112244 95.21362305 C-21.94439984 95.20801285 -25.34761214 95.19545861 -28.75086975 95.18275452 C-31.05425422 95.17774083 -33.35763972 95.1731777 -35.661026 95.16908264 C-41.31599624 95.15804011 -46.97092834 95.14129203 -52.62586975 95.12025452 C-52.95586975 94.46025452 -53.28586975 93.80025452 -53.62586975 93.12025452 C-37.12586975 93.12025452 -20.62586975 93.12025452 -3.62586975 93.12025452 C-3.64327209 83.17578186 -3.64327209 83.17578186 -3.661026 73.03041077 C-3.66613267 68.84225875 -3.67094643 64.65411055 -3.67469788 60.46595764 C-3.68068667 53.81140856 -3.68778793 47.15687318 -3.7013092 40.50233459 C-3.7121369 35.14018033 -3.71814633 29.77804074 -3.72074699 24.41587639 C-3.72260146 22.36525173 -3.72622247 20.31462792 -3.73159981 18.26400948 C-3.73880868 15.40235249 -3.73986076 12.54075694 -3.73939514 9.67909241 C-3.74299042 8.82241974 -3.74658569 7.96574707 -3.75028992 7.08311462 C-3.73803735 0.17118742 -3.73803735 0.17118742 0 0 Z " fill="#555254" transform="translate(54.62586975097656,159.87974548339844)"/>
<path d="M0 0 C21.78 0 43.56 0 66 0 C66.99 1.98 66.99 1.98 68 4 C67.01 3.34 66.02 2.68 65 2 C62.19627889 1.70203388 62.19627889 1.70203388 58.98388672 1.75708008 C57.12713821 1.75246513 57.12713821 1.75246513 55.23287964 1.74775696 C53.8818137 1.75465363 52.53074961 1.76192052 51.1796875 1.76953125 C49.79631595 1.77072335 48.41294358 1.77117615 47.02957153 1.7709198 C44.13278119 1.77248324 41.23611467 1.78076378 38.33935547 1.79418945 C34.61889769 1.81121089 30.89857558 1.81500282 27.17808342 1.81424427 C24.32315771 1.81451559 21.46826189 1.81999019 18.6133461 1.82724571 C17.2409602 1.83043595 15.8685709 1.83240061 14.49618149 1.83313942 C12.58321674 1.83529741 10.67026452 1.84482646 8.75732422 1.85473633 C7.12209305 1.86045403 7.12209305 1.86045403 5.4538269 1.86628723 C3.0542622 1.72320945 3.0542622 1.72320945 2 3 C1.76346477 5.52596259 1.57826308 8.03107207 1.4375 10.5625 C1.39431641 11.27341797 1.35113281 11.98433594 1.30664062 12.71679688 C1.20028223 14.47761912 1.09961154 16.2387832 1 18 C0.67 18 0.34 18 0 18 C0 12.06 0 6.12 0 0 Z " fill="#A2A0A1" transform="translate(52,160)"/>
<path d="M0 0 C22.44 0 44.88 0 68 0 C68 0.99 68 1.98 68 3 C67.01 2.505 67.01 2.505 66 2 C63.90713839 1.87941945 61.81050222 1.82257322 59.71435547 1.79467773 C59.07032776 1.78477814 58.42630005 1.77487854 57.76275635 1.76467896 C55.63093765 1.73305501 53.49909665 1.70830313 51.3671875 1.68359375 C49.89030371 1.66302498 48.41342582 1.64202853 46.93655396 1.62062073 C43.04694389 1.56539201 39.15728063 1.5159863 35.26757812 1.46777344 C31.29943093 1.41756423 27.33136111 1.36187514 23.36328125 1.30664062 C15.57558633 1.19904928 7.78782714 1.09760652 0 1 C0 0.67 0 0.34 0 0 Z " fill="#2B292A" transform="translate(52,159)"/>
<path d="M0 0 C9.32559331 0.54856431 18.14051304 4.01308991 26 9 C23.50907189 10.24546405 22.58919267 9.7767578 20 9 C20 8.34 20 7.68 20 7 C19.01 7.33 18.02 7.66 17 8 C17 7.34 17 6.68 17 6 C15.6696875 5.814375 15.6696875 5.814375 14.3125 5.625 C11.27185454 5.05129331 8.85461437 4.14184575 6 3 C4.0075675 2.62406934 2.0081326 2.28020455 0 2 C0 1.34 0 0.68 0 0 Z " fill="#6C696A" transform="translate(189,2)"/>
<path d="M0 0 C6.00738007 2.11070111 6.00738007 2.11070111 8 5 C8.6875 8.6875 8.6875 8.6875 9 12 C4.99027798 8.32442148 2.54664585 4.81033104 0 0 Z " fill="#5F5C5D" transform="translate(166,225)"/>
<path d="M0 0 C0.66 0.99 1.32 1.98 2 3 C-2.18461538 7.92307692 -2.18461538 7.92307692 -6.3125 8.3125 C-7.6428125 8.1578125 -7.6428125 8.1578125 -9 8 C-6.17493137 5.0702992 -3.21203935 2.49825283 0 0 Z " fill="#504E4F" transform="translate(195,99)"/>
<path d="M0 0 C1.32 0.33 2.64 0.66 4 1 C3.34 1.66 2.68 2.32 2 3 C1.53513282 6.12196336 1.53513282 6.12196336 1.375 9.625 C1.30023438 10.81351563 1.22546875 12.00203125 1.1484375 13.2265625 C1.09945313 14.14179687 1.05046875 15.05703125 1 16 C0.67 16 0.34 16 0 16 C0 10.72 0 5.44 0 0 Z " fill="#A4A2A3" transform="translate(442,50)"/>
<path d="M0 0 C1 3 1 3 0.22265625 5.04296875 C-0.16019531 5.75066406 -0.54304687 6.45835938 -0.9375 7.1875 C-1.31777344 7.90292969 -1.69804687 8.61835937 -2.08984375 9.35546875 C-2.54037109 10.16951172 -2.54037109 10.16951172 -3 11 C-3.33 11 -3.66 11 -4 11 C-4.36997319 5.45040214 -4.36997319 5.45040214 -2.5625 3.25 C-2.046875 2.8375 -1.53125 2.425 -1 2 C-0.67 1.34 -0.34 0.68 0 0 Z " fill="#6F6B6C" transform="translate(247,108)"/>
<path d="M0 0 C2.50298434 2.93828597 3.46930939 5.17902761 4 9 C3.01 9 2.02 9 1 9 C0.67 6.03 0.34 3.06 0 0 Z " fill="#6F6B6B" transform="translate(244,42)"/>
</svg>
