<?xml version="1.0" encoding="UTF-8"?>
<svg version="1.1" xmlns="http://www.w3.org/2000/svg" width="2001" height="1073">
<path d="M0 0 C3.76410993 1.50564397 7.03540064 3.03201369 10.55078125 4.984375 C12.16847412 5.88168335 12.16847412 5.88168335 13.81884766 6.79711914 C14.9835286 7.44784652 16.14807596 8.09881303 17.3125 8.75 C17.90891296 9.08224579 18.50532593 9.41449158 19.11981201 9.75680542 C28.50807643 14.98748127 37.81212493 20.35193058 47.07739258 25.79785156 C54.16833498 29.95737231 61.31646265 34.00277194 68.5 38 C77.72934771 43.13625165 86.87237125 48.40212624 95.98046875 53.75 C103.1052819 57.92243959 110.28546141 61.98495244 117.5 66 C126.72931402 71.13631389 135.87236973 76.40212535 144.98046875 81.75 C152.1052819 85.92243959 159.28546141 89.98495244 166.5 94 C175.72644345 99.13471636 184.8674212 104.39763897 193.97167969 109.74560547 C202.10618719 114.51094011 210.3153806 119.13332846 218.57421875 123.6796875 C220.48340997 124.73773037 222.37429879 125.82944586 224.24584961 126.95272827 C227.063774 128.57995617 229.91878454 129.77614233 232.94873047 130.95718384 C238.71775344 133.44182839 243.93186691 136.09970361 248 141 C251.35644075 149.55629665 250.39948322 159.23905503 250.02787876 168.26558018 C249.90185032 171.84822383 249.89103076 175.43129015 249.86737061 179.01580811 C249.80548039 185.78653896 249.64180117 192.55072235 249.44038081 199.31858325 C249.21592022 207.02999698 249.10665174 214.74174354 249.00647211 222.45561647 C248.79805228 238.3075222 248.44687686 254.15291347 248 270 C245.75293172 268.88345076 243.50663043 267.76540273 241.26074219 266.64648438 C240.62796356 266.33225525 239.99518494 266.01802612 239.3432312 265.6942749 C234.86534344 263.4613492 230.5240199 261.09665994 226.25 258.5 C224.80669256 257.63814459 223.36262956 256.77755369 221.91796875 255.91796875 C221.1398584 255.45438965 220.36174805 254.99081055 219.56005859 254.51318359 C214.58450931 251.57226671 209.57129104 248.69630438 204.5625 245.8125 C203.45616211 245.17505859 202.34982422 244.53761719 201.20996094 243.88085938 C198.93844323 242.57220371 196.66679503 241.26377451 194.39501953 239.95556641 C188.92830025 236.80667949 183.46422354 233.6532151 178 230.5 C171.47767561 226.73634635 164.95486237 222.97355377 158.4296875 219.21484375 C146.74673401 212.48316277 135.07669401 205.73071115 123.44091797 198.91772461 C115.98897139 194.55912664 108.49693898 190.28396513 101 186 C101 206.46 101 226.92 101 248 C105.0425 250.31 109.085 252.62 113.25 255 C115.22667948 256.12983195 117.20335897 257.2596639 119.18003845 258.38949585 C124.33762281 261.33730153 129.49597928 264.28373161 134.65713501 267.22528076 C137.08640711 268.60990015 139.51520118 269.99535694 141.94396973 271.38085938 C143.61811416 272.335437 145.29292946 273.28883779 146.96777344 274.2421875 C149.07689495 275.44557868 151.17204243 276.67389759 153.25024414 277.92993164 C155.87573377 279.45913487 158.48277083 280.60462933 161.32452393 281.67407227 C166.20548151 283.69469922 170.58781536 285.86378942 174 290 C177.07232433 297.95722166 175.97196125 307.12270507 175.66015625 315.4765625 C175.6284198 317.97325433 175.60423473 320.47005257 175.58726501 322.96688843 C175.52917055 328.84823418 175.39549814 334.72398135 175.22432369 340.60304105 C175.01483062 347.9596486 174.92418966 355.31695 174.83007812 362.67578125 C174.64815107 375.78660971 174.36160845 388.89295898 174 402 C169.17010797 400.4685605 165.06198454 398.43997588 160.75 395.8125 C159.23643414 394.90628644 157.72205681 394.00142733 156.20703125 393.09765625 C155.37896973 392.60281738 154.5509082 392.10797852 153.69775391 391.59814453 C147.66485835 388.02426812 141.57258515 384.55176411 135.49316406 381.05786133 C127.82409539 376.64380193 120.17764998 372.19175439 112.53540039 367.73144531 C110.86867657 366.75892319 110.86867657 366.75892319 109.16828156 365.76675415 C106.44544267 364.17797032 103.72268432 362.58904868 101 361 C101.0169693 361.8168458 101.0339386 362.6336916 101.05142212 363.4752903 C101.45699115 383.3996092 101.72830634 403.32187517 101.8523407 423.25000954 C101.91552712 432.88791964 102.02323016 442.52139956 102.23779297 452.15722656 C102.42481878 460.56156435 102.52622658 468.96196298 102.52715683 477.36845529 C102.53057997 481.81729359 102.57524764 486.25664736 102.72271729 490.70323563 C103.57765342 517.69642898 103.57765342 517.69642898 97.63650513 524.84305573 C91.93449273 529.52784171 85.68344402 532.42079249 78.79031181 534.94067097 C75.16842486 536.31570367 72.09640923 538.1123682 68.8125 540.15625 C66.87526421 541.27129248 64.93777146 542.38588868 63 543.5 C54.6117784 548.3316713 46.2353579 553.18276971 37.875 558.0625 C36.90868652 558.62598145 35.94237305 559.18946289 34.94677734 559.77001953 C29.70203337 562.83054563 24.46480132 565.90334534 19.234375 568.98828125 C18.12852051 569.63853271 17.02266602 570.28878418 15.88330078 570.95874023 C13.74933859 572.21375816 11.61741863 573.4722566 9.48779297 574.73461914 C8.05910889 575.57367798 8.05910889 575.57367798 6.6015625 576.4296875 C5.33820068 577.17581299 5.33820068 577.17581299 4.04931641 577.93701172 C2 579 2 579 0 579 C0 387.93 0 196.86 0 0 Z " fill="#FF9200" transform="translate(1009,5)"/>
<path d="M0 0 C0.66 0 1.32 0 2 0 C2 191.07 2 382.14 2 579 C-1.49472611 577.60210955 -4.44993488 576.28283805 -7.67578125 574.453125 C-8.57337158 573.94539551 -9.47096191 573.43766602 -10.39575195 572.91455078 C-11.35827881 572.36524902 -12.32080566 571.81594727 -13.3125 571.25 C-14.32723389 570.67362793 -15.34196777 570.09725586 -16.38745117 569.50341797 C-24.55774411 564.85065445 -32.68567199 560.12650952 -40.79956055 555.3762207 C-49.19006506 550.46409469 -57.60854899 545.60176104 -66.04223633 540.76416016 C-68.04171353 539.61421797 -70.02256007 538.43133943 -71.9845562 537.2185545 C-75.02764916 535.42682119 -78.10823494 534.15653967 -81.40429878 532.89613819 C-88.63666202 529.84450836 -96.12889061 526.55012531 -99.26897573 518.91413093 C-101.17800315 510.08174307 -100.87293735 501.06952147 -100.63798666 492.08470237 C-100.55477623 487.97085346 -100.59976559 483.85807139 -100.62864685 479.74375916 C-100.66130608 472.62742535 -100.61398534 465.51529755 -100.51125717 458.39967918 C-100.36286124 448.11269297 -100.33675551 437.82820456 -100.33982863 427.5402805 C-100.34152374 410.84742634 -100.24527425 394.15664652 -100.08691406 377.46459961 C-99.93335663 361.25655789 -99.82624909 345.04929854 -99.78125 328.84057617 C-99.77706062 327.34025351 -99.77706062 327.34025351 -99.7727866 325.8096213 C-99.75905976 320.79149339 -99.74624232 315.77336365 -99.73387694 310.75523221 C-99.63022725 269.16892915 -99.36740765 227.58475598 -99 186 C-99.71953857 186.41511841 -100.43907715 186.83023682 -101.18041992 187.25793457 C-183.5 234.75 -183.5 234.75 -186.75268555 236.62646484 C-188.91049803 237.87141282 -191.06821353 239.1165289 -193.22583008 240.36181641 C-198.77716592 243.56552651 -204.33036541 246.7659363 -209.88671875 249.9609375 C-212.15374771 251.26544797 -214.42067645 252.57013262 -216.6875 253.875 C-217.77095703 254.49834229 -218.85441406 255.12168457 -219.97070312 255.76391602 C-226.63925068 259.60984963 -233.27387986 263.50457218 -239.81518555 267.56396484 C-243.78854186 270 -243.78854186 270 -246 270 C-246.56251595 253.4236563 -246.98471172 236.85043711 -247.24349213 220.26683617 C-247.36689141 212.56493224 -247.53480034 204.8689786 -247.81054688 197.17089844 C-248.05100519 190.4547218 -248.20485819 183.74285115 -248.25812387 177.02249014 C-248.28924969 173.46639459 -248.36131585 169.92260415 -248.53752136 166.37049484 C-249.39166713 148.47027578 -249.39166713 148.47027578 -246 141 C-240.20913226 134.72606341 -232.56896999 131.3314219 -224.77632141 128.15460587 C-221.32673328 126.72000443 -218.23446826 124.97750124 -215.03125 123.0625 C-213.18848878 122.03988285 -211.34476928 121.01899021 -209.5 120 C-201.27661004 115.42684114 -193.11412749 110.76425834 -185 106 C-175.85086711 100.62803207 -166.62596869 95.40923475 -157.35546875 90.25 C-150.18646305 86.25035548 -143.07907237 82.15651956 -136 78 C-126.85086711 72.62803207 -117.62596869 67.40923475 -108.35546875 62.25 C-101.18646305 58.25035548 -94.07907237 54.15651956 -87 50 C-77.85086711 44.62803207 -68.62596869 39.40923475 -59.35546875 34.25 C-51.19698042 29.69831535 -43.12474842 25.01096584 -35.07006836 20.27856445 C-26.36696653 15.17947913 -17.57638261 10.24570187 -8.75585938 5.35351562 C-7.75490234 4.79728516 -6.75394531 4.24105469 -5.72265625 3.66796875 C-4.38859741 2.92969849 -4.38859741 2.92969849 -3.02758789 2.17651367 C-1.07239978 1.15797255 -1.07239978 1.15797255 0 0 Z " fill="#FF8100" transform="translate(986,5)"/>
<path d="M0 0 C15.84 0 31.68 0 48 0 C50.47180709 9.26927658 52.89959106 18.51105949 55.11621094 27.83862305 C55.39964859 29.02432388 55.68308624 30.21002472 55.97511292 31.43165588 C56.73883356 34.6289062 57.50075448 37.82657739 58.26151943 41.02453208 C58.73816894 43.02766287 59.21538421 45.03065804 59.69278717 47.03360939 C61.36126434 54.03386873 63.0275844 61.03463749 64.69189453 68.03588867 C66.23983929 74.54735867 67.79270866 81.05764125 69.34777808 87.56741303 C70.6886273 93.18140892 72.02601916 98.79622107 73.36072564 104.41168052 C74.15556729 107.75551368 74.95181072 111.0989976 75.75157928 114.44165611 C76.63909315 118.15501398 77.52094741 121.86967156 78.40136719 125.5847168 C78.66625443 126.68756012 78.93114166 127.79040344 79.20405579 128.92666626 C79.56140053 130.44218834 79.56140053 130.44218834 79.92596436 131.98832703 C80.13462505 132.86482753 80.34328575 133.74132803 80.5582695 134.64438915 C81 137 81 137 81 141 C81.66 141 82.32 141 83 141 C83.10895001 140.3997658 83.21790003 139.79953159 83.33015156 139.18110847 C84.53574293 132.82402052 86.15950774 126.6984997 88.0534668 120.51513672 C88.35462906 119.518349 88.65579132 118.52156128 88.96607971 117.49456787 C89.95609385 114.2216006 90.95266402 110.95066859 91.94921875 107.6796875 C92.6474836 105.37506352 93.34529557 103.07030228 94.04267883 100.76541138 C95.87882992 94.70060811 97.72037362 88.6374564 99.56329346 82.57470703 C102.4956539 72.92445673 105.41937249 63.27158392 108.34391212 53.61896133 C109.35422612 50.28685122 110.36656169 46.95536134 111.37931824 43.62399292 C112.01965752 41.51486932 112.65974292 39.40566862 113.29956055 37.29638672 C113.60628535 36.28551939 113.91301016 35.27465206 114.22902966 34.23315239 C116.83167058 25.62369725 119.34582176 16.9891852 121.81085491 8.3393383 C122.08405969 7.38995951 122.35726446 6.44058071 122.63874817 5.46243286 C122.87831647 4.62246325 123.11788477 3.78249363 123.36471272 2.91707039 C124 1 124 1 125 0 C127.73894085 -0.08858646 130.4525327 -0.11523479 133.19140625 -0.09765625 C134.01124496 -0.0962413 134.83108368 -0.09482635 135.67576599 -0.09336853 C138.30471382 -0.08775289 140.93357773 -0.07519779 143.5625 -0.0625 C145.34049357 -0.05748701 147.11848846 -0.05292376 148.89648438 -0.04882812 C153.26435545 -0.03777839 157.63216348 -0.02050331 162 0 C167.36948161 16.53592766 172.47913589 33.13074622 177.375 49.8125 C178.7558719 54.50447942 180.13912145 59.19575441 181.5234375 63.88671875 C181.88000427 65.09545654 182.23657104 66.30419434 182.60394287 67.54956055 C185.17296122 76.24242321 187.77793309 84.92391664 190.40199661 93.60029411 C191.03458894 95.69223746 191.666494 97.78438719 192.29818726 99.87660217 C194.13429402 105.95685007 195.97222071 112.03649472 197.82169151 118.11269283 C198.76033622 121.2014607 199.69203422 124.29232542 200.625 127.3828125 C200.96794098 128.50319412 201.31088196 129.62357574 201.66421509 130.77790833 C202.12820206 132.32087837 202.12820206 132.32087837 202.6015625 133.89501953 C203.00882568 135.2362236 203.00882568 135.2362236 203.42431641 136.60452271 C204 139 204 139 204 143 C204.66 143 205.32 143 206 143 C206.15594887 141.18466515 206.15594887 141.18466515 206.31504822 139.33265686 C207.02408711 133.0015349 208.50629639 126.87255789 209.95922852 120.67749023 C210.2652326 119.35608468 210.57078229 118.03457384 210.87591553 116.71296692 C211.69974781 113.15055153 212.52987479 109.58963033 213.3611958 106.02895617 C214.23106673 102.29824388 215.09506347 98.56617162 215.95970154 94.83424377 C217.59530355 87.77872043 219.23613513 80.72442428 220.87887949 73.6705609 C222.74993542 65.63517549 224.61511104 57.59842884 226.47980988 49.56156623 C230.31336271 33.03952624 234.15501937 16.51938491 238 0 C253.84 0 269.68 0 286 0 C283.62740429 10.08353178 281.25166134 20.0870297 278.51098633 30.06323242 C278.18658066 31.25359604 277.86217499 32.44395966 277.52793884 33.6703949 C276.64904857 36.89305311 275.76755503 40.11497619 274.88481355 43.33658004 C273.9377152 46.79560209 272.99406456 50.25556479 272.04997253 53.71540833 C270.24885069 60.31401074 268.44465984 66.91176992 266.63936204 73.50923091 C264.65115672 80.77575538 262.66657652 88.04326807 260.6822474 95.31085181 C256.97331309 108.8942809 253.25908683 122.47625621 249.54152107 136.05732536 C247.32956878 144.13850225 245.11983451 152.22028034 242.91267878 160.30276865 C241.31015662 166.17090386 239.70619873 172.03864533 238.1011495 177.90608984 C237.15432043 181.36756303 236.20820076 184.82922645 235.263834 188.2913723 C234.22983963 192.0819971 233.19258849 195.87172626 232.1550293 199.66137695 C231.84811094 200.78858217 231.54119259 201.91578739 231.22497368 203.07715034 C230.9446586 204.09895834 230.66434353 205.12076633 230.37553406 206.17353821 C230.01097374 207.50768249 230.01097374 207.50768249 229.63904858 208.86877918 C229 211 229 211 228 213 C214.8 213 201.6 213 188 213 C186.12471436 207.99923829 184.3443075 203.11117772 182.74194336 198.03564453 C182.53599297 197.38527096 182.33004257 196.73489738 182.11785126 196.06481552 C181.43975004 193.92147129 180.76474838 191.77716523 180.08984375 189.6328125 C179.60481474 188.09696651 179.11962718 186.56117059 178.6342926 185.02542114 C177.3346593 180.91068823 176.03794734 176.79504032 174.74197388 172.67915344 C173.93736115 170.12455915 173.1319079 167.57023141 172.32617188 165.01599121 C162.45065377 133.70828447 152.68314807 102.36773709 143 71 C136.30400644 91.66160345 129.89698895 112.41026642 123.50280762 133.16674805 C122.42496043 136.66446625 121.34578944 140.16177534 120.2665844 143.65907478 C113.13817019 166.76071819 106.05602891 189.87613431 99 213 C85.47 213 71.94 213 58 213 C45.88549435 169.66398339 34.06281515 126.24945356 22.28331041 82.82145071 C21.68787541 80.62638395 21.09233769 78.43134509 20.49676132 76.23631668 C18.01275611 67.08136235 15.53007217 57.92605096 13.04876328 48.77036548 C12.52007827 46.81990305 11.99117215 44.86950071 11.46220398 42.91911507 C10.47237547 39.26869926 9.48349382 35.61802821 8.49487305 31.96728516 C8.21381808 30.931345 7.93276312 29.89540483 7.64319134 28.82807255 C5.04631093 19.23096778 2.53046735 9.61577591 0 0 Z " fill="#414F65" transform="translate(1703,849)"/>
<path d="M0 0 C60.39 0 120.78 0 183 0 C183 13.53 183 27.06 183 41 C139.44 41 95.88 41 51 41 C51 68.72 51 96.44 51 125 C88.95 125 126.9 125 166 125 C166 138.53 166 152.06 166 166 C128.05 166 90.1 166 51 166 C51 205.93 51 245.86 51 287 C34.17 287 17.34 287 0 287 C0 192.29 0 97.58 0 0 Z " fill="#424F66" transform="translate(1201,775)"/>
<path d="M0 0 C3.64991349 3.05815498 7.02616375 6.34996528 10.37207031 9.73535156 C11.03980469 10.39277344 11.70753906 11.05019531 12.39550781 11.72753906 C37.12835549 37.8033468 36.37207031 77.79166739 36.37207031 110.73535156 C-9.49792969 110.73535156 -55.36792969 110.73535156 -102.62792969 110.73535156 C-98.26501409 129.64131915 -92.95409937 147.12090168 -75.81542969 157.98535156 C-60.94747332 166.39296325 -44.81288536 167.93019858 -28.41308594 163.5715332 C-14.61139431 159.56464503 -3.51942994 151.96672031 5.37207031 140.73535156 C10.06530462 141.59245379 12.44739586 144.51924413 15.62207031 147.86035156 C16.7789068 149.05111716 17.93775386 150.23993287 19.09863281 151.42675781 C19.6584082 151.9992627 20.21818359 152.57176758 20.79492188 153.16162109 C23.32768663 155.68889688 26.02546747 157.99808241 28.78613281 160.27050781 C30.58584909 161.93280733 31.95675065 163.74103749 33.37207031 165.73535156 C25.34435374 176.83168335 16.39550254 186.05940388 4.37207031 192.73535156 C3.46070313 193.25742188 2.54933594 193.77949219 1.61035156 194.31738281 C-23.18238184 207.67772346 -55.17711568 209.71156869 -82.08203125 202.03515625 C-106.24644129 194.50449926 -126.92963341 179.35474152 -138.98144531 156.81542969 C-155.19494572 124.79144131 -155.89002715 85.88351616 -145.39355469 51.93457031 C-141.39613431 39.74153581 -135.84196569 28.64830583 -127.62792969 18.73535156 C-126.91765625 17.87425781 -126.20738281 17.01316406 -125.47558594 16.12597656 C-96.40570521 -17.59304151 -36.80068695 -28.58841608 0 0 Z M-82.62792969 33.73535156 C-83.20800781 34.19039062 -83.78808594 34.64542969 -84.38574219 35.11425781 C-94.95772663 44.19289019 -99.13060429 59.55867415 -101.62792969 72.73535156 C-101.62792969 73.39535156 -101.62792969 74.05535156 -101.62792969 74.73535156 C-71.92792969 74.73535156 -42.22792969 74.73535156 -11.62792969 74.73535156 C-12.78135515 58.58739509 -14.89425472 44.677065 -27.00292969 33.36035156 C-42.91633682 20.13916239 -67.01306904 19.54317822 -82.62792969 33.73535156 Z " fill="#414F65" transform="translate(352.6279296875,860.2646484375)"/>
<path d="M0 0 C1.74503514 1.502599 3.47543111 3.02244431 5.1875 4.5625 C6.24904297 5.50029297 6.24904297 5.50029297 7.33203125 6.45703125 C21.21323241 19.46210137 29.54976217 37.37734208 34.1875 55.5625 C34.66896484 57.41875 34.66896484 57.41875 35.16015625 59.3125 C42.84825492 93.58128965 37.33680519 131.62302117 19.1875 161.5625 C16.7340392 165.11902886 14.08713215 168.36216526 11.1875 171.5625 C10.45015625 172.39265625 9.7128125 173.2228125 8.953125 174.078125 C-7.5087539 191.6159437 -31.33454534 200.95695553 -55.1484375 201.78515625 C-80.81239834 202.33764728 -104.69104594 197.46885637 -124.8125 180.5625 C-125.54082031 179.97984375 -126.26914062 179.3971875 -127.01953125 178.796875 C-148.06116789 161.25603605 -157.83426639 133.80441602 -160.61621094 107.21826172 C-162.59289133 80.47407107 -160.00000201 54.75340277 -147.8125 30.5625 C-147.39613281 29.68464844 -146.97976563 28.80679688 -146.55078125 27.90234375 C-136.08462725 7.06000269 -116.71803887 -7.68802595 -94.91796875 -15.1484375 C-63.83823199 -25.17039439 -25.8089056 -20.65423437 0 0 Z M-98.8125 37.5625 C-110.52631943 52.95938795 -112.24300891 73.5205747 -112.1875 92.1875 C-112.1862915 92.93884216 -112.18508301 93.69018433 -112.18383789 94.46429443 C-112.09448685 114.93276482 -108.86922004 135.40079157 -93.9453125 150.734375 C-82.81014232 160.27880658 -70.22216179 163.38920045 -55.89013672 162.73730469 C-44.50437059 161.77934834 -35.05397294 156.15092847 -27.1875 148.125 C-11.01916493 128.39350104 -8.99637579 99.97888083 -11.27709961 75.56591797 C-13.13699221 58.84929288 -18.63745904 42.39151974 -31.15625 30.6015625 C-52.66143378 14.09317142 -81.20128389 16.4138258 -98.8125 37.5625 Z " fill="#424F65" transform="translate(986.8125,864.4375)"/>
<path d="M0 0 C1.08949951 0.00418945 2.17899902 0.00837891 3.30151367 0.01269531 C29.71554129 0.37877251 52.57028213 9.25957616 71.6875 27.75 C93.33370183 50.20250734 100.5427013 80.25841399 100.3125 110.625 C100.30793793 111.90651947 100.30793793 111.90651947 100.30328369 113.21392822 C100.2363503 125.93871045 99.6702613 138.07758736 95.875 150.3125 C95.65537598 151.05000488 95.43575195 151.78750977 95.20947266 152.54736328 C90.89293298 166.74337169 84.55957566 178.99313485 74.875 190.3125 C74.09125 191.34375 73.3075 192.375 72.5 193.4375 C56.92777075 210.4927987 32.94726764 220.10102489 10.15673828 221.4765625 C-16.25900332 222.5545727 -43.00919119 217.66542103 -63.125 199.3125 C-64.59259766 197.98412109 -64.59259766 197.98412109 -66.08984375 196.62890625 C-90.10224877 174.17352891 -96.99998396 143.0976755 -98.125 111.3125 C-98.17914062 110.10464844 -98.23328125 108.89679688 -98.2890625 107.65234375 C-98.98127437 80.75047322 -90.30150069 53.0539348 -73.125 32.3125 C-72.64804688 31.673125 -72.17109375 31.03375 -71.6796875 30.375 C-55.44816601 9.38093627 -25.46319627 -0.13498849 0 0 Z M-28.125 49.3125 C-28.72699219 49.79074219 -29.32898437 50.26898437 -29.94921875 50.76171875 C-39.56764176 59.34264894 -44.47834418 72.0264451 -47.125 84.3125 C-47.34929687 85.30507813 -47.57359375 86.29765625 -47.8046875 87.3203125 C-52.40496282 112.46428308 -50.7089686 140.26093516 -37.125 162.3125 C-35.02126502 165.30997859 -32.83542767 167.85448467 -30.125 170.3125 C-29.23748047 171.11880859 -29.23748047 171.11880859 -28.33203125 171.94140625 C-18.11752509 180.34468039 -6.06278249 183.1376534 6.875 182.3125 C18.78780154 180.63702211 30.41355697 174.94789433 37.875 165.3125 C52.85213038 144.42248951 54.13456424 115.53977236 51.1875 90.8125 C48.39731537 74.63723385 41.96493104 57.83443672 28.59765625 47.5625 C10.86431103 36.06600391 -11.44281732 35.78907381 -28.125 49.3125 Z " fill="#414F65" transform="translate(1593.125,844.6875)"/>
<path d="M0 0 C16.36773953 14.09298978 22.7456808 33.03632297 24.50884247 54.20313644 C25.19728807 65.70319438 24.93185273 77.28043238 24.89028788 88.79670262 C24.87764623 92.89924653 24.87659957 97.00179448 24.87423706 101.10435486 C24.86806126 108.84574675 24.8517042 116.58708104 24.83153808 124.32844776 C24.80905645 133.15333342 24.79815505 141.97822207 24.78814721 150.80312932 C24.76733374 168.931292 24.73070731 187.0593759 24.6875 205.1875 C8.5175 205.1875 -7.6525 205.1875 -24.3125 205.1875 C-24.32708252 200.76698242 -24.34166504 196.34646484 -24.35668945 191.79199219 C-24.40708302 177.16753631 -24.47353795 162.54318576 -24.54821491 147.91883469 C-24.59308993 139.05430036 -24.63252352 130.18980547 -24.65893555 121.32519531 C-24.68198302 113.59453483 -24.71545584 105.86399999 -24.76120156 98.1334393 C-24.78504319 94.04402664 -24.80383108 89.95473773 -24.81011391 85.86525726 C-24.81620609 82.00742883 -24.83635293 78.14991665 -24.86677551 74.29220581 C-24.87549008 72.88466853 -24.87929216 71.4770898 -24.87750816 70.06952667 C-24.86784702 58.9187087 -25.54882464 47.50005389 -32.3046875 38.1640625 C-40.82001788 29.78126645 -51.70591484 28.88986979 -62.93701172 28.87060547 C-74.83929256 29.054556 -85.03040973 32.94949457 -93.5390625 41.3984375 C-98.78215472 47.13724025 -102.67798991 51.50915639 -102.71122742 59.5592804 C-102.72376556 60.84510513 -102.73630371 62.13092987 -102.7492218 63.45571899 C-102.74804784 64.87323024 -102.74658873 66.29074126 -102.74487305 67.70825195 C-102.75389276 69.20651558 -102.7642205 70.70477182 -102.77575684 72.20301819 C-102.80332854 76.26459556 -102.81261156 80.32603291 -102.81861091 84.38769174 C-102.82799414 88.63450939 -102.85419749 92.88122244 -102.87861633 97.12797546 C-102.92228642 105.16721278 -102.95083025 113.20642981 -102.97393972 121.24574965 C-103.00098866 130.39931872 -103.04490036 139.55278258 -103.09022844 148.70627654 C-103.18308208 167.53330929 -103.25253348 186.36033179 -103.3125 205.1875 C-119.4825 205.1875 -135.6525 205.1875 -152.3125 205.1875 C-152.3125 134.8975 -152.3125 64.6075 -152.3125 -7.8125 C-137.1325 -7.8125 -121.9525 -7.8125 -106.3125 -7.8125 C-105.1875 -1.0625 -105.1875 -1.0625 -104.99609375 2.2734375 C-104.95419922 2.97597656 -104.91230469 3.67851563 -104.86914062 4.40234375 C-104.82982422 5.11519531 -104.79050781 5.82804688 -104.75 6.5625 C-104.68522461 7.66658203 -104.68522461 7.66658203 -104.61914062 8.79296875 C-104.51406201 10.59098068 -104.41287907 12.38921958 -104.3125 14.1875 C-103.74144531 13.5584375 -103.17039062 12.929375 -102.58203125 12.28125 C-78.06260284 -13.60253452 -29.84788704 -22.92533493 0 0 Z " fill="#414F65" transform="translate(576.3125,856.8125)"/>
<path d="M0 0 C12.42515633 10.7094734 19.95925535 24.34703921 22.1875 40.6875 C22.1875 43.6575 22.1875 46.6275 22.1875 49.6875 C6.0175 49.6875 -10.1525 49.6875 -26.8125 49.6875 C-27.8025 44.2425 -27.8025 44.2425 -28.8125 38.6875 C-33.3860097 28.62577866 -39.20231162 23.63510051 -49.51171875 19.66796875 C-60.87143266 16.2936632 -72.98845235 17.08513505 -83.7734375 22.05078125 C-90.9109695 26.10096437 -94.94565023 30.3827277 -97.3359375 38.2890625 C-98.52136063 44.25504449 -97.47745239 50.03770424 -94.13671875 55.13671875 C-84.78103951 66.09307467 -65.88187987 68.50264562 -52.5625 71.625 C-27.4157347 77.53616681 0.60709589 84.49087172 16.125 107 C23.88264024 120.42668503 25.70860675 136.48724041 22.45703125 151.67578125 C21.55544931 154.80739851 20.50692842 157.7101056 19.1875 160.6875 C18.836875 161.48929688 18.48625 162.29109375 18.125 163.1171875 C10.02021864 179.38303343 -6.17193475 190.36087873 -22.92578125 196.1640625 C-53.68675105 206.13963378 -87.70683808 203.85580181 -116.625 189.5 C-123.64997279 185.52210916 -129.1698998 180.38685049 -134.8125 174.6875 C-135.94171875 173.59115234 -135.94171875 173.59115234 -137.09375 172.47265625 C-148.54346156 160.6486272 -152.8125 145.83053455 -152.8125 129.6875 C-137.3025 129.6875 -121.7925 129.6875 -105.8125 129.6875 C-104.8225 133.9775 -103.8325 138.2675 -102.8125 142.6875 C-96.72908489 153.60999531 -89.60185938 158.65598882 -77.8125 162.6875 C-64.50677071 166.38612055 -48.13877587 164.4586508 -35.9375 158.4375 C-30.76850391 155.38056683 -27.72780696 151.43342087 -25.8125 145.6875 C-25.07596635 136.75250158 -25.27292128 131.07483137 -31.109375 124.1484375 C-39.76934711 115.44382635 -54.39856144 112.75243937 -66.01956177 110.15966797 C-69.64057724 109.34761493 -73.24992178 108.48677636 -76.859375 107.625 C-77.55978409 107.45798584 -78.26019318 107.29097168 -78.98182678 107.11889648 C-101.46531885 101.70569294 -125.50394133 92.75841215 -138.8125 72.6875 C-146.54146069 59.83884412 -147.92804102 44.94784721 -144.6875 30.375 C-139.2815641 12.19816047 -127.41503813 -0.3003489 -110.99707031 -9.30859375 C-77.3070291 -26.88600655 -30.01121283 -23.43850919 0 0 Z " fill="#424F65" transform="translate(778.8125,864.3125)"/>
<path d="M0 0 C75.24 0 150.48 0 228 0 C228 13.53 228 27.06 228 41 C198.3 41 168.6 41 138 41 C138 122.18 138 203.36 138 287 C121.5 287 105 287 88 287 C88 205.82 88 124.64 88 41 C58.96 41 29.92 41 0 41 C0 27.47 0 13.94 0 0 Z " fill="#414F66" transform="translate(17,775)"/>
<path d="M0 0 C15.84 0 31.68 0 48 0 C48 94.71 48 189.42 48 287 C32.16 287 16.32 287 0 287 C0 192.29 0 97.58 0 0 Z " fill="#424F66" transform="translate(1413,775)"/>
<path d="M0 0 C0.74443359 -0.01393799 1.48886719 -0.02787598 2.25585938 -0.04223633 C2.98095703 -0.03603271 3.70605469 -0.0298291 4.453125 -0.0234375 C5.40687012 -0.01836182 5.40687012 -0.01836182 6.37988281 -0.01318359 C9.96859772 0.57458492 13.34501136 2.09812926 16.75 3.375 C16.75 18.225 16.75 33.075 16.75 48.375 C2.5 48.1875 2.5 48.1875 -1.91503906 48.10473633 C-16.42461093 48.01323984 -28.09637413 50.89662341 -39.25 60.375 C-46.22628576 68.3808013 -47.2643319 75.71719738 -47.13647461 86.02612305 C-47.14438025 87.46617035 -47.15535296 88.90620355 -47.16912842 90.34620667 C-47.19764576 94.22187197 -47.18372324 98.09631763 -47.16168666 101.97198081 C-47.14596783 106.03461957 -47.16996173 110.09702816 -47.18959045 114.15962219 C-47.22073129 121.83757775 -47.21659486 129.51508508 -47.19951588 137.19306833 C-47.18179563 145.9405272 -47.2038106 154.68774839 -47.22902286 163.43517244 C-47.27996313 181.41528348 -47.27621646 199.39482449 -47.25 217.375 C-63.42 217.375 -79.59 217.375 -96.25 217.375 C-96.25 147.085 -96.25 76.795 -96.25 4.375 C-80.74 4.375 -65.23 4.375 -49.25 4.375 C-48.59 10.975 -47.93 17.575 -47.25 24.375 C-45.909375 22.84875 -44.56875 21.3225 -43.1875 19.75 C-31.13702834 6.4419246 -18.14235256 0.21766358 0 0 Z " fill="#414F66" transform="translate(1151.25,844.625)"/>
</svg>
